G04 #@! TF.GenerationSoftware,KiCad,Pcbnew,8.0.7-8.0.7-0~ubuntu24.04.1*
G04 #@! TF.CreationDate,2024-12-30T22:58:19-07:00*
G04 #@! TF.ProjectId,DRV8311 Motor Driver,44525638-3331-4312-904d-6f746f722044,V1*
G04 #@! TF.SameCoordinates,Original*
G04 #@! TF.FileFunction,Copper,L3,Inr*
G04 #@! TF.FilePolarity,Positive*
%FSLAX46Y46*%
G04 Gerber Fmt 4.6, Leading zero omitted, Abs format (unit mm)*
G04 Created by KiCad (PCBNEW 8.0.7-8.0.7-0~ubuntu24.04.1) date 2024-12-30 22:58:19*
%MOMM*%
%LPD*%
G01*
G04 APERTURE LIST*
G04 Aperture macros list*
%AMRoundRect*
0 Rectangle with rounded corners*
0 $1 Rounding radius*
0 $2 $3 $4 $5 $6 $7 $8 $9 X,Y pos of 4 corners*
0 Add a 4 corners polygon primitive as box body*
4,1,4,$2,$3,$4,$5,$6,$7,$8,$9,$2,$3,0*
0 Add four circle primitives for the rounded corners*
1,1,$1+$1,$2,$3*
1,1,$1+$1,$4,$5*
1,1,$1+$1,$6,$7*
1,1,$1+$1,$8,$9*
0 Add four rect primitives between the rounded corners*
20,1,$1+$1,$2,$3,$4,$5,0*
20,1,$1+$1,$4,$5,$6,$7,0*
20,1,$1+$1,$6,$7,$8,$9,0*
20,1,$1+$1,$8,$9,$2,$3,0*%
G04 Aperture macros list end*
G04 #@! TA.AperFunction,ComponentPad*
%ADD10RoundRect,0.200000X0.450000X-0.200000X0.450000X0.200000X-0.450000X0.200000X-0.450000X-0.200000X0*%
G04 #@! TD*
G04 #@! TA.AperFunction,ComponentPad*
%ADD11O,1.300000X0.800000*%
G04 #@! TD*
G04 #@! TA.AperFunction,ComponentPad*
%ADD12C,0.600000*%
G04 #@! TD*
G04 #@! TA.AperFunction,ComponentPad*
%ADD13R,1.000000X1.000000*%
G04 #@! TD*
G04 #@! TA.AperFunction,ComponentPad*
%ADD14O,1.000000X1.000000*%
G04 #@! TD*
G04 #@! TA.AperFunction,ViaPad*
%ADD15C,0.600000*%
G04 #@! TD*
G04 APERTURE END LIST*
D10*
G04 #@! TO.N,Net-(J4-Pin_1)*
G04 #@! TO.C,J4*
X173800000Y-102900000D03*
D11*
G04 #@! TO.N,Net-(J4-Pin_2)*
X173800000Y-101650000D03*
G04 #@! TO.N,Net-(J4-Pin_3)*
X173800000Y-100400000D03*
G04 #@! TD*
D12*
G04 #@! TO.N,GNDPWR*
G04 #@! TO.C,U1*
X169434998Y-102130000D03*
X170835000Y-102130000D03*
X170134999Y-101404599D03*
X169434998Y-100729998D03*
X170835000Y-100729998D03*
G04 #@! TD*
D13*
G04 #@! TO.N,Net-(J2-Pin_1)*
G04 #@! TO.C,J2*
X168300000Y-97900000D03*
D14*
G04 #@! TO.N,Net-(J2-Pin_2)*
X168300000Y-96630000D03*
G04 #@! TO.N,Net-(J2-Pin_3)*
X168300000Y-95360000D03*
G04 #@! TD*
D13*
G04 #@! TO.N,Net-(J1-Pin_1)*
G04 #@! TO.C,J1*
X168300000Y-108050000D03*
D14*
G04 #@! TO.N,Net-(J1-Pin_2)*
X168300000Y-106780000D03*
G04 #@! TO.N,Net-(J1-Pin_3)*
X168300000Y-105510000D03*
G04 #@! TD*
D15*
G04 #@! TO.N,+3.3V*
X165874999Y-102000001D03*
G04 #@! TO.N,GND*
X165400000Y-100650000D03*
X165900000Y-104300000D03*
G04 #@! TO.N,VDD*
X178300000Y-104300000D03*
X177500000Y-102900000D03*
X177900000Y-103600000D03*
X177900000Y-102100000D03*
X177300000Y-104400000D03*
X178300000Y-101400000D03*
X177900000Y-100600000D03*
X171000000Y-104950000D03*
X177900000Y-99100000D03*
X178300000Y-99800000D03*
X177500000Y-99800000D03*
X166850000Y-105250000D03*
X178300000Y-102900000D03*
X177500000Y-101400000D03*
G04 #@! TO.N,Net-(U1-CP)*
X171132802Y-104018589D03*
G04 #@! TO.N,GNDPWR*
X165700000Y-107200000D03*
X171150000Y-107900000D03*
X171150000Y-108700000D03*
X166500000Y-108000000D03*
X165700000Y-106400000D03*
X173800000Y-97800000D03*
X170300000Y-108700000D03*
X165700000Y-108000000D03*
X166100000Y-95700000D03*
X172800000Y-108700000D03*
X164900000Y-106400000D03*
X172000000Y-108700000D03*
X166900000Y-96500000D03*
X170300000Y-107900000D03*
X164900000Y-107200000D03*
X173600000Y-108700000D03*
X165300000Y-96500000D03*
X171100000Y-106200000D03*
X173000000Y-99400000D03*
X173000000Y-98600000D03*
X166500000Y-107200000D03*
X166900000Y-94900000D03*
X173000000Y-97800000D03*
X169600000Y-108300000D03*
X173800000Y-98600000D03*
X165300000Y-95700000D03*
X166900000Y-95700000D03*
X172200000Y-98600000D03*
X171150000Y-107100000D03*
X166500000Y-106400000D03*
X173800000Y-99400000D03*
X169700000Y-107300000D03*
X165300000Y-94900000D03*
X172200000Y-99400000D03*
X176125000Y-105200000D03*
X172200000Y-97800000D03*
X170300000Y-106750000D03*
X166100000Y-94900000D03*
X164900000Y-108000000D03*
X166100000Y-96500000D03*
G04 #@! TO.N,Net-(U1-SLEEP_N)*
X167200000Y-102600000D03*
G04 #@! TO.N,Net-(U1-GAIN)*
X167825737Y-100674263D03*
G04 #@! TO.N,unconnected-(U1-SLEW-Pad22)*
X166780000Y-100750000D03*
G04 #@! TO.N,Net-(U1-FAULT_N)*
X168300000Y-103000000D03*
G04 #@! TD*
G04 #@! TA.AperFunction,Conductor*
G04 #@! TO.N,GNDPWR*
G36*
X168113123Y-94420462D02*
G01*
X168167661Y-94475000D01*
X168187623Y-94549500D01*
X168167661Y-94624000D01*
X168113123Y-94678538D01*
X168074281Y-94694170D01*
X168049775Y-94700209D01*
X167899145Y-94779267D01*
X167771820Y-94892067D01*
X167771817Y-94892071D01*
X167675181Y-95032070D01*
X167614860Y-95191125D01*
X167594355Y-95360000D01*
X167614860Y-95528874D01*
X167675181Y-95687929D01*
X167675182Y-95687930D01*
X167771817Y-95827929D01*
X167820616Y-95871161D01*
X167834512Y-95883472D01*
X167877038Y-95947817D01*
X167881695Y-96024804D01*
X167847234Y-96093806D01*
X167834512Y-96106528D01*
X167771817Y-96162071D01*
X167675181Y-96302070D01*
X167614860Y-96461125D01*
X167594355Y-96630000D01*
X167614860Y-96798874D01*
X167675181Y-96957929D01*
X167723565Y-97028024D01*
X167749458Y-97100676D01*
X167735555Y-97176541D01*
X167685583Y-97235290D01*
X167683726Y-97236551D01*
X167655452Y-97255444D01*
X167655448Y-97255448D01*
X167611132Y-97321769D01*
X167599500Y-97380251D01*
X167599500Y-98419748D01*
X167611132Y-98478230D01*
X167611133Y-98478231D01*
X167655448Y-98544552D01*
X167721769Y-98588867D01*
X167780252Y-98600500D01*
X168819748Y-98600500D01*
X168878231Y-98588867D01*
X168944552Y-98544552D01*
X168988867Y-98478231D01*
X169000500Y-98419748D01*
X169000500Y-97380252D01*
X168988867Y-97321769D01*
X168944552Y-97255448D01*
X168944411Y-97255354D01*
X168916274Y-97236552D01*
X168865422Y-97178563D01*
X168850377Y-97102916D01*
X168875172Y-97029882D01*
X168876317Y-97028195D01*
X168924818Y-96957930D01*
X168985140Y-96798872D01*
X169005645Y-96630000D01*
X168985140Y-96461128D01*
X168924818Y-96302070D01*
X168828183Y-96162071D01*
X168828180Y-96162068D01*
X168828179Y-96162067D01*
X168765488Y-96106528D01*
X168722961Y-96042184D01*
X168718304Y-95965197D01*
X168752765Y-95896195D01*
X168765488Y-95883472D01*
X168787036Y-95864381D01*
X168828183Y-95827929D01*
X168924818Y-95687930D01*
X168985140Y-95528872D01*
X169005645Y-95360000D01*
X168985140Y-95191128D01*
X168924818Y-95032070D01*
X168828183Y-94892071D01*
X168828180Y-94892068D01*
X168828179Y-94892067D01*
X168700853Y-94779267D01*
X168700854Y-94779267D01*
X168550224Y-94700209D01*
X168525719Y-94694170D01*
X168458161Y-94656959D01*
X168418260Y-94590955D01*
X168416707Y-94513842D01*
X168453918Y-94446284D01*
X168519922Y-94406383D01*
X168561377Y-94400500D01*
X178450500Y-94400500D01*
X178525000Y-94420462D01*
X178579538Y-94475000D01*
X178599500Y-94549500D01*
X178599500Y-98745723D01*
X178579538Y-98820223D01*
X178525000Y-98874761D01*
X178450500Y-98894723D01*
X178376000Y-98874761D01*
X178333197Y-98833951D01*
X178332355Y-98834681D01*
X178325377Y-98826628D01*
X178325377Y-98826627D01*
X178231128Y-98717857D01*
X178231127Y-98717856D01*
X178197465Y-98696223D01*
X178110053Y-98640047D01*
X178110050Y-98640046D01*
X177971967Y-98599501D01*
X177971962Y-98599500D01*
X177971961Y-98599500D01*
X177828039Y-98599500D01*
X177828037Y-98599500D01*
X177828032Y-98599501D01*
X177689949Y-98640046D01*
X177568872Y-98717856D01*
X177568870Y-98717859D01*
X177474622Y-98826628D01*
X177414834Y-98957545D01*
X177394353Y-99099996D01*
X177394353Y-99099997D01*
X177404865Y-99173114D01*
X177395707Y-99249697D01*
X177349486Y-99311441D01*
X177299366Y-99337280D01*
X177289950Y-99340045D01*
X177168872Y-99417856D01*
X177168870Y-99417859D01*
X177074622Y-99526628D01*
X177014834Y-99657545D01*
X176994353Y-99799996D01*
X176994353Y-99800003D01*
X177014834Y-99942454D01*
X177014834Y-99942455D01*
X177014835Y-99942457D01*
X177074623Y-100073373D01*
X177168872Y-100182143D01*
X177289947Y-100259953D01*
X177315370Y-100267417D01*
X177381228Y-100307560D01*
X177418192Y-100375253D01*
X177416357Y-100452358D01*
X177414834Y-100457544D01*
X177394353Y-100599996D01*
X177394353Y-100600003D01*
X177414834Y-100742455D01*
X177416356Y-100747638D01*
X177418192Y-100824744D01*
X177381229Y-100892438D01*
X177315373Y-100932581D01*
X177289947Y-100940047D01*
X177168872Y-101017856D01*
X177168870Y-101017859D01*
X177074622Y-101126628D01*
X177014834Y-101257545D01*
X176994353Y-101399996D01*
X176994353Y-101400003D01*
X177014834Y-101542454D01*
X177014834Y-101542455D01*
X177014835Y-101542457D01*
X177074623Y-101673373D01*
X177168872Y-101782143D01*
X177289947Y-101859953D01*
X177296536Y-101861887D01*
X177299360Y-101862717D01*
X177365218Y-101902860D01*
X177402181Y-101970553D01*
X177404865Y-102026885D01*
X177394353Y-102100002D01*
X177394353Y-102100003D01*
X177414834Y-102242455D01*
X177416356Y-102247638D01*
X177418192Y-102324744D01*
X177381229Y-102392438D01*
X177315373Y-102432581D01*
X177289947Y-102440047D01*
X177168872Y-102517856D01*
X177168870Y-102517859D01*
X177074622Y-102626628D01*
X177014834Y-102757545D01*
X176994353Y-102899996D01*
X176994353Y-102900003D01*
X177014834Y-103042454D01*
X177014834Y-103042455D01*
X177014835Y-103042457D01*
X177074623Y-103173373D01*
X177168872Y-103282143D01*
X177289947Y-103359953D01*
X177296536Y-103361887D01*
X177299360Y-103362717D01*
X177365218Y-103402860D01*
X177402181Y-103470553D01*
X177404865Y-103526885D01*
X177394353Y-103600002D01*
X177394353Y-103600003D01*
X177412942Y-103729295D01*
X177403786Y-103805878D01*
X177357564Y-103867622D01*
X177286664Y-103897983D01*
X177265459Y-103899500D01*
X177228039Y-103899500D01*
X177228037Y-103899500D01*
X177228032Y-103899501D01*
X177089949Y-103940046D01*
X176968872Y-104017856D01*
X176968870Y-104017859D01*
X176874622Y-104126628D01*
X176814834Y-104257545D01*
X176794353Y-104399996D01*
X176794353Y-104400003D01*
X176814834Y-104542454D01*
X176814834Y-104542455D01*
X176814835Y-104542457D01*
X176849551Y-104618474D01*
X176871807Y-104667208D01*
X176874623Y-104673373D01*
X176968872Y-104782143D01*
X177089947Y-104859953D01*
X177228039Y-104900500D01*
X177228041Y-104900500D01*
X177371959Y-104900500D01*
X177371961Y-104900500D01*
X177510053Y-104859953D01*
X177631128Y-104782143D01*
X177725377Y-104673373D01*
X177725379Y-104673367D01*
X177730716Y-104667209D01*
X177794589Y-104623977D01*
X177871521Y-104618474D01*
X177940897Y-104652174D01*
X177955929Y-104667206D01*
X177968872Y-104682143D01*
X178089947Y-104759953D01*
X178228039Y-104800500D01*
X178228041Y-104800500D01*
X178371959Y-104800500D01*
X178371961Y-104800500D01*
X178371963Y-104800499D01*
X178371965Y-104800499D01*
X178408521Y-104789765D01*
X178485627Y-104787929D01*
X178553321Y-104824892D01*
X178593464Y-104890750D01*
X178599500Y-104932729D01*
X178599500Y-108850500D01*
X178579538Y-108925000D01*
X178525000Y-108979538D01*
X178450500Y-108999500D01*
X168979353Y-108999500D01*
X168904853Y-108979538D01*
X168850315Y-108925000D01*
X168830353Y-108850500D01*
X168850315Y-108776000D01*
X168896569Y-108726613D01*
X168944552Y-108694552D01*
X168988867Y-108628231D01*
X169000500Y-108569748D01*
X169000500Y-107530252D01*
X168988867Y-107471769D01*
X168944552Y-107405448D01*
X168944411Y-107405354D01*
X168916274Y-107386552D01*
X168865422Y-107328563D01*
X168850377Y-107252916D01*
X168875172Y-107179882D01*
X168876317Y-107178195D01*
X168924818Y-107107930D01*
X168985140Y-106948872D01*
X169005645Y-106780000D01*
X168985140Y-106611128D01*
X168924818Y-106452070D01*
X168828183Y-106312071D01*
X168828180Y-106312068D01*
X168828179Y-106312067D01*
X168765488Y-106256528D01*
X168722961Y-106192184D01*
X168718304Y-106115197D01*
X168752765Y-106046195D01*
X168765488Y-106033472D01*
X168787036Y-106014381D01*
X168828183Y-105977929D01*
X168924818Y-105837930D01*
X168985140Y-105678872D01*
X169005645Y-105510000D01*
X168985140Y-105341128D01*
X168981732Y-105332143D01*
X168924818Y-105182070D01*
X168828183Y-105042071D01*
X168828180Y-105042068D01*
X168828179Y-105042067D01*
X168724251Y-104949996D01*
X170494353Y-104949996D01*
X170494353Y-104950003D01*
X170514834Y-105092454D01*
X170514834Y-105092455D01*
X170514835Y-105092457D01*
X170574623Y-105223373D01*
X170668872Y-105332143D01*
X170789947Y-105409953D01*
X170928039Y-105450500D01*
X170928041Y-105450500D01*
X171071959Y-105450500D01*
X171071961Y-105450500D01*
X171210053Y-105409953D01*
X171331128Y-105332143D01*
X171425377Y-105223373D01*
X171485165Y-105092457D01*
X171505647Y-104950000D01*
X171505647Y-104949996D01*
X171491992Y-104855028D01*
X171485165Y-104807543D01*
X171425377Y-104676627D01*
X171398216Y-104645281D01*
X171364517Y-104575907D01*
X171370020Y-104498975D01*
X171413252Y-104435102D01*
X171430261Y-104422369D01*
X171463930Y-104400732D01*
X171558179Y-104291962D01*
X171617967Y-104161046D01*
X171637161Y-104027550D01*
X171638449Y-104018592D01*
X171638449Y-104018585D01*
X171621109Y-103897983D01*
X171617967Y-103876132D01*
X171558179Y-103745216D01*
X171463930Y-103636446D01*
X171463929Y-103636445D01*
X171407222Y-103600002D01*
X171342855Y-103558636D01*
X171342852Y-103558635D01*
X171204769Y-103518090D01*
X171204764Y-103518089D01*
X171204763Y-103518089D01*
X171060841Y-103518089D01*
X171060839Y-103518089D01*
X171060834Y-103518090D01*
X170922751Y-103558635D01*
X170801674Y-103636445D01*
X170801672Y-103636448D01*
X170707424Y-103745217D01*
X170647636Y-103876134D01*
X170627155Y-104018585D01*
X170627155Y-104018592D01*
X170647636Y-104161043D01*
X170647636Y-104161044D01*
X170647637Y-104161046D01*
X170707425Y-104291962D01*
X170714393Y-104300003D01*
X170734584Y-104323305D01*
X170768284Y-104392681D01*
X170762781Y-104469613D01*
X170719549Y-104533486D01*
X170702534Y-104546223D01*
X170668874Y-104567855D01*
X170668870Y-104567859D01*
X170574622Y-104676628D01*
X170514834Y-104807545D01*
X170494353Y-104949996D01*
X168724251Y-104949996D01*
X168700853Y-104929267D01*
X168700854Y-104929267D01*
X168550224Y-104850209D01*
X168385056Y-104809500D01*
X168214944Y-104809500D01*
X168049775Y-104850209D01*
X167899145Y-104929267D01*
X167771820Y-105042067D01*
X167771817Y-105042071D01*
X167675179Y-105182074D01*
X167641066Y-105272024D01*
X167595983Y-105334604D01*
X167525650Y-105366258D01*
X167448913Y-105358505D01*
X167386333Y-105313422D01*
X167354679Y-105243089D01*
X167354266Y-105240392D01*
X167335166Y-105107545D01*
X167325633Y-105086672D01*
X167275377Y-104976627D01*
X167181128Y-104867857D01*
X167181127Y-104867856D01*
X167147465Y-104846223D01*
X167060053Y-104790047D01*
X167052840Y-104787929D01*
X166921967Y-104749501D01*
X166921962Y-104749500D01*
X166921961Y-104749500D01*
X166778039Y-104749500D01*
X166778037Y-104749500D01*
X166778032Y-104749501D01*
X166639949Y-104790046D01*
X166639947Y-104790046D01*
X166639947Y-104790047D01*
X166623682Y-104800500D01*
X166518872Y-104867856D01*
X166518870Y-104867859D01*
X166424622Y-104976628D01*
X166364834Y-105107545D01*
X166344353Y-105249996D01*
X166344353Y-105250003D01*
X166364834Y-105392454D01*
X166364834Y-105392455D01*
X166364835Y-105392457D01*
X166424623Y-105523373D01*
X166518872Y-105632143D01*
X166639947Y-105709953D01*
X166778039Y-105750500D01*
X166778041Y-105750500D01*
X166921959Y-105750500D01*
X166921961Y-105750500D01*
X167060053Y-105709953D01*
X167181128Y-105632143D01*
X167275377Y-105523373D01*
X167309820Y-105447953D01*
X167358927Y-105388479D01*
X167431192Y-105361526D01*
X167507252Y-105374316D01*
X167566727Y-105423423D01*
X167593680Y-105495688D01*
X167594355Y-105509851D01*
X167594355Y-105509996D01*
X167594355Y-105510000D01*
X167595979Y-105523371D01*
X167614860Y-105678874D01*
X167675181Y-105837929D01*
X167675182Y-105837930D01*
X167771817Y-105977929D01*
X167820616Y-106021161D01*
X167834512Y-106033472D01*
X167877038Y-106097817D01*
X167881695Y-106174804D01*
X167847234Y-106243806D01*
X167834512Y-106256528D01*
X167771817Y-106312071D01*
X167675181Y-106452070D01*
X167614860Y-106611125D01*
X167594355Y-106780000D01*
X167614860Y-106948874D01*
X167675181Y-107107929D01*
X167723565Y-107178024D01*
X167749458Y-107250676D01*
X167735555Y-107326541D01*
X167685583Y-107385290D01*
X167683726Y-107386551D01*
X167655452Y-107405444D01*
X167655448Y-107405448D01*
X167611132Y-107471769D01*
X167599500Y-107530251D01*
X167599500Y-108569748D01*
X167611132Y-108628230D01*
X167611133Y-108628231D01*
X167655448Y-108694552D01*
X167703429Y-108726612D01*
X167754282Y-108784601D01*
X167769328Y-108860247D01*
X167744535Y-108933282D01*
X167686546Y-108984135D01*
X167620647Y-108999500D01*
X164149500Y-108999500D01*
X164075000Y-108979538D01*
X164020462Y-108925000D01*
X164000500Y-108850500D01*
X164000500Y-104299996D01*
X165394353Y-104299996D01*
X165394353Y-104300003D01*
X165414834Y-104442454D01*
X165414834Y-104442455D01*
X165414835Y-104442457D01*
X165474623Y-104573373D01*
X165568872Y-104682143D01*
X165689947Y-104759953D01*
X165828039Y-104800500D01*
X165828041Y-104800500D01*
X165971959Y-104800500D01*
X165971961Y-104800500D01*
X166110053Y-104759953D01*
X166231128Y-104682143D01*
X166325377Y-104573373D01*
X166385165Y-104442457D01*
X166395406Y-104371228D01*
X166405647Y-104300003D01*
X166405647Y-104299996D01*
X166391992Y-104205028D01*
X166385165Y-104157543D01*
X166325377Y-104026627D01*
X166231128Y-103917857D01*
X166231127Y-103917856D01*
X166197465Y-103896223D01*
X166110053Y-103840047D01*
X166110050Y-103840046D01*
X165971967Y-103799501D01*
X165971962Y-103799500D01*
X165971961Y-103799500D01*
X165828039Y-103799500D01*
X165828037Y-103799500D01*
X165828032Y-103799501D01*
X165689949Y-103840046D01*
X165568872Y-103917856D01*
X165568870Y-103917859D01*
X165474622Y-104026628D01*
X165414834Y-104157545D01*
X165394353Y-104299996D01*
X164000500Y-104299996D01*
X164000500Y-102599996D01*
X166694353Y-102599996D01*
X166694353Y-102600003D01*
X166714834Y-102742454D01*
X166767394Y-102857545D01*
X166774623Y-102873373D01*
X166868872Y-102982143D01*
X166989947Y-103059953D01*
X167128039Y-103100500D01*
X167128041Y-103100500D01*
X167271959Y-103100500D01*
X167271961Y-103100500D01*
X167410053Y-103059953D01*
X167531128Y-102982143D01*
X167541030Y-102970715D01*
X167604897Y-102927484D01*
X167681829Y-102921977D01*
X167751206Y-102955674D01*
X167794440Y-103019545D01*
X167801121Y-103047081D01*
X167814834Y-103142454D01*
X167814834Y-103142455D01*
X167814835Y-103142457D01*
X167874623Y-103273373D01*
X167968872Y-103382143D01*
X168089947Y-103459953D01*
X168228039Y-103500500D01*
X168228041Y-103500500D01*
X168371959Y-103500500D01*
X168371961Y-103500500D01*
X168510053Y-103459953D01*
X168631128Y-103382143D01*
X168725377Y-103273373D01*
X168785165Y-103142457D01*
X168805647Y-103000000D01*
X168805647Y-102999996D01*
X168785165Y-102857545D01*
X168785165Y-102857543D01*
X168725377Y-102726627D01*
X168631128Y-102617857D01*
X168631127Y-102617856D01*
X168572915Y-102580446D01*
X168510053Y-102540047D01*
X168510050Y-102540046D01*
X168371967Y-102499501D01*
X168371962Y-102499500D01*
X168371961Y-102499500D01*
X168228039Y-102499500D01*
X168228037Y-102499500D01*
X168228032Y-102499501D01*
X168089949Y-102540046D01*
X167968872Y-102617856D01*
X167968869Y-102617859D01*
X167958968Y-102629287D01*
X167895094Y-102672518D01*
X167818162Y-102678020D01*
X167748787Y-102644320D01*
X167705556Y-102580446D01*
X167698878Y-102552917D01*
X167685166Y-102457545D01*
X167650731Y-102382144D01*
X167625377Y-102326627D01*
X167531128Y-102217857D01*
X167531127Y-102217856D01*
X167485816Y-102188737D01*
X167410053Y-102140047D01*
X167410050Y-102140046D01*
X167271967Y-102099501D01*
X167271962Y-102099500D01*
X167271961Y-102099500D01*
X167128039Y-102099500D01*
X167128037Y-102099500D01*
X167128032Y-102099501D01*
X166989949Y-102140046D01*
X166989947Y-102140046D01*
X166989947Y-102140047D01*
X166963071Y-102157318D01*
X166868872Y-102217856D01*
X166868870Y-102217859D01*
X166774622Y-102326628D01*
X166714834Y-102457545D01*
X166694353Y-102599996D01*
X164000500Y-102599996D01*
X164000500Y-101999997D01*
X165369352Y-101999997D01*
X165369352Y-102000004D01*
X165389833Y-102142455D01*
X165389833Y-102142456D01*
X165389834Y-102142458D01*
X165449622Y-102273374D01*
X165543871Y-102382144D01*
X165664946Y-102459954D01*
X165803038Y-102500501D01*
X165803040Y-102500501D01*
X165946958Y-102500501D01*
X165946960Y-102500501D01*
X166085052Y-102459954D01*
X166206127Y-102382144D01*
X166300376Y-102273374D01*
X166360164Y-102142458D01*
X166377955Y-102018719D01*
X166380646Y-102000004D01*
X166380646Y-101999997D01*
X166360164Y-101857546D01*
X166360164Y-101857544D01*
X166300376Y-101726628D01*
X166206127Y-101617858D01*
X166206126Y-101617857D01*
X166172464Y-101596224D01*
X166085052Y-101540048D01*
X166085049Y-101540047D01*
X165946966Y-101499502D01*
X165946961Y-101499501D01*
X165946960Y-101499501D01*
X165803038Y-101499501D01*
X165803036Y-101499501D01*
X165803031Y-101499502D01*
X165664948Y-101540047D01*
X165664946Y-101540047D01*
X165664946Y-101540048D01*
X165661198Y-101542457D01*
X165543871Y-101617857D01*
X165543869Y-101617860D01*
X165449621Y-101726629D01*
X165389833Y-101857546D01*
X165369352Y-101999997D01*
X164000500Y-101999997D01*
X164000500Y-100649996D01*
X164894353Y-100649996D01*
X164894353Y-100650003D01*
X164914834Y-100792454D01*
X164914834Y-100792455D01*
X164914835Y-100792457D01*
X164974623Y-100923373D01*
X165068872Y-101032143D01*
X165189947Y-101109953D01*
X165328039Y-101150500D01*
X165328041Y-101150500D01*
X165471959Y-101150500D01*
X165471961Y-101150500D01*
X165610053Y-101109953D01*
X165731128Y-101032143D01*
X165825377Y-100923373D01*
X165885165Y-100792457D01*
X165891270Y-100749996D01*
X166274353Y-100749996D01*
X166274353Y-100750003D01*
X166294834Y-100892454D01*
X166294834Y-100892455D01*
X166294835Y-100892457D01*
X166354623Y-101023373D01*
X166448872Y-101132143D01*
X166569947Y-101209953D01*
X166708039Y-101250500D01*
X166708041Y-101250500D01*
X166851959Y-101250500D01*
X166851961Y-101250500D01*
X166990053Y-101209953D01*
X167111128Y-101132143D01*
X167205377Y-101023373D01*
X167205380Y-101023366D01*
X167208742Y-101018136D01*
X167265811Y-100966253D01*
X167341176Y-100949856D01*
X167414642Y-100973338D01*
X167446696Y-101001112D01*
X167494609Y-101056406D01*
X167615684Y-101134216D01*
X167753776Y-101174763D01*
X167753778Y-101174763D01*
X167897696Y-101174763D01*
X167897698Y-101174763D01*
X168035790Y-101134216D01*
X168156865Y-101056406D01*
X168251114Y-100947636D01*
X168310902Y-100816720D01*
X168331384Y-100674263D01*
X168331384Y-100674259D01*
X168310902Y-100531808D01*
X168310902Y-100531806D01*
X168251114Y-100400890D01*
X168181838Y-100320941D01*
X172949500Y-100320941D01*
X172949500Y-100320943D01*
X172949500Y-100479057D01*
X172990423Y-100631784D01*
X173069480Y-100768716D01*
X173181284Y-100880520D01*
X173201960Y-100892457D01*
X173208031Y-100895962D01*
X173262569Y-100950500D01*
X173282531Y-101025000D01*
X173262569Y-101099500D01*
X173208031Y-101154038D01*
X173181283Y-101169480D01*
X173069480Y-101281283D01*
X172990424Y-101418214D01*
X172949500Y-101570941D01*
X172949500Y-101570943D01*
X172949500Y-101729057D01*
X172990423Y-101881784D01*
X172990424Y-101881785D01*
X173069480Y-102018716D01*
X173172706Y-102121942D01*
X173211270Y-102188737D01*
X173211270Y-102265865D01*
X173172706Y-102332660D01*
X173134993Y-102360059D01*
X173125973Y-102364655D01*
X173111657Y-102371950D01*
X173021950Y-102461657D01*
X172964354Y-102574694D01*
X172964354Y-102574696D01*
X172949500Y-102668481D01*
X172949500Y-102668482D01*
X172949500Y-102668485D01*
X172949500Y-103131518D01*
X172964354Y-103225304D01*
X173021950Y-103338342D01*
X173111658Y-103428050D01*
X173224696Y-103485646D01*
X173318481Y-103500500D01*
X174281518Y-103500499D01*
X174375304Y-103485646D01*
X174488342Y-103428050D01*
X174578050Y-103338342D01*
X174635646Y-103225304D01*
X174650500Y-103131519D01*
X174650499Y-102668482D01*
X174635646Y-102574696D01*
X174578050Y-102461658D01*
X174488342Y-102371950D01*
X174465007Y-102360060D01*
X174407691Y-102308453D01*
X174383856Y-102235100D01*
X174399892Y-102159657D01*
X174427294Y-102121942D01*
X174530517Y-102018719D01*
X174530520Y-102018716D01*
X174609577Y-101881784D01*
X174650500Y-101729057D01*
X174650500Y-101570943D01*
X174609577Y-101418216D01*
X174530520Y-101281284D01*
X174418716Y-101169480D01*
X174391968Y-101154037D01*
X174337431Y-101099502D01*
X174317468Y-101025002D01*
X174337429Y-100950502D01*
X174391963Y-100895965D01*
X174418716Y-100880520D01*
X174530520Y-100768716D01*
X174609577Y-100631784D01*
X174650500Y-100479057D01*
X174650500Y-100320943D01*
X174609577Y-100168216D01*
X174530520Y-100031284D01*
X174418716Y-99919480D01*
X174281784Y-99840423D01*
X174129057Y-99799500D01*
X173470943Y-99799500D01*
X173318216Y-99840423D01*
X173318214Y-99840423D01*
X173318214Y-99840424D01*
X173181283Y-99919480D01*
X173069480Y-100031283D01*
X173001228Y-100149501D01*
X172990423Y-100168216D01*
X172978072Y-100214310D01*
X172949500Y-100320941D01*
X168181838Y-100320941D01*
X168156865Y-100292120D01*
X168156864Y-100292119D01*
X168106812Y-100259953D01*
X168035790Y-100214310D01*
X168035787Y-100214309D01*
X167897704Y-100173764D01*
X167897699Y-100173763D01*
X167897698Y-100173763D01*
X167753776Y-100173763D01*
X167753774Y-100173763D01*
X167753769Y-100173764D01*
X167615686Y-100214309D01*
X167494609Y-100292119D01*
X167494607Y-100292122D01*
X167400359Y-100400891D01*
X167396988Y-100406137D01*
X167339914Y-100458015D01*
X167264548Y-100474406D01*
X167191083Y-100450918D01*
X167159038Y-100423149D01*
X167111128Y-100367857D01*
X167111127Y-100367856D01*
X167077465Y-100346223D01*
X166990053Y-100290047D01*
X166990050Y-100290046D01*
X166851967Y-100249501D01*
X166851962Y-100249500D01*
X166851961Y-100249500D01*
X166708039Y-100249500D01*
X166708037Y-100249500D01*
X166708032Y-100249501D01*
X166569949Y-100290046D01*
X166569947Y-100290046D01*
X166569947Y-100290047D01*
X166553682Y-100300500D01*
X166448872Y-100367856D01*
X166448870Y-100367859D01*
X166354622Y-100476628D01*
X166294834Y-100607545D01*
X166274353Y-100749996D01*
X165891270Y-100749996D01*
X165905647Y-100650000D01*
X165905647Y-100649996D01*
X165885165Y-100507545D01*
X165885165Y-100507543D01*
X165825377Y-100376627D01*
X165731128Y-100267857D01*
X165731127Y-100267856D01*
X165697465Y-100246223D01*
X165610053Y-100190047D01*
X165610050Y-100190046D01*
X165471967Y-100149501D01*
X165471962Y-100149500D01*
X165471961Y-100149500D01*
X165328039Y-100149500D01*
X165328037Y-100149500D01*
X165328032Y-100149501D01*
X165189949Y-100190046D01*
X165068872Y-100267856D01*
X165068870Y-100267859D01*
X164974622Y-100376628D01*
X164914834Y-100507545D01*
X164894353Y-100649996D01*
X164000500Y-100649996D01*
X164000500Y-94549500D01*
X164020462Y-94475000D01*
X164075000Y-94420462D01*
X164149500Y-94400500D01*
X168038623Y-94400500D01*
X168113123Y-94420462D01*
G37*
G04 #@! TD.AperFunction*
G04 #@! TD*
M02*
