G04 #@! TF.GenerationSoftware,KiCad,Pcbnew,8.0.7-8.0.7-0~ubuntu24.04.1*
G04 #@! TF.CreationDate,2024-12-30T22:58:19-07:00*
G04 #@! TF.ProjectId,DRV8311 Motor Driver,44525638-3331-4312-904d-6f746f722044,V1*
G04 #@! TF.SameCoordinates,Original*
G04 #@! TF.FileFunction,Soldermask,Top*
G04 #@! TF.FilePolarity,Negative*
%FSLAX46Y46*%
G04 Gerber Fmt 4.6, Leading zero omitted, Abs format (unit mm)*
G04 Created by KiCad (PCBNEW 8.0.7-8.0.7-0~ubuntu24.04.1) date 2024-12-30 22:58:19*
%MOMM*%
%LPD*%
G01*
G04 APERTURE LIST*
G04 Aperture macros list*
%AMRoundRect*
0 Rectangle with rounded corners*
0 $1 Rounding radius*
0 $2 $3 $4 $5 $6 $7 $8 $9 X,Y pos of 4 corners*
0 Add a 4 corners polygon primitive as box body*
4,1,4,$2,$3,$4,$5,$6,$7,$8,$9,$2,$3,0*
0 Add four circle primitives for the rounded corners*
1,1,$1+$1,$2,$3*
1,1,$1+$1,$4,$5*
1,1,$1+$1,$6,$7*
1,1,$1+$1,$8,$9*
0 Add four rect primitives between the rounded corners*
20,1,$1+$1,$2,$3,$4,$5,0*
20,1,$1+$1,$4,$5,$6,$7,0*
20,1,$1+$1,$6,$7,$8,$9,0*
20,1,$1+$1,$8,$9,$2,$3,0*%
G04 Aperture macros list end*
%ADD10RoundRect,0.102000X-1.400000X-1.400000X1.400000X-1.400000X1.400000X1.400000X-1.400000X1.400000X0*%
%ADD11RoundRect,0.200000X0.450000X-0.200000X0.450000X0.200000X-0.450000X0.200000X-0.450000X-0.200000X0*%
%ADD12O,1.300000X0.800000*%
%ADD13RoundRect,0.140000X-0.140000X-0.170000X0.140000X-0.170000X0.140000X0.170000X-0.140000X0.170000X0*%
%ADD14R,0.200000X0.469999*%
%ADD15R,0.469999X0.200000*%
%ADD16C,0.600000*%
%ADD17R,1.899999X1.899999*%
%ADD18RoundRect,0.100000X-1.250000X-1.400000X1.250000X-1.400000X1.250000X1.400000X-1.250000X1.400000X0*%
%ADD19RoundRect,0.225000X0.225000X0.250000X-0.225000X0.250000X-0.225000X-0.250000X0.225000X-0.250000X0*%
%ADD20RoundRect,0.100000X1.250000X1.400000X-1.250000X1.400000X-1.250000X-1.400000X1.250000X-1.400000X0*%
%ADD21RoundRect,0.102000X1.400000X1.400000X-1.400000X1.400000X-1.400000X-1.400000X1.400000X-1.400000X0*%
%ADD22R,1.000000X1.000000*%
%ADD23O,1.000000X1.000000*%
G04 APERTURE END LIST*
D10*
G04 #@! TO.C,J7*
X176650000Y-107550000D03*
G04 #@! TD*
D11*
G04 #@! TO.C,J4*
X173800000Y-102900000D03*
D12*
X173800000Y-101650000D03*
X173800000Y-100400000D03*
G04 #@! TD*
D13*
G04 #@! TO.C,C1*
X165220000Y-99900000D03*
X166180000Y-99900000D03*
G04 #@! TD*
D14*
G04 #@! TO.C,U1*
X168934999Y-102895000D03*
X169334998Y-102895000D03*
X169735000Y-102895000D03*
X170134999Y-102895000D03*
X170534998Y-102895000D03*
X170935000Y-102895000D03*
X171334999Y-102895000D03*
D15*
X171600000Y-102100000D03*
X171600000Y-101699998D03*
X171600000Y-101299999D03*
X171600000Y-100900000D03*
X171600000Y-100499998D03*
D14*
X171334999Y-99964998D03*
X170935000Y-99964998D03*
X170534998Y-99964998D03*
X170134999Y-99964998D03*
X169735000Y-99964998D03*
X169334998Y-99964998D03*
X168934999Y-99964998D03*
D15*
X168669998Y-100499998D03*
X168669998Y-100900000D03*
X168669998Y-101299999D03*
X168669998Y-101699998D03*
X168669998Y-102100000D03*
D16*
X169434998Y-102130000D03*
X170835000Y-102130000D03*
D17*
X170134999Y-101429999D03*
D16*
X170134999Y-101404599D03*
X169434998Y-100729998D03*
X170835000Y-100729998D03*
G04 #@! TD*
D18*
G04 #@! TO.C,J8*
X176650000Y-96750000D03*
G04 #@! TD*
D19*
G04 #@! TO.C,C6*
X177675000Y-105200000D03*
X176125000Y-105200000D03*
G04 #@! TD*
D20*
G04 #@! TO.C,J6*
X172950000Y-106600000D03*
G04 #@! TD*
D21*
G04 #@! TO.C,J9*
X172950000Y-95850000D03*
G04 #@! TD*
D22*
G04 #@! TO.C,J2*
X168300000Y-97900000D03*
D23*
X168300000Y-96630000D03*
X168300000Y-95360000D03*
G04 #@! TD*
D13*
G04 #@! TO.C,C7*
X165220000Y-101400000D03*
X166180000Y-101400000D03*
G04 #@! TD*
D22*
G04 #@! TO.C,J1*
X168300000Y-108050000D03*
D23*
X168300000Y-106780000D03*
X168300000Y-105510000D03*
G04 #@! TD*
G36*
X178361980Y-98502383D02*
G01*
X178421480Y-98514218D01*
X178466179Y-98532732D01*
X178506268Y-98559518D01*
X178540481Y-98593731D01*
X178567267Y-98633820D01*
X178585781Y-98678517D01*
X178597617Y-98738017D01*
X178600000Y-98762210D01*
X178600000Y-104137789D01*
X178597617Y-104161982D01*
X178585781Y-104221482D01*
X178567267Y-104266179D01*
X178540481Y-104306268D01*
X178506268Y-104340481D01*
X178466179Y-104367267D01*
X178421482Y-104385781D01*
X178361982Y-104397617D01*
X178337789Y-104400000D01*
X175649995Y-104400000D01*
X175554329Y-104419029D01*
X175554328Y-104419029D01*
X175473223Y-104473223D01*
X175419029Y-104554328D01*
X175419029Y-104554329D01*
X175400000Y-104649995D01*
X175400000Y-105587789D01*
X175397617Y-105611982D01*
X175385781Y-105671482D01*
X175367267Y-105716179D01*
X175340481Y-105756268D01*
X175306268Y-105790481D01*
X175266179Y-105817267D01*
X175221482Y-105835781D01*
X175161982Y-105847617D01*
X175137789Y-105850000D01*
X174862211Y-105850000D01*
X174838019Y-105847617D01*
X174778518Y-105835781D01*
X174733820Y-105817267D01*
X174693731Y-105790481D01*
X174659518Y-105756268D01*
X174632732Y-105716179D01*
X174614218Y-105671480D01*
X174602383Y-105611980D01*
X174600000Y-105587789D01*
X174600000Y-98762210D01*
X174602383Y-98738019D01*
X174614218Y-98678519D01*
X174632732Y-98633820D01*
X174659518Y-98593731D01*
X174693731Y-98559518D01*
X174733820Y-98532732D01*
X174778520Y-98514217D01*
X174838021Y-98502382D01*
X174862211Y-98500000D01*
X178337789Y-98500000D01*
X178361980Y-98502383D01*
G37*
M02*
