G04 #@! TF.GenerationSoftware,KiCad,Pcbnew,8.0.7-8.0.7-0~ubuntu24.04.1*
G04 #@! TF.CreationDate,2024-12-30T22:58:19-07:00*
G04 #@! TF.ProjectId,DRV8311 Motor Driver,44525638-3331-4312-904d-6f746f722044,V1*
G04 #@! TF.SameCoordinates,Original*
G04 #@! TF.FileFunction,Soldermask,Bot*
G04 #@! TF.FilePolarity,Negative*
%FSLAX46Y46*%
G04 Gerber Fmt 4.6, Leading zero omitted, Abs format (unit mm)*
G04 Created by KiCad (PCBNEW 8.0.7-8.0.7-0~ubuntu24.04.1) date 2024-12-30 22:58:19*
%MOMM*%
%LPD*%
G01*
G04 APERTURE LIST*
G04 Aperture macros list*
%AMRoundRect*
0 Rectangle with rounded corners*
0 $1 Rounding radius*
0 $2 $3 $4 $5 $6 $7 $8 $9 X,Y pos of 4 corners*
0 Add a 4 corners polygon primitive as box body*
4,1,4,$2,$3,$4,$5,$6,$7,$8,$9,$2,$3,0*
0 Add four circle primitives for the rounded corners*
1,1,$1+$1,$2,$3*
1,1,$1+$1,$4,$5*
1,1,$1+$1,$6,$7*
1,1,$1+$1,$8,$9*
0 Add four rect primitives between the rounded corners*
20,1,$1+$1,$2,$3,$4,$5,0*
20,1,$1+$1,$4,$5,$6,$7,0*
20,1,$1+$1,$6,$7,$8,$9,0*
20,1,$1+$1,$8,$9,$2,$3,0*%
G04 Aperture macros list end*
%ADD10RoundRect,0.200000X0.450000X-0.200000X0.450000X0.200000X-0.450000X0.200000X-0.450000X-0.200000X0*%
%ADD11O,1.300000X0.800000*%
%ADD12C,0.600000*%
%ADD13R,1.000000X1.000000*%
%ADD14O,1.000000X1.000000*%
%ADD15RoundRect,0.135000X-0.135000X-0.185000X0.135000X-0.185000X0.135000X0.185000X-0.135000X0.185000X0*%
%ADD16RoundRect,0.100000X1.250000X1.400000X-1.250000X1.400000X-1.250000X-1.400000X1.250000X-1.400000X0*%
%ADD17RoundRect,0.100000X-1.250000X-1.400000X1.250000X-1.400000X1.250000X1.400000X-1.250000X1.400000X0*%
%ADD18C,1.000000*%
%ADD19RoundRect,0.225000X0.225000X0.250000X-0.225000X0.250000X-0.225000X-0.250000X0.225000X-0.250000X0*%
%ADD20RoundRect,0.140000X-0.170000X0.140000X-0.170000X-0.140000X0.170000X-0.140000X0.170000X0.140000X0*%
%ADD21RoundRect,0.102000X1.400000X1.400000X-1.400000X1.400000X-1.400000X-1.400000X1.400000X-1.400000X0*%
%ADD22RoundRect,0.102000X-1.400000X-1.400000X1.400000X-1.400000X1.400000X1.400000X-1.400000X1.400000X0*%
%ADD23RoundRect,0.135000X0.135000X0.185000X-0.135000X0.185000X-0.135000X-0.185000X0.135000X-0.185000X0*%
G04 APERTURE END LIST*
D10*
G04 #@! TO.C,J4*
X173800000Y-102900000D03*
D11*
X173800000Y-101650000D03*
X173800000Y-100400000D03*
G04 #@! TD*
D12*
G04 #@! TO.C,U1*
X169434998Y-102130000D03*
X170835000Y-102130000D03*
X170134999Y-101404599D03*
X169434998Y-100729998D03*
X170835000Y-100729998D03*
G04 #@! TD*
D13*
G04 #@! TO.C,J2*
X168300000Y-97900000D03*
D14*
X168300000Y-96630000D03*
X168300000Y-95360000D03*
G04 #@! TD*
D13*
G04 #@! TO.C,J1*
X168300000Y-108050000D03*
D14*
X168300000Y-106780000D03*
X168300000Y-105510000D03*
G04 #@! TD*
D15*
G04 #@! TO.C,R1*
X165015000Y-105200000D03*
X166035000Y-105200000D03*
G04 #@! TD*
D16*
G04 #@! TO.C,J10*
X176650000Y-96750000D03*
G04 #@! TD*
D17*
G04 #@! TO.C,J5*
X172950000Y-106600000D03*
G04 #@! TD*
D18*
G04 #@! TO.C,TP5*
X165100000Y-101700000D03*
G04 #@! TD*
D19*
G04 #@! TO.C,C4*
X176975000Y-99100000D03*
X175425000Y-99100000D03*
G04 #@! TD*
G04 #@! TO.C,C9*
X176975000Y-103600000D03*
X175425000Y-103600000D03*
G04 #@! TD*
D20*
G04 #@! TO.C,C3*
X169550000Y-105270000D03*
X169550000Y-106230000D03*
G04 #@! TD*
D19*
G04 #@! TO.C,C10*
X177875000Y-105200000D03*
X176325000Y-105200000D03*
G04 #@! TD*
D18*
G04 #@! TO.C,TP3*
X167800000Y-101800000D03*
G04 #@! TD*
D21*
G04 #@! TO.C,J3*
X176650000Y-107550000D03*
G04 #@! TD*
D19*
G04 #@! TO.C,C8*
X176975000Y-100600000D03*
X175425000Y-100600000D03*
G04 #@! TD*
D22*
G04 #@! TO.C,J11*
X172950000Y-95850000D03*
G04 #@! TD*
D15*
G04 #@! TO.C,R3*
X165090000Y-98100000D03*
X166110000Y-98100000D03*
G04 #@! TD*
D19*
G04 #@! TO.C,C2*
X168925000Y-104050000D03*
X167375000Y-104050000D03*
G04 #@! TD*
D18*
G04 #@! TO.C,TP4*
X165100000Y-99600000D03*
G04 #@! TD*
D19*
G04 #@! TO.C,C5*
X176975000Y-102100000D03*
X175425000Y-102100000D03*
G04 #@! TD*
D23*
G04 #@! TO.C,R2*
X166010000Y-103500000D03*
X164990000Y-103500000D03*
G04 #@! TD*
M02*
