G04 #@! TF.GenerationSoftware,KiCad,Pcbnew,8.0.7-8.0.7-0~ubuntu24.04.1*
G04 #@! TF.CreationDate,2024-12-30T22:58:19-07:00*
G04 #@! TF.ProjectId,DRV8311 Motor Driver,44525638-3331-4312-904d-6f746f722044,V1*
G04 #@! TF.SameCoordinates,Original*
G04 #@! TF.FileFunction,Copper,L1,Top*
G04 #@! TF.FilePolarity,Positive*
%FSLAX46Y46*%
G04 Gerber Fmt 4.6, Leading zero omitted, Abs format (unit mm)*
G04 Created by KiCad (PCBNEW 8.0.7-8.0.7-0~ubuntu24.04.1) date 2024-12-30 22:58:19*
%MOMM*%
%LPD*%
G01*
G04 APERTURE LIST*
G04 Aperture macros list*
%AMRoundRect*
0 Rectangle with rounded corners*
0 $1 Rounding radius*
0 $2 $3 $4 $5 $6 $7 $8 $9 X,Y pos of 4 corners*
0 Add a 4 corners polygon primitive as box body*
4,1,4,$2,$3,$4,$5,$6,$7,$8,$9,$2,$3,0*
0 Add four circle primitives for the rounded corners*
1,1,$1+$1,$2,$3*
1,1,$1+$1,$4,$5*
1,1,$1+$1,$6,$7*
1,1,$1+$1,$8,$9*
0 Add four rect primitives between the rounded corners*
20,1,$1+$1,$2,$3,$4,$5,0*
20,1,$1+$1,$4,$5,$6,$7,0*
20,1,$1+$1,$6,$7,$8,$9,0*
20,1,$1+$1,$8,$9,$2,$3,0*%
G04 Aperture macros list end*
G04 #@! TA.AperFunction,EtchedComponent*
%ADD10C,0.000000*%
G04 #@! TD*
G04 #@! TA.AperFunction,SMDPad,CuDef*
%ADD11R,2.800000X2.800000*%
G04 #@! TD*
G04 #@! TA.AperFunction,ComponentPad*
%ADD12RoundRect,0.200000X0.450000X-0.200000X0.450000X0.200000X-0.450000X0.200000X-0.450000X-0.200000X0*%
G04 #@! TD*
G04 #@! TA.AperFunction,ComponentPad*
%ADD13O,1.300000X0.800000*%
G04 #@! TD*
G04 #@! TA.AperFunction,SMDPad,CuDef*
%ADD14RoundRect,0.140000X-0.140000X-0.170000X0.140000X-0.170000X0.140000X0.170000X-0.140000X0.170000X0*%
G04 #@! TD*
G04 #@! TA.AperFunction,SMDPad,CuDef*
%ADD15C,0.200000*%
G04 #@! TD*
G04 #@! TA.AperFunction,SMDPad,CuDef*
%ADD16R,0.200000X0.469999*%
G04 #@! TD*
G04 #@! TA.AperFunction,SMDPad,CuDef*
%ADD17R,0.469999X0.200000*%
G04 #@! TD*
G04 #@! TA.AperFunction,ComponentPad*
%ADD18C,0.600000*%
G04 #@! TD*
G04 #@! TA.AperFunction,SMDPad,CuDef*
%ADD19R,1.899999X1.899999*%
G04 #@! TD*
G04 #@! TA.AperFunction,SMDPad,CuDef*
%ADD20R,2.500000X2.800000*%
G04 #@! TD*
G04 #@! TA.AperFunction,SMDPad,CuDef*
%ADD21RoundRect,0.225000X0.225000X0.250000X-0.225000X0.250000X-0.225000X-0.250000X0.225000X-0.250000X0*%
G04 #@! TD*
G04 #@! TA.AperFunction,ComponentPad*
%ADD22R,1.000000X1.000000*%
G04 #@! TD*
G04 #@! TA.AperFunction,ComponentPad*
%ADD23O,1.000000X1.000000*%
G04 #@! TD*
G04 #@! TA.AperFunction,ViaPad*
%ADD24C,0.600000*%
G04 #@! TD*
G04 #@! TA.AperFunction,Conductor*
%ADD25C,0.200000*%
G04 #@! TD*
G04 #@! TA.AperFunction,Conductor*
%ADD26C,0.280000*%
G04 #@! TD*
G04 APERTURE END LIST*
D10*
G04 #@! TA.AperFunction,EtchedComponent*
G04 #@! TO.C,NT1*
G36*
X170234999Y-100550000D02*
G01*
X170034999Y-100550000D01*
X170034999Y-100150000D01*
X170234999Y-100150000D01*
X170234999Y-100550000D01*
G37*
G04 #@! TD.AperFunction*
G04 #@! TD*
D11*
G04 #@! TO.P,J7,1,Pin_1*
G04 #@! TO.N,VDD*
X176650000Y-107550000D03*
G04 #@! TD*
D12*
G04 #@! TO.P,J4,1,Pin_1*
G04 #@! TO.N,Net-(J4-Pin_1)*
X173800000Y-102900000D03*
D13*
G04 #@! TO.P,J4,2,Pin_2*
G04 #@! TO.N,Net-(J4-Pin_2)*
X173800000Y-101650000D03*
G04 #@! TO.P,J4,3,Pin_3*
G04 #@! TO.N,Net-(J4-Pin_3)*
X173800000Y-100400000D03*
G04 #@! TD*
D14*
G04 #@! TO.P,C1,1*
G04 #@! TO.N,GND*
X165220000Y-99900000D03*
G04 #@! TO.P,C1,2*
G04 #@! TO.N,+3.3V*
X166180000Y-99900000D03*
G04 #@! TD*
D15*
G04 #@! TO.P,NT1,1,1*
G04 #@! TO.N,GNDPWR*
X170134999Y-100550000D03*
G04 #@! TO.P,NT1,2,2*
G04 #@! TO.N,GND*
X170134999Y-100150000D03*
G04 #@! TD*
D16*
G04 #@! TO.P,U1,1,FAULT_N*
G04 #@! TO.N,Net-(U1-FAULT_N)*
X168934999Y-102895000D03*
G04 #@! TO.P,U1,2,CSAREF*
G04 #@! TO.N,+3.3V*
X169334998Y-102895000D03*
G04 #@! TO.P,U1,3,SOC*
G04 #@! TO.N,Net-(J1-Pin_3)*
X169735000Y-102895000D03*
G04 #@! TO.P,U1,4,SOB*
G04 #@! TO.N,Net-(J1-Pin_2)*
X170134999Y-102895000D03*
G04 #@! TO.P,U1,5,SOA*
G04 #@! TO.N,Net-(J1-Pin_1)*
X170534998Y-102895000D03*
G04 #@! TO.P,U1,6,CP*
G04 #@! TO.N,Net-(U1-CP)*
X170935000Y-102895000D03*
G04 #@! TO.P,U1,7,VIN_AVDD*
G04 #@! TO.N,VDD*
X171334999Y-102895000D03*
D17*
G04 #@! TO.P,U1,8,VM*
X171600000Y-102100000D03*
G04 #@! TO.P,U1,9,PGND*
G04 #@! TO.N,GNDPWR*
X171600000Y-101699998D03*
G04 #@! TO.P,U1,10,OUTA*
G04 #@! TO.N,Net-(J4-Pin_1)*
X171600000Y-101299999D03*
G04 #@! TO.P,U1,11,OUTB*
G04 #@! TO.N,Net-(J4-Pin_2)*
X171600000Y-100900000D03*
G04 #@! TO.P,U1,12,OUTC*
G04 #@! TO.N,Net-(J4-Pin_3)*
X171600000Y-100499998D03*
D16*
G04 #@! TO.P,U1,13,INHC*
G04 #@! TO.N,Net-(J2-Pin_3)*
X171334999Y-99964998D03*
G04 #@! TO.P,U1,14,INHB*
G04 #@! TO.N,Net-(J2-Pin_2)*
X170935000Y-99964998D03*
G04 #@! TO.P,U1,15,INHA*
G04 #@! TO.N,Net-(J2-Pin_1)*
X170534998Y-99964998D03*
G04 #@! TO.P,U1,16,AGND*
G04 #@! TO.N,GND*
X170134999Y-99964998D03*
G04 #@! TO.P,U1,17,AVDD*
G04 #@! TO.N,+3.3V*
X169735000Y-99964998D03*
G04 #@! TO.P,U1,18,INLA*
X169334998Y-99964998D03*
G04 #@! TO.P,U1,19,INLB*
X168934999Y-99964998D03*
D17*
G04 #@! TO.P,U1,20,INLC*
X168669998Y-100499998D03*
G04 #@! TO.P,U1,21,GAIN*
G04 #@! TO.N,Net-(U1-GAIN)*
X168669998Y-100900000D03*
G04 #@! TO.P,U1,22,SLEW*
G04 #@! TO.N,unconnected-(U1-SLEW-Pad22)*
X168669998Y-101299999D03*
G04 #@! TO.P,U1,23,MODE*
G04 #@! TO.N,+3.3V*
X168669998Y-101699998D03*
G04 #@! TO.P,U1,24,SLEEP_N*
G04 #@! TO.N,Net-(U1-SLEEP_N)*
X168669998Y-102100000D03*
D18*
G04 #@! TO.P,U1,25,PowerPAD*
G04 #@! TO.N,GNDPWR*
X169434998Y-102130000D03*
X170835000Y-102130000D03*
D19*
X170134999Y-101429999D03*
D18*
X170134999Y-101404599D03*
X169434998Y-100729998D03*
X170835000Y-100729998D03*
G04 #@! TD*
D20*
G04 #@! TO.P,J8,1,Pin_1*
G04 #@! TO.N,VDD*
X176650000Y-96750000D03*
G04 #@! TD*
D21*
G04 #@! TO.P,C6,1*
G04 #@! TO.N,VDD*
X177675000Y-105200000D03*
G04 #@! TO.P,C6,2*
G04 #@! TO.N,GNDPWR*
X176125000Y-105200000D03*
G04 #@! TD*
D20*
G04 #@! TO.P,J6,1,Pin_1*
G04 #@! TO.N,VDD*
X172950000Y-106600000D03*
G04 #@! TD*
D11*
G04 #@! TO.P,J9,1,Pin_1*
G04 #@! TO.N,VDD*
X172950000Y-95850000D03*
G04 #@! TD*
D22*
G04 #@! TO.P,J2,1,Pin_1*
G04 #@! TO.N,Net-(J2-Pin_1)*
X168300000Y-97900000D03*
D23*
G04 #@! TO.P,J2,2,Pin_2*
G04 #@! TO.N,Net-(J2-Pin_2)*
X168300000Y-96630000D03*
G04 #@! TO.P,J2,3,Pin_3*
G04 #@! TO.N,Net-(J2-Pin_3)*
X168300000Y-95360000D03*
G04 #@! TD*
D14*
G04 #@! TO.P,C7,1*
G04 #@! TO.N,GND*
X165220000Y-101400000D03*
G04 #@! TO.P,C7,2*
G04 #@! TO.N,+3.3V*
X166180000Y-101400000D03*
G04 #@! TD*
D22*
G04 #@! TO.P,J1,1,Pin_1*
G04 #@! TO.N,Net-(J1-Pin_1)*
X168300000Y-108050000D03*
D23*
G04 #@! TO.P,J1,2,Pin_2*
G04 #@! TO.N,Net-(J1-Pin_2)*
X168300000Y-106780000D03*
G04 #@! TO.P,J1,3,Pin_3*
G04 #@! TO.N,Net-(J1-Pin_3)*
X168300000Y-105510000D03*
G04 #@! TD*
D24*
G04 #@! TO.N,+3.3V*
X165874999Y-102000001D03*
G04 #@! TO.N,GND*
X165400000Y-100650000D03*
X165900000Y-104300000D03*
G04 #@! TO.N,VDD*
X178300000Y-104300000D03*
X177500000Y-102900000D03*
X177900000Y-103600000D03*
X177900000Y-102100000D03*
X177300000Y-104400000D03*
X178300000Y-101400000D03*
X177900000Y-100600000D03*
X171000000Y-104950000D03*
X177900000Y-99100000D03*
X178300000Y-99800000D03*
X177500000Y-99800000D03*
X166850000Y-105250000D03*
X178300000Y-102900000D03*
X177500000Y-101400000D03*
G04 #@! TO.N,Net-(U1-CP)*
X171132802Y-104018589D03*
G04 #@! TO.N,GNDPWR*
X165700000Y-107200000D03*
X171150000Y-107900000D03*
X171150000Y-108700000D03*
X166500000Y-108000000D03*
X165700000Y-106400000D03*
X173800000Y-97800000D03*
X170300000Y-108700000D03*
X165700000Y-108000000D03*
X166100000Y-95700000D03*
X172800000Y-108700000D03*
X164900000Y-106400000D03*
X172000000Y-108700000D03*
X166900000Y-96500000D03*
X170300000Y-107900000D03*
X164900000Y-107200000D03*
X173600000Y-108700000D03*
X165300000Y-96500000D03*
X171100000Y-106200000D03*
X173000000Y-99400000D03*
X173000000Y-98600000D03*
X166500000Y-107200000D03*
X166900000Y-94900000D03*
X173000000Y-97800000D03*
X169600000Y-108300000D03*
X173800000Y-98600000D03*
X165300000Y-95700000D03*
X166900000Y-95700000D03*
X172200000Y-98600000D03*
X171150000Y-107100000D03*
X166500000Y-106400000D03*
X173800000Y-99400000D03*
X169700000Y-107300000D03*
X165300000Y-94900000D03*
X172200000Y-99400000D03*
X176125000Y-105200000D03*
X172200000Y-97800000D03*
X170300000Y-106750000D03*
X166100000Y-94900000D03*
X164900000Y-108000000D03*
X166100000Y-96500000D03*
G04 #@! TO.N,Net-(U1-SLEEP_N)*
X167200000Y-102600000D03*
G04 #@! TO.N,Net-(U1-GAIN)*
X167825737Y-100674263D03*
G04 #@! TO.N,unconnected-(U1-SLEW-Pad22)*
X166780000Y-100750000D03*
G04 #@! TO.N,Net-(U1-FAULT_N)*
X168300000Y-103000000D03*
G04 #@! TD*
D25*
G04 #@! TO.N,+3.3V*
X166774998Y-101699998D02*
X166475000Y-101400000D01*
X168934999Y-99964998D02*
X168835002Y-99964998D01*
X168600000Y-100430000D02*
X168669998Y-100499998D01*
X165874999Y-102000001D02*
X165874999Y-101705001D01*
X165874999Y-101705001D02*
X166180000Y-101400000D01*
X169735000Y-99964998D02*
X168934999Y-99964998D01*
X167348529Y-103600000D02*
X169000000Y-103600000D01*
X168835002Y-99964998D02*
X168600000Y-100200000D01*
X166774998Y-101699998D02*
X168669998Y-101699998D01*
X166180000Y-102431471D02*
X167348529Y-103600000D01*
X167900004Y-99900000D02*
X166180000Y-99900000D01*
X169334998Y-103265002D02*
X169334998Y-102895000D01*
X166180000Y-99900000D02*
X166180000Y-101400000D01*
X168669998Y-100499998D02*
X168500002Y-100499998D01*
X166475000Y-101400000D02*
X166180000Y-101400000D01*
X166180000Y-101400000D02*
X166180000Y-102431471D01*
X168500002Y-100499998D02*
X167900004Y-99900000D01*
X168600000Y-100200000D02*
X168600000Y-100430000D01*
X169000000Y-103600000D02*
X169334998Y-103265002D01*
G04 #@! TO.N,GND*
X165900000Y-103000000D02*
X165220000Y-102320000D01*
X170134999Y-99964998D02*
X170134999Y-99584999D01*
X165220000Y-102320000D02*
X165220000Y-101400000D01*
X165220000Y-100470000D02*
X165220000Y-99900000D01*
X165400000Y-100650000D02*
X165400000Y-101220000D01*
X165400000Y-100650000D02*
X165220000Y-100470000D01*
X170134999Y-99584999D02*
X169675000Y-99125000D01*
X165400000Y-100650000D02*
X165331092Y-100581092D01*
X165900000Y-104300000D02*
X165900000Y-103000000D01*
X165400000Y-101220000D02*
X165220000Y-101400000D01*
X165995000Y-99125000D02*
X165220000Y-99900000D01*
X169675000Y-99125000D02*
X165995000Y-99125000D01*
G04 #@! TO.N,VDD*
X171732802Y-104267118D02*
X171732802Y-103732802D01*
X171732802Y-103732802D02*
X171334999Y-103334999D01*
D26*
X172595031Y-106675454D02*
X172595031Y-106620031D01*
D25*
X171049920Y-104950000D02*
X171732802Y-104267118D01*
X171334999Y-103334999D02*
X171334999Y-102895000D01*
X171000000Y-104950000D02*
X171049920Y-104950000D01*
G04 #@! TO.N,Net-(U1-CP)*
X171132802Y-104018589D02*
X170935000Y-103820787D01*
X170935000Y-103820787D02*
X170935000Y-102895000D01*
G04 #@! TO.N,Net-(J1-Pin_1)*
X169100000Y-107250000D02*
X168300000Y-108050000D01*
X170534999Y-103830687D02*
X170400000Y-103965686D01*
X170534998Y-102895000D02*
X170534999Y-103499315D01*
X169100000Y-107050000D02*
X169100000Y-107250000D01*
X170400000Y-103965686D02*
X170400000Y-105750000D01*
X170534999Y-103499315D02*
X170534999Y-103830687D01*
X170400000Y-105750000D02*
X169100000Y-107050000D01*
G04 #@! TO.N,Net-(J2-Pin_1)*
X170534998Y-99384998D02*
X169050000Y-97900000D01*
X170534998Y-99964998D02*
X170534998Y-99384998D01*
X169050000Y-97900000D02*
X168300000Y-97900000D01*
G04 #@! TO.N,GNDPWR*
X170404998Y-101699998D02*
X170134999Y-101429999D01*
X171600000Y-101699998D02*
X170404998Y-101699998D01*
G04 #@! TO.N,Net-(U1-SLEEP_N)*
X167700000Y-102100000D02*
X168669998Y-102100000D01*
X167200000Y-102600000D02*
X167700000Y-102100000D01*
G04 #@! TO.N,Net-(U1-GAIN)*
X167825737Y-100674263D02*
X168051474Y-100900000D01*
X168051474Y-100900000D02*
X168669998Y-100900000D01*
G04 #@! TO.N,Net-(J1-Pin_3)*
X169735000Y-102895000D02*
X169735000Y-103499314D01*
X169600000Y-103634314D02*
X169600000Y-104210000D01*
X169600000Y-104210000D02*
X168300000Y-105510000D01*
X169735000Y-103499314D02*
X169600000Y-103634314D01*
G04 #@! TO.N,Net-(J1-Pin_2)*
X170000000Y-105080000D02*
X168300000Y-106780000D01*
X170134999Y-103665001D02*
X170000000Y-103800000D01*
X170134999Y-102895000D02*
X170134999Y-103665001D01*
X170000000Y-103800000D02*
X170000000Y-105080000D01*
G04 #@! TO.N,Net-(J2-Pin_2)*
X170935000Y-99019314D02*
X169350000Y-97434314D01*
X169350000Y-97100000D02*
X168880000Y-96630000D01*
X168880000Y-96630000D02*
X168300000Y-96630000D01*
X170935000Y-99964998D02*
X170935000Y-99019314D01*
X169350000Y-97434314D02*
X169350000Y-97100000D01*
G04 #@! TO.N,Net-(J2-Pin_3)*
X169750000Y-96810000D02*
X168300000Y-95360000D01*
X171335000Y-99429999D02*
X171335000Y-98853628D01*
X171334999Y-99964998D02*
X171335000Y-99429999D01*
X169750000Y-97268628D02*
X169750000Y-96810000D01*
X171335000Y-98853628D02*
X169750000Y-97268628D01*
G04 #@! TO.N,Net-(J4-Pin_1)*
X173700000Y-102900000D02*
X173800000Y-102900000D01*
G04 #@! TO.N,unconnected-(U1-SLEW-Pad22)*
X166780000Y-100750000D02*
X167329999Y-101299999D01*
X167329999Y-101299999D02*
X168669998Y-101299999D01*
G04 #@! TO.N,Net-(J4-Pin_3)*
X173700002Y-100499998D02*
X173800000Y-100400000D01*
G04 #@! TO.N,Net-(U1-FAULT_N)*
X168405000Y-102895000D02*
X168300000Y-103000000D01*
X168934999Y-102895000D02*
X168405000Y-102895000D01*
G04 #@! TD*
G04 #@! TA.AperFunction,Conductor*
G04 #@! TO.N,VDD*
G36*
X171864357Y-102033336D02*
G01*
X172604934Y-102874284D01*
X172609350Y-102879930D01*
X172962675Y-103390438D01*
X172962704Y-103390477D01*
X172973855Y-103405134D01*
X172973869Y-103405151D01*
X172973878Y-103405163D01*
X172980961Y-103413651D01*
X172985512Y-103418921D01*
X172985514Y-103418923D01*
X173060098Y-103471843D01*
X173060100Y-103471844D01*
X173103576Y-103489853D01*
X173103580Y-103489854D01*
X173103587Y-103489857D01*
X173135857Y-103496276D01*
X173170011Y-103515947D01*
X173200000Y-103550000D01*
X174468833Y-103550000D01*
X174450668Y-108999500D01*
X174109141Y-108999500D01*
X174065654Y-108981487D01*
X174047641Y-108938000D01*
X174053199Y-108912451D01*
X174085165Y-108842457D01*
X174105647Y-108700000D01*
X174085165Y-108557543D01*
X174025377Y-108426627D01*
X173931128Y-108317857D01*
X173931125Y-108317855D01*
X173931124Y-108317854D01*
X173810055Y-108240048D01*
X173810048Y-108240045D01*
X173721076Y-108213921D01*
X173671961Y-108199500D01*
X173528039Y-108199500D01*
X173389951Y-108240045D01*
X173389944Y-108240048D01*
X173268875Y-108317854D01*
X173268873Y-108317856D01*
X173246478Y-108343701D01*
X173204387Y-108364769D01*
X173159725Y-108349904D01*
X173153522Y-108343701D01*
X173150447Y-108340153D01*
X173131128Y-108317857D01*
X173131125Y-108317855D01*
X173131124Y-108317854D01*
X173010055Y-108240048D01*
X173010048Y-108240045D01*
X172921076Y-108213921D01*
X172871961Y-108199500D01*
X172728039Y-108199500D01*
X172589951Y-108240045D01*
X172589944Y-108240048D01*
X172480197Y-108310577D01*
X172433875Y-108318934D01*
X172422351Y-108315207D01*
X171736903Y-108016103D01*
X171704250Y-107982201D01*
X171700000Y-107959736D01*
X171700000Y-105208057D01*
X171702077Y-105192211D01*
X172100000Y-103700001D01*
X172099999Y-103699999D01*
X171907665Y-103486295D01*
X171665787Y-103217541D01*
X171650000Y-103176400D01*
X171650000Y-102700001D01*
X171650000Y-102700000D01*
X171399200Y-102260001D01*
X171393316Y-102213301D01*
X171422176Y-102176117D01*
X171428543Y-102172960D01*
X171794126Y-102017392D01*
X171841193Y-102016941D01*
X171864357Y-102033336D01*
G37*
G04 #@! TD.AperFunction*
G04 #@! TD*
G04 #@! TA.AperFunction,Conductor*
G04 #@! TO.N,VDD*
G36*
X178581487Y-94418513D02*
G01*
X178599500Y-94462000D01*
X178599500Y-108938000D01*
X178581487Y-108981487D01*
X178538000Y-108999500D01*
X174450668Y-108999500D01*
X174464277Y-104916508D01*
X175474500Y-104916508D01*
X175474500Y-105483491D01*
X175490280Y-105583125D01*
X175551471Y-105703220D01*
X175646779Y-105798528D01*
X175766874Y-105859719D01*
X175866512Y-105875500D01*
X175866516Y-105875500D01*
X176383484Y-105875500D01*
X176383488Y-105875500D01*
X176483126Y-105859719D01*
X176603220Y-105798528D01*
X176603221Y-105798528D01*
X176698528Y-105703221D01*
X176698528Y-105703220D01*
X176759719Y-105583126D01*
X176775500Y-105483488D01*
X176775500Y-104916512D01*
X176759719Y-104816874D01*
X176698528Y-104696779D01*
X176603220Y-104601471D01*
X176483125Y-104540280D01*
X176383491Y-104524500D01*
X176383488Y-104524500D01*
X175866512Y-104524500D01*
X175866508Y-104524500D01*
X175766874Y-104540280D01*
X175646779Y-104601471D01*
X175646779Y-104601472D01*
X175551472Y-104696779D01*
X175551471Y-104696779D01*
X175490280Y-104816874D01*
X175474500Y-104916508D01*
X174464277Y-104916508D01*
X174469205Y-103437800D01*
X174488342Y-103428050D01*
X174578050Y-103338342D01*
X174635646Y-103225304D01*
X174650500Y-103131519D01*
X174650499Y-102668482D01*
X174635646Y-102574696D01*
X174578050Y-102461658D01*
X174578048Y-102461656D01*
X174578047Y-102461654D01*
X174490909Y-102374517D01*
X174472896Y-102331030D01*
X174473663Y-102100837D01*
X174491674Y-102057561D01*
X174530520Y-102018716D01*
X174609577Y-101881784D01*
X174625455Y-101822524D01*
X174650500Y-101729059D01*
X174650500Y-101570940D01*
X174609578Y-101418220D01*
X174609577Y-101418216D01*
X174530520Y-101281284D01*
X174494673Y-101245437D01*
X174476660Y-101201950D01*
X174476660Y-101201899D01*
X174477844Y-100846657D01*
X174495855Y-100803380D01*
X174530520Y-100768716D01*
X174609577Y-100631784D01*
X174625455Y-100572524D01*
X174650500Y-100479059D01*
X174650500Y-100320940D01*
X174609578Y-100168220D01*
X174609577Y-100168216D01*
X174530520Y-100031284D01*
X174498825Y-99999589D01*
X174480812Y-99956103D01*
X174499331Y-94400500D01*
X178538000Y-94400500D01*
X178581487Y-94418513D01*
G37*
G04 #@! TD.AperFunction*
G04 #@! TD*
G04 #@! TA.AperFunction,Conductor*
G04 #@! TO.N,VDD*
G36*
X174489754Y-97273719D02*
G01*
X174489753Y-97273718D01*
X174386719Y-97260839D01*
X174331323Y-97234860D01*
X174301777Y-97181282D01*
X174299999Y-97162604D01*
X174299999Y-94504870D01*
X174318906Y-94446679D01*
X174346528Y-94420919D01*
X174355128Y-94415544D01*
X174407592Y-94400500D01*
X174499332Y-94400500D01*
X174489754Y-97273719D01*
G37*
G04 #@! TD.AperFunction*
G04 #@! TD*
G04 #@! TA.AperFunction,Conductor*
G04 #@! TO.N,Net-(J4-Pin_2)*
G36*
X171865075Y-100806887D02*
G01*
X173752229Y-101239060D01*
X173790597Y-101266326D01*
X173800000Y-101299008D01*
X173800000Y-101980334D01*
X173781987Y-102023821D01*
X173738500Y-102041834D01*
X173730872Y-102041359D01*
X173411824Y-102001478D01*
X173389585Y-101994214D01*
X173275642Y-101930912D01*
X173262025Y-101920641D01*
X173213227Y-101871843D01*
X173197919Y-101857999D01*
X173197907Y-101857988D01*
X173188379Y-101850206D01*
X173188372Y-101850201D01*
X173188365Y-101850195D01*
X173171749Y-101837961D01*
X173171731Y-101837949D01*
X171986960Y-101054130D01*
X171954692Y-101038205D01*
X171947743Y-101034191D01*
X171913232Y-101011132D01*
X171913230Y-101011131D01*
X171854751Y-100999499D01*
X171854748Y-100999499D01*
X171767742Y-100999499D01*
X171724255Y-100981486D01*
X171706242Y-100937999D01*
X171724255Y-100894512D01*
X171727882Y-100891165D01*
X171811496Y-100820003D01*
X171856288Y-100805535D01*
X171865075Y-100806887D01*
G37*
G04 #@! TD.AperFunction*
G04 #@! TD*
G04 #@! TA.AperFunction,Conductor*
G04 #@! TO.N,Net-(J4-Pin_3)*
G36*
X173773506Y-100023124D02*
G01*
X173799008Y-100062688D01*
X173800000Y-100073689D01*
X173800000Y-100732655D01*
X173781987Y-100776142D01*
X173738500Y-100794155D01*
X173732932Y-100793902D01*
X172072163Y-100642922D01*
X172064002Y-100641623D01*
X171910952Y-100606573D01*
X171896333Y-100603778D01*
X171887509Y-100602420D01*
X171884221Y-100601942D01*
X171881082Y-100602220D01*
X171863677Y-100601276D01*
X171859717Y-100600488D01*
X171854749Y-100599500D01*
X171854748Y-100599500D01*
X171661500Y-100599500D01*
X171618013Y-100581487D01*
X171600000Y-100538000D01*
X171600000Y-100451324D01*
X171618013Y-100407837D01*
X171650497Y-100390816D01*
X173727501Y-100013181D01*
X173773506Y-100023124D01*
G37*
G04 #@! TD.AperFunction*
G04 #@! TD*
G04 #@! TA.AperFunction,Conductor*
G04 #@! TO.N,Net-(J4-Pin_1)*
G36*
X171873571Y-101225517D02*
G01*
X173058363Y-102009349D01*
X173067917Y-102017153D01*
X173069480Y-102018716D01*
X173181284Y-102130520D01*
X173318216Y-102209577D01*
X173380486Y-102226262D01*
X173398495Y-102234373D01*
X173772433Y-102481762D01*
X173798763Y-102520779D01*
X173800000Y-102533053D01*
X173800000Y-103238500D01*
X173781987Y-103281987D01*
X173738500Y-103300000D01*
X173182229Y-103300000D01*
X173138742Y-103281987D01*
X173131659Y-103273499D01*
X172046430Y-101705486D01*
X172035500Y-101670487D01*
X172035500Y-101580247D01*
X172035499Y-101580246D01*
X172023868Y-101521773D01*
X172023867Y-101521767D01*
X171979552Y-101455446D01*
X171913231Y-101411131D01*
X171913228Y-101411130D01*
X171913224Y-101411129D01*
X171854751Y-101399498D01*
X171854748Y-101399498D01*
X171767741Y-101399498D01*
X171724254Y-101381485D01*
X171706241Y-101337998D01*
X171724254Y-101294511D01*
X171727881Y-101291164D01*
X171799780Y-101229973D01*
X171844570Y-101215506D01*
X171873571Y-101225517D01*
G37*
G04 #@! TD.AperFunction*
G04 #@! TD*
G04 #@! TA.AperFunction,Conductor*
G04 #@! TO.N,GNDPWR*
G36*
X168113123Y-94420462D02*
G01*
X168167661Y-94475000D01*
X168187623Y-94549500D01*
X168167661Y-94624000D01*
X168113123Y-94678538D01*
X168074281Y-94694170D01*
X168049775Y-94700209D01*
X167899145Y-94779267D01*
X167771820Y-94892067D01*
X167771817Y-94892071D01*
X167675181Y-95032070D01*
X167614860Y-95191125D01*
X167594355Y-95360000D01*
X167614860Y-95528874D01*
X167675181Y-95687929D01*
X167675182Y-95687930D01*
X167771817Y-95827929D01*
X167820616Y-95871161D01*
X167834512Y-95883472D01*
X167877038Y-95947817D01*
X167881695Y-96024804D01*
X167847234Y-96093806D01*
X167834512Y-96106528D01*
X167771817Y-96162071D01*
X167675181Y-96302070D01*
X167614860Y-96461125D01*
X167594355Y-96630000D01*
X167614860Y-96798874D01*
X167675181Y-96957929D01*
X167723565Y-97028024D01*
X167749458Y-97100676D01*
X167735555Y-97176541D01*
X167685583Y-97235290D01*
X167683726Y-97236551D01*
X167655452Y-97255444D01*
X167655448Y-97255448D01*
X167611132Y-97321769D01*
X167599500Y-97380251D01*
X167599500Y-98419748D01*
X167611132Y-98478230D01*
X167611133Y-98478231D01*
X167655448Y-98544552D01*
X167666016Y-98551613D01*
X167716868Y-98609601D01*
X167731914Y-98685248D01*
X167707121Y-98758282D01*
X167649132Y-98809135D01*
X167583233Y-98824500D01*
X165955435Y-98824500D01*
X165894001Y-98840961D01*
X165879012Y-98844978D01*
X165879011Y-98844978D01*
X165879009Y-98844979D01*
X165810491Y-98884538D01*
X165810488Y-98884540D01*
X165349168Y-99345859D01*
X165282373Y-99384423D01*
X165243810Y-99389500D01*
X165040102Y-99389500D01*
X165040101Y-99389500D01*
X165040100Y-99389501D01*
X165015306Y-99392764D01*
X164990512Y-99396028D01*
X164881684Y-99446775D01*
X164796775Y-99531684D01*
X164746029Y-99640510D01*
X164746027Y-99640517D01*
X164739500Y-99690096D01*
X164739500Y-100109897D01*
X164739501Y-100109900D01*
X164744308Y-100146423D01*
X164746028Y-100159487D01*
X164796775Y-100268315D01*
X164875859Y-100347399D01*
X164914423Y-100414194D01*
X164919500Y-100452758D01*
X164919500Y-100470232D01*
X164915666Y-100496896D01*
X164916351Y-100496995D01*
X164894353Y-100649996D01*
X164894353Y-100650003D01*
X164914834Y-100792456D01*
X164917431Y-100801300D01*
X164919265Y-100878406D01*
X164882301Y-100946099D01*
X164879825Y-100948635D01*
X164796775Y-101031684D01*
X164746029Y-101140510D01*
X164746027Y-101140517D01*
X164739500Y-101190096D01*
X164739500Y-101609897D01*
X164739501Y-101609900D01*
X164746028Y-101659487D01*
X164796775Y-101768315D01*
X164875859Y-101847399D01*
X164914423Y-101914194D01*
X164919500Y-101952758D01*
X164919500Y-102359562D01*
X164939979Y-102435990D01*
X164976647Y-102499500D01*
X164977225Y-102500501D01*
X164979540Y-102504511D01*
X165555860Y-103080831D01*
X165594423Y-103147624D01*
X165599500Y-103186188D01*
X165599500Y-103826936D01*
X165579538Y-103901436D01*
X165563108Y-103924509D01*
X165474622Y-104026628D01*
X165414834Y-104157545D01*
X165394353Y-104299996D01*
X165394353Y-104300003D01*
X165414834Y-104442454D01*
X165414834Y-104442455D01*
X165414835Y-104442457D01*
X165474623Y-104573373D01*
X165568872Y-104682143D01*
X165689947Y-104759953D01*
X165828039Y-104800500D01*
X165828041Y-104800500D01*
X165971959Y-104800500D01*
X165971961Y-104800500D01*
X166110053Y-104759953D01*
X166231128Y-104682143D01*
X166325377Y-104573373D01*
X166385165Y-104442457D01*
X166405647Y-104300000D01*
X166405647Y-104299996D01*
X166385165Y-104157545D01*
X166385165Y-104157543D01*
X166325377Y-104026627D01*
X166236892Y-103924509D01*
X166203192Y-103855133D01*
X166200500Y-103826936D01*
X166200500Y-103236659D01*
X166220462Y-103162159D01*
X166275000Y-103107621D01*
X166349500Y-103087659D01*
X166424000Y-103107621D01*
X166454854Y-103131296D01*
X167164018Y-103840460D01*
X167232541Y-103880022D01*
X167308967Y-103900500D01*
X167308969Y-103900500D01*
X169039557Y-103900500D01*
X169039562Y-103900500D01*
X169110271Y-103881552D01*
X169187396Y-103881551D01*
X169254191Y-103920115D01*
X169292756Y-103986909D01*
X169292758Y-104064037D01*
X169254194Y-104130832D01*
X169254193Y-104130834D01*
X168597287Y-104787740D01*
X168530492Y-104826304D01*
X168456273Y-104827052D01*
X168399959Y-104813173D01*
X168385056Y-104809500D01*
X168214944Y-104809500D01*
X168049775Y-104850209D01*
X167899145Y-104929267D01*
X167771820Y-105042067D01*
X167771817Y-105042071D01*
X167675179Y-105182074D01*
X167641066Y-105272024D01*
X167595983Y-105334604D01*
X167525650Y-105366258D01*
X167448913Y-105358505D01*
X167386333Y-105313422D01*
X167354679Y-105243089D01*
X167354266Y-105240392D01*
X167335166Y-105107545D01*
X167325633Y-105086672D01*
X167275377Y-104976627D01*
X167181128Y-104867857D01*
X167181127Y-104867856D01*
X167116470Y-104826304D01*
X167060053Y-104790047D01*
X167060050Y-104790046D01*
X166921967Y-104749501D01*
X166921962Y-104749500D01*
X166921961Y-104749500D01*
X166778039Y-104749500D01*
X166778037Y-104749500D01*
X166778032Y-104749501D01*
X166639949Y-104790046D01*
X166518872Y-104867856D01*
X166518870Y-104867859D01*
X166424622Y-104976628D01*
X166364834Y-105107545D01*
X166344353Y-105249996D01*
X166344353Y-105250003D01*
X166364834Y-105392454D01*
X166364834Y-105392455D01*
X166364835Y-105392457D01*
X166424623Y-105523373D01*
X166518872Y-105632143D01*
X166639947Y-105709953D01*
X166778039Y-105750500D01*
X166778041Y-105750500D01*
X166921959Y-105750500D01*
X166921961Y-105750500D01*
X167060053Y-105709953D01*
X167181128Y-105632143D01*
X167275377Y-105523373D01*
X167309820Y-105447953D01*
X167358927Y-105388479D01*
X167431192Y-105361526D01*
X167507252Y-105374316D01*
X167566727Y-105423423D01*
X167593680Y-105495688D01*
X167594355Y-105509851D01*
X167594355Y-105509996D01*
X167594355Y-105510000D01*
X167595979Y-105523371D01*
X167614860Y-105678874D01*
X167675181Y-105837929D01*
X167705113Y-105881293D01*
X167771817Y-105977929D01*
X167820616Y-106021161D01*
X167834512Y-106033472D01*
X167877038Y-106097817D01*
X167881695Y-106174804D01*
X167847234Y-106243806D01*
X167834512Y-106256528D01*
X167771817Y-106312071D01*
X167675181Y-106452070D01*
X167614860Y-106611125D01*
X167594355Y-106780000D01*
X167614860Y-106948874D01*
X167675181Y-107107929D01*
X167723565Y-107178024D01*
X167749458Y-107250676D01*
X167735555Y-107326541D01*
X167685583Y-107385290D01*
X167683726Y-107386551D01*
X167655452Y-107405444D01*
X167655448Y-107405448D01*
X167611132Y-107471769D01*
X167599500Y-107530251D01*
X167599500Y-108569748D01*
X167611132Y-108628230D01*
X167611133Y-108628231D01*
X167655448Y-108694552D01*
X167703429Y-108726612D01*
X167754282Y-108784601D01*
X167769328Y-108860247D01*
X167744535Y-108933282D01*
X167686546Y-108984135D01*
X167620647Y-108999500D01*
X164149500Y-108999500D01*
X164075000Y-108979538D01*
X164020462Y-108925000D01*
X164000500Y-108850500D01*
X164000500Y-94549500D01*
X164020462Y-94475000D01*
X164075000Y-94420462D01*
X164149500Y-94400500D01*
X168038623Y-94400500D01*
X168113123Y-94420462D01*
G37*
G04 #@! TD.AperFunction*
G04 #@! TA.AperFunction,Conductor*
G36*
X171413775Y-105367585D02*
G01*
X171470846Y-105419466D01*
X171494331Y-105492931D01*
X171494500Y-105500022D01*
X171494500Y-107959744D01*
X171498407Y-108001405D01*
X171498303Y-108001414D01*
X171499500Y-108018444D01*
X171499500Y-108019748D01*
X171511132Y-108078230D01*
X171511133Y-108078231D01*
X171555448Y-108144552D01*
X171621769Y-108188867D01*
X171621771Y-108188867D01*
X171621772Y-108188868D01*
X171633253Y-108193624D01*
X171648927Y-108201217D01*
X171654712Y-108204450D01*
X171654715Y-108204452D01*
X171654717Y-108204453D01*
X171654721Y-108204455D01*
X172340137Y-108503545D01*
X172340146Y-108503548D01*
X172340163Y-108503556D01*
X172359115Y-108510736D01*
X172370639Y-108514463D01*
X172379001Y-108516972D01*
X172470360Y-108521169D01*
X172516682Y-108512812D01*
X172591297Y-108483455D01*
X172599333Y-108478291D01*
X172658166Y-108440481D01*
X172696742Y-108422863D01*
X172737033Y-108411033D01*
X172779005Y-108405000D01*
X172820994Y-108405000D01*
X172862971Y-108411035D01*
X172863181Y-108411096D01*
X172863181Y-108411097D01*
X172903253Y-108422862D01*
X172941827Y-108440479D01*
X172955487Y-108449257D01*
X172978861Y-108464279D01*
X173006280Y-108487192D01*
X173006337Y-108487136D01*
X173006970Y-108487769D01*
X173007355Y-108488091D01*
X173008212Y-108489011D01*
X173008223Y-108489022D01*
X173014402Y-108495201D01*
X173016654Y-108497419D01*
X173016659Y-108497423D01*
X173094819Y-108544883D01*
X173094821Y-108544884D01*
X173094828Y-108544888D01*
X173139490Y-108559753D01*
X173207526Y-108570245D01*
X173296368Y-108548534D01*
X173338459Y-108527466D01*
X173401784Y-108478275D01*
X173401783Y-108478275D01*
X173407572Y-108473779D01*
X173407955Y-108474272D01*
X173418674Y-108465860D01*
X173458173Y-108440476D01*
X173496743Y-108422862D01*
X173537032Y-108411033D01*
X173579004Y-108405000D01*
X173620994Y-108405000D01*
X173662970Y-108411035D01*
X173663181Y-108411096D01*
X173663181Y-108411097D01*
X173703253Y-108422862D01*
X173741827Y-108440478D01*
X173777148Y-108463177D01*
X173809197Y-108490948D01*
X173814804Y-108497419D01*
X173836692Y-108522679D01*
X173859620Y-108558357D01*
X173877062Y-108596550D01*
X173889010Y-108637239D01*
X173894985Y-108678792D01*
X173894985Y-108721206D01*
X173889010Y-108762758D01*
X173877064Y-108803444D01*
X173866269Y-108827083D01*
X173852395Y-108868769D01*
X173849480Y-108882172D01*
X173814138Y-108950726D01*
X173749254Y-108992425D01*
X173703885Y-108999500D01*
X168979353Y-108999500D01*
X168904853Y-108979538D01*
X168850315Y-108925000D01*
X168830353Y-108850500D01*
X168850315Y-108776000D01*
X168896569Y-108726613D01*
X168944552Y-108694552D01*
X168988867Y-108628231D01*
X169000500Y-108569748D01*
X169000500Y-107836189D01*
X169020462Y-107761689D01*
X169044141Y-107730830D01*
X169340460Y-107434511D01*
X169357239Y-107405448D01*
X169380021Y-107365989D01*
X169400500Y-107289562D01*
X169400500Y-107236188D01*
X169420462Y-107161688D01*
X169444137Y-107130833D01*
X170640460Y-105934511D01*
X170680022Y-105865988D01*
X170700500Y-105789562D01*
X170700500Y-105710438D01*
X170700500Y-105582729D01*
X170720462Y-105508229D01*
X170775000Y-105453691D01*
X170849500Y-105433729D01*
X170891479Y-105439765D01*
X170928034Y-105450499D01*
X170928037Y-105450499D01*
X170928039Y-105450500D01*
X170928041Y-105450500D01*
X171071959Y-105450500D01*
X171071961Y-105450500D01*
X171210053Y-105409953D01*
X171264946Y-105374675D01*
X171338409Y-105351191D01*
X171413775Y-105367585D01*
G37*
G04 #@! TD.AperFunction*
G04 #@! TA.AperFunction,Conductor*
G36*
X176378892Y-104731833D02*
G01*
X176382711Y-104732437D01*
X176395519Y-104734466D01*
X176439854Y-104748869D01*
X176459900Y-104759083D01*
X176497611Y-104786482D01*
X176513515Y-104802386D01*
X176540915Y-104840100D01*
X176546067Y-104850210D01*
X176551127Y-104860141D01*
X176565530Y-104904468D01*
X176568164Y-104921093D01*
X176570000Y-104944409D01*
X176570000Y-105455589D01*
X176568166Y-105478892D01*
X176565533Y-105495516D01*
X176565532Y-105495523D01*
X176551125Y-105539859D01*
X176540911Y-105559904D01*
X176513512Y-105597615D01*
X176497615Y-105613512D01*
X176459904Y-105640911D01*
X176439859Y-105651125D01*
X176395523Y-105665531D01*
X176378898Y-105668165D01*
X176355589Y-105670000D01*
X175894410Y-105670000D01*
X175871104Y-105668165D01*
X175854467Y-105665530D01*
X175810141Y-105651127D01*
X175810137Y-105651125D01*
X175790100Y-105640915D01*
X175752386Y-105613515D01*
X175736482Y-105597611D01*
X175709083Y-105559900D01*
X175698869Y-105539854D01*
X175684466Y-105495519D01*
X175681833Y-105478892D01*
X175680000Y-105455592D01*
X175680000Y-104944405D01*
X175681833Y-104921105D01*
X175681887Y-104920762D01*
X175684466Y-104904476D01*
X175698869Y-104860145D01*
X175709084Y-104840095D01*
X175736478Y-104802391D01*
X175752391Y-104786478D01*
X175790097Y-104759083D01*
X175810145Y-104748868D01*
X175854474Y-104734466D01*
X175871108Y-104731832D01*
X175894405Y-104730000D01*
X176355592Y-104730000D01*
X176378892Y-104731833D01*
G37*
G04 #@! TD.AperFunction*
G04 #@! TA.AperFunction,Conductor*
G36*
X169615252Y-100400498D02*
G01*
X169615254Y-100400498D01*
X169854747Y-100400498D01*
X169854748Y-100400498D01*
X169876988Y-100396074D01*
X169953950Y-100401118D01*
X169980557Y-100413174D01*
X169982428Y-100414254D01*
X169982429Y-100414254D01*
X169982431Y-100414256D01*
X170082013Y-100450500D01*
X170082014Y-100450500D01*
X170187984Y-100450500D01*
X170187985Y-100450500D01*
X170287567Y-100414256D01*
X170287574Y-100414249D01*
X170289435Y-100413176D01*
X170293599Y-100412060D01*
X170299817Y-100409797D01*
X170300014Y-100410340D01*
X170363935Y-100393211D01*
X170393009Y-100396074D01*
X170415250Y-100400498D01*
X170654744Y-100400498D01*
X170654746Y-100400498D01*
X170705934Y-100390316D01*
X170764064Y-100390316D01*
X170815252Y-100400498D01*
X170815254Y-100400498D01*
X171015500Y-100400498D01*
X171090000Y-100420460D01*
X171144538Y-100474998D01*
X171164500Y-100549498D01*
X171164500Y-100619746D01*
X171174681Y-100670931D01*
X171174681Y-100729067D01*
X171164500Y-100780251D01*
X171164500Y-100780252D01*
X171164500Y-101019748D01*
X171166966Y-101032143D01*
X171174681Y-101070930D01*
X171174681Y-101129067D01*
X171164500Y-101180250D01*
X171164500Y-101419747D01*
X171176132Y-101478229D01*
X171176133Y-101478230D01*
X171220448Y-101544551D01*
X171267682Y-101576112D01*
X171318534Y-101634100D01*
X171333580Y-101709746D01*
X171308787Y-101782781D01*
X171267682Y-101823886D01*
X171220449Y-101855447D01*
X171220448Y-101855448D01*
X171176132Y-101921769D01*
X171164500Y-101980251D01*
X171164500Y-102219746D01*
X171176770Y-102281431D01*
X171171726Y-102358394D01*
X171128876Y-102422524D01*
X171059702Y-102456637D01*
X171030633Y-102459500D01*
X170815252Y-102459500D01*
X170764067Y-102469681D01*
X170705931Y-102469681D01*
X170654746Y-102459500D01*
X170415250Y-102459500D01*
X170364066Y-102469681D01*
X170305930Y-102469681D01*
X170254747Y-102459500D01*
X170015251Y-102459500D01*
X169964067Y-102469681D01*
X169905931Y-102469681D01*
X169854748Y-102459500D01*
X169615252Y-102459500D01*
X169564067Y-102469681D01*
X169505931Y-102469681D01*
X169454746Y-102459500D01*
X169239365Y-102459500D01*
X169164865Y-102439538D01*
X169110327Y-102385000D01*
X169090365Y-102310500D01*
X169093228Y-102281431D01*
X169105498Y-102219746D01*
X169105498Y-101980254D01*
X169105498Y-101980252D01*
X169095316Y-101929063D01*
X169095316Y-101870934D01*
X169105498Y-101819746D01*
X169105498Y-101580250D01*
X169095317Y-101529066D01*
X169095317Y-101470929D01*
X169105498Y-101419745D01*
X169105498Y-101180250D01*
X169095317Y-101129067D01*
X169095317Y-101070930D01*
X169103032Y-101032143D01*
X169105498Y-101019748D01*
X169105498Y-100780252D01*
X169095316Y-100729063D01*
X169095316Y-100670934D01*
X169105498Y-100619746D01*
X169105498Y-100549498D01*
X169125460Y-100474998D01*
X169179998Y-100420460D01*
X169254498Y-100400498D01*
X169454744Y-100400498D01*
X169454746Y-100400498D01*
X169505934Y-100390316D01*
X169564064Y-100390316D01*
X169615252Y-100400498D01*
G37*
G04 #@! TD.AperFunction*
G04 #@! TA.AperFunction,Conductor*
G36*
X171275000Y-94420462D02*
G01*
X171329538Y-94475000D01*
X171349500Y-94549500D01*
X171349500Y-97269748D01*
X171361132Y-97328230D01*
X171361133Y-97328231D01*
X171405448Y-97394552D01*
X171471769Y-97438867D01*
X171530252Y-97450500D01*
X174134166Y-97450500D01*
X174208666Y-97470462D01*
X174263204Y-97525000D01*
X174283166Y-97599500D01*
X174279014Y-98844978D01*
X174276327Y-99650997D01*
X174256117Y-99725430D01*
X174201397Y-99779785D01*
X174127328Y-99799500D01*
X173470943Y-99799500D01*
X173318212Y-99840424D01*
X173243772Y-99883402D01*
X173195927Y-99900961D01*
X171811153Y-100152737D01*
X171734284Y-100146423D01*
X171670869Y-100102521D01*
X171637902Y-100032794D01*
X171635499Y-100006140D01*
X171635499Y-99710250D01*
X171635500Y-99390438D01*
X171635500Y-98814070D01*
X171635500Y-98814066D01*
X171615021Y-98737639D01*
X171575460Y-98669117D01*
X171519511Y-98613168D01*
X170094141Y-97187798D01*
X170055577Y-97121003D01*
X170050500Y-97082439D01*
X170050500Y-96770439D01*
X170050499Y-96770435D01*
X170043949Y-96745990D01*
X170043949Y-96745989D01*
X170030022Y-96694012D01*
X169993064Y-96630000D01*
X169990462Y-96625492D01*
X169990461Y-96625491D01*
X169990460Y-96625489D01*
X169026509Y-95661538D01*
X168987945Y-95594743D01*
X168987403Y-95538225D01*
X168984053Y-95537819D01*
X168985139Y-95528874D01*
X168985140Y-95528872D01*
X169005645Y-95360000D01*
X168985140Y-95191128D01*
X168924818Y-95032070D01*
X168828183Y-94892071D01*
X168828180Y-94892068D01*
X168828179Y-94892067D01*
X168700853Y-94779267D01*
X168700854Y-94779267D01*
X168550224Y-94700209D01*
X168525719Y-94694170D01*
X168458161Y-94656959D01*
X168418260Y-94590955D01*
X168416707Y-94513842D01*
X168453918Y-94446284D01*
X168519922Y-94406383D01*
X168561377Y-94400500D01*
X171200500Y-94400500D01*
X171275000Y-94420462D01*
G37*
G04 #@! TD.AperFunction*
G04 #@! TD*
M02*
