G04 #@! TF.GenerationSoftware,KiCad,Pcbnew,8.0.7-8.0.7-0~ubuntu24.04.1*
G04 #@! TF.CreationDate,2024-12-30T22:58:19-07:00*
G04 #@! TF.ProjectId,DRV8311 Motor Driver,44525638-3331-4312-904d-6f746f722044,V1*
G04 #@! TF.SameCoordinates,Original*
G04 #@! TF.FileFunction,Legend,Top*
G04 #@! TF.FilePolarity,Positive*
%FSLAX46Y46*%
G04 Gerber Fmt 4.6, Leading zero omitted, Abs format (unit mm)*
G04 Created by KiCad (PCBNEW 8.0.7-8.0.7-0~ubuntu24.04.1) date 2024-12-30 22:58:19*
%MOMM*%
%LPD*%
G01*
G04 APERTURE LIST*
G04 Aperture macros list*
%AMRoundRect*
0 Rectangle with rounded corners*
0 $1 Rounding radius*
0 $2 $3 $4 $5 $6 $7 $8 $9 X,Y pos of 4 corners*
0 Add a 4 corners polygon primitive as box body*
4,1,4,$2,$3,$4,$5,$6,$7,$8,$9,$2,$3,0*
0 Add four circle primitives for the rounded corners*
1,1,$1+$1,$2,$3*
1,1,$1+$1,$4,$5*
1,1,$1+$1,$6,$7*
1,1,$1+$1,$8,$9*
0 Add four rect primitives between the rounded corners*
20,1,$1+$1,$2,$3,$4,$5,0*
20,1,$1+$1,$4,$5,$6,$7,0*
20,1,$1+$1,$6,$7,$8,$9,0*
20,1,$1+$1,$8,$9,$2,$3,0*%
G04 Aperture macros list end*
%ADD10C,0.150000*%
%ADD11C,0.127000*%
%ADD12C,0.120000*%
%ADD13C,0.250000*%
%ADD14RoundRect,0.102000X-1.400000X-1.400000X1.400000X-1.400000X1.400000X1.400000X-1.400000X1.400000X0*%
%ADD15RoundRect,0.200000X0.450000X-0.200000X0.450000X0.200000X-0.450000X0.200000X-0.450000X-0.200000X0*%
%ADD16O,1.300000X0.800000*%
%ADD17RoundRect,0.140000X-0.140000X-0.170000X0.140000X-0.170000X0.140000X0.170000X-0.140000X0.170000X0*%
%ADD18R,0.200000X0.469999*%
%ADD19R,0.469999X0.200000*%
%ADD20C,0.600000*%
%ADD21R,1.899999X1.899999*%
%ADD22RoundRect,0.100000X-1.250000X-1.400000X1.250000X-1.400000X1.250000X1.400000X-1.250000X1.400000X0*%
%ADD23RoundRect,0.225000X0.225000X0.250000X-0.225000X0.250000X-0.225000X-0.250000X0.225000X-0.250000X0*%
%ADD24RoundRect,0.100000X1.250000X1.400000X-1.250000X1.400000X-1.250000X-1.400000X1.250000X-1.400000X0*%
%ADD25RoundRect,0.102000X1.400000X1.400000X-1.400000X1.400000X-1.400000X-1.400000X1.400000X-1.400000X0*%
%ADD26R,1.000000X1.000000*%
%ADD27O,1.000000X1.000000*%
G04 APERTURE END LIST*
D10*
X174536779Y-95088866D02*
X175298684Y-95088866D01*
X174917731Y-95469819D02*
X174917731Y-94707914D01*
X174186779Y-108688866D02*
X174948684Y-108688866D01*
X174567731Y-109069819D02*
X174567731Y-108307914D01*
D11*
G04 #@! TO.C,J7*
X175100000Y-106000000D02*
X178200000Y-106000000D01*
X175100000Y-106350000D02*
X175100000Y-106000000D01*
X175100000Y-109100000D02*
X175100000Y-108750000D01*
X178200000Y-106000000D02*
X178200000Y-106350000D01*
X178200000Y-108750000D02*
X178200000Y-109100000D01*
X178200000Y-109100000D02*
X175100000Y-109100000D01*
D12*
G04 #@! TO.C,J4*
X172350000Y-103150000D02*
X172350000Y-103650000D01*
X172640000Y-98790000D02*
X178360000Y-98790000D01*
X172640000Y-99860000D02*
X172640000Y-98790000D01*
X172640000Y-103440000D02*
X172640000Y-104510000D01*
X172640000Y-104510000D02*
X178360000Y-104510000D01*
X172650000Y-103150000D02*
X172350000Y-103150000D01*
X172940000Y-99860000D02*
X172640000Y-99860000D01*
X172940000Y-101650000D02*
X172940000Y-99860000D01*
X172940000Y-101650000D02*
X172940000Y-103440000D01*
X172940000Y-103440000D02*
X172640000Y-103440000D01*
X178360000Y-98790000D02*
X178360000Y-101650000D01*
X178360000Y-104510000D02*
X178360000Y-101650000D01*
G04 #@! TO.C,C1*
X165592164Y-99540000D02*
X165807836Y-99540000D01*
X165592164Y-100260000D02*
X165807836Y-100260000D01*
D10*
G04 #@! TO.C,U1*
X168059999Y-103504999D02*
X168059999Y-99354999D01*
X172209999Y-99354999D02*
X168059999Y-99354999D01*
X172209999Y-103504999D02*
X168059999Y-103504999D01*
X172209999Y-103504999D02*
X172209999Y-99354999D01*
D13*
X169060000Y-104079999D02*
G75*
G02*
X168809998Y-104079999I-125001J0D01*
G01*
X168809998Y-104079999D02*
G75*
G02*
X169060000Y-104079999I125001J0D01*
G01*
D12*
G04 #@! TO.C,J8*
X175200000Y-95150000D02*
X175200000Y-96150000D01*
X176200000Y-95150000D02*
X175200000Y-95150000D01*
X177100000Y-98350000D02*
X178100000Y-98350000D01*
X178100000Y-98350000D02*
X178100000Y-97350000D01*
G04 #@! TO.C,C6*
X177040580Y-104690000D02*
X176759420Y-104690000D01*
X177040580Y-105710000D02*
X176759420Y-105710000D01*
G04 #@! TO.C,J6*
X171500000Y-105000000D02*
X171500000Y-106000000D01*
X172500000Y-105000000D02*
X171500000Y-105000000D01*
X173400000Y-108200000D02*
X174400000Y-108200000D01*
X174400000Y-108200000D02*
X174400000Y-107200000D01*
D11*
G04 #@! TO.C,J9*
X171400000Y-94300000D02*
X174500000Y-94300000D01*
X171400000Y-94650000D02*
X171400000Y-94300000D01*
X171400000Y-97400000D02*
X171400000Y-97050000D01*
X174500000Y-94300000D02*
X174500000Y-94650000D01*
X174500000Y-97050000D02*
X174500000Y-97400000D01*
X174500000Y-97400000D02*
X171400000Y-97400000D01*
D12*
G04 #@! TO.C,J2*
X162740000Y-95100000D02*
X166740000Y-95100000D01*
X162740000Y-95620000D02*
X162740000Y-95100000D01*
X162740000Y-96370000D02*
X166740000Y-96370000D01*
X162740000Y-96890000D02*
X162740000Y-96370000D01*
X162740000Y-97640000D02*
X166740000Y-97640000D01*
X162740000Y-98160000D02*
X162740000Y-97640000D01*
X166740000Y-94665000D02*
X167860000Y-94665000D01*
X166740000Y-95620000D02*
X162740000Y-95620000D01*
X166740000Y-96890000D02*
X162740000Y-96890000D01*
X166740000Y-97740000D02*
X162740000Y-97740000D01*
X166740000Y-97860000D02*
X162740000Y-97860000D01*
X166740000Y-97980000D02*
X162740000Y-97980000D01*
X166740000Y-98100000D02*
X162740000Y-98100000D01*
X166740000Y-98160000D02*
X162740000Y-98160000D01*
X166740000Y-98595000D02*
X166740000Y-94665000D01*
X167540000Y-97265000D02*
X166740000Y-97265000D01*
X167540000Y-98595000D02*
X166740000Y-98595000D01*
X167860000Y-94665000D02*
X167860000Y-94740323D01*
X167860000Y-95995000D02*
X166740000Y-95995000D01*
X167860000Y-96010323D02*
X167860000Y-95979677D01*
X169060000Y-97900000D02*
X169060000Y-98660000D01*
X169060000Y-98660000D02*
X168300000Y-98660000D01*
G04 #@! TO.C,C7*
X165592164Y-101040000D02*
X165807836Y-101040000D01*
X165592164Y-101760000D02*
X165807836Y-101760000D01*
G04 #@! TO.C,J1*
X162740000Y-105250000D02*
X166740000Y-105250000D01*
X162740000Y-105770000D02*
X162740000Y-105250000D01*
X162740000Y-106520000D02*
X166740000Y-106520000D01*
X162740000Y-107040000D02*
X162740000Y-106520000D01*
X162740000Y-107790000D02*
X166740000Y-107790000D01*
X162740000Y-108310000D02*
X162740000Y-107790000D01*
X166740000Y-104815000D02*
X167860000Y-104815000D01*
X166740000Y-105770000D02*
X162740000Y-105770000D01*
X166740000Y-107040000D02*
X162740000Y-107040000D01*
X166740000Y-107890000D02*
X162740000Y-107890000D01*
X166740000Y-108010000D02*
X162740000Y-108010000D01*
X166740000Y-108130000D02*
X162740000Y-108130000D01*
X166740000Y-108250000D02*
X162740000Y-108250000D01*
X166740000Y-108310000D02*
X162740000Y-108310000D01*
X166740000Y-108745000D02*
X166740000Y-104815000D01*
X167540000Y-107415000D02*
X166740000Y-107415000D01*
X167540000Y-108745000D02*
X166740000Y-108745000D01*
X167860000Y-104815000D02*
X167860000Y-104890323D01*
X167860000Y-106145000D02*
X166740000Y-106145000D01*
X167860000Y-106160323D02*
X167860000Y-106129677D01*
X169060000Y-108050000D02*
X169060000Y-108810000D01*
X169060000Y-108810000D02*
X168300000Y-108810000D01*
G04 #@! TD*
%LPC*%
D14*
G04 #@! TO.C,J7*
X176650000Y-107550000D03*
G04 #@! TD*
D15*
G04 #@! TO.C,J4*
X173800000Y-102900000D03*
D16*
X173800000Y-101650000D03*
X173800000Y-100400000D03*
G04 #@! TD*
D17*
G04 #@! TO.C,C1*
X165220000Y-99900000D03*
X166180000Y-99900000D03*
G04 #@! TD*
D18*
G04 #@! TO.C,U1*
X168934999Y-102895000D03*
X169334998Y-102895000D03*
X169735000Y-102895000D03*
X170134999Y-102895000D03*
X170534998Y-102895000D03*
X170935000Y-102895000D03*
X171334999Y-102895000D03*
D19*
X171600000Y-102100000D03*
X171600000Y-101699998D03*
X171600000Y-101299999D03*
X171600000Y-100900000D03*
X171600000Y-100499998D03*
D18*
X171334999Y-99964998D03*
X170935000Y-99964998D03*
X170534998Y-99964998D03*
X170134999Y-99964998D03*
X169735000Y-99964998D03*
X169334998Y-99964998D03*
X168934999Y-99964998D03*
D19*
X168669998Y-100499998D03*
X168669998Y-100900000D03*
X168669998Y-101299999D03*
X168669998Y-101699998D03*
X168669998Y-102100000D03*
D20*
X169434998Y-102130000D03*
X170835000Y-102130000D03*
D21*
X170134999Y-101429999D03*
D20*
X170134999Y-101404599D03*
X169434998Y-100729998D03*
X170835000Y-100729998D03*
G04 #@! TD*
D22*
G04 #@! TO.C,J8*
X176650000Y-96750000D03*
G04 #@! TD*
D23*
G04 #@! TO.C,C6*
X177675000Y-105200000D03*
X176125000Y-105200000D03*
G04 #@! TD*
D24*
G04 #@! TO.C,J6*
X172950000Y-106600000D03*
G04 #@! TD*
D25*
G04 #@! TO.C,J9*
X172950000Y-95850000D03*
G04 #@! TD*
D26*
G04 #@! TO.C,J2*
X168300000Y-97900000D03*
D27*
X168300000Y-96630000D03*
X168300000Y-95360000D03*
G04 #@! TD*
D17*
G04 #@! TO.C,C7*
X165220000Y-101400000D03*
X166180000Y-101400000D03*
G04 #@! TD*
D26*
G04 #@! TO.C,J1*
X168300000Y-108050000D03*
D27*
X168300000Y-106780000D03*
X168300000Y-105510000D03*
G04 #@! TD*
G36*
X178361980Y-98502383D02*
G01*
X178421480Y-98514218D01*
X178466179Y-98532732D01*
X178506268Y-98559518D01*
X178540481Y-98593731D01*
X178567267Y-98633820D01*
X178585781Y-98678517D01*
X178597617Y-98738017D01*
X178600000Y-98762210D01*
X178600000Y-104137789D01*
X178597617Y-104161982D01*
X178585781Y-104221482D01*
X178567267Y-104266179D01*
X178540481Y-104306268D01*
X178506268Y-104340481D01*
X178466179Y-104367267D01*
X178421482Y-104385781D01*
X178361982Y-104397617D01*
X178337789Y-104400000D01*
X175649995Y-104400000D01*
X175554329Y-104419029D01*
X175554328Y-104419029D01*
X175473223Y-104473223D01*
X175419029Y-104554328D01*
X175419029Y-104554329D01*
X175400000Y-104649995D01*
X175400000Y-105587789D01*
X175397617Y-105611982D01*
X175385781Y-105671482D01*
X175367267Y-105716179D01*
X175340481Y-105756268D01*
X175306268Y-105790481D01*
X175266179Y-105817267D01*
X175221482Y-105835781D01*
X175161982Y-105847617D01*
X175137789Y-105850000D01*
X174862211Y-105850000D01*
X174838019Y-105847617D01*
X174778518Y-105835781D01*
X174733820Y-105817267D01*
X174693731Y-105790481D01*
X174659518Y-105756268D01*
X174632732Y-105716179D01*
X174614218Y-105671480D01*
X174602383Y-105611980D01*
X174600000Y-105587789D01*
X174600000Y-98762210D01*
X174602383Y-98738019D01*
X174614218Y-98678519D01*
X174632732Y-98633820D01*
X174659518Y-98593731D01*
X174693731Y-98559518D01*
X174733820Y-98532732D01*
X174778520Y-98514217D01*
X174838021Y-98502382D01*
X174862211Y-98500000D01*
X178337789Y-98500000D01*
X178361980Y-98502383D01*
G37*
%LPD*%
M02*
