G04 #@! TF.GenerationSoftware,KiCad,Pcbnew,8.0.7-8.0.7-0~ubuntu24.04.1*
G04 #@! TF.CreationDate,2024-12-30T22:58:19-07:00*
G04 #@! TF.ProjectId,DRV8311 Motor Driver,44525638-3331-4312-904d-6f746f722044,V1*
G04 #@! TF.SameCoordinates,Original*
G04 #@! TF.FileFunction,Copper,L4,Bot*
G04 #@! TF.FilePolarity,Positive*
%FSLAX46Y46*%
G04 Gerber Fmt 4.6, Leading zero omitted, Abs format (unit mm)*
G04 Created by KiCad (PCBNEW 8.0.7-8.0.7-0~ubuntu24.04.1) date 2024-12-30 22:58:19*
%MOMM*%
%LPD*%
G01*
G04 APERTURE LIST*
G04 Aperture macros list*
%AMRoundRect*
0 Rectangle with rounded corners*
0 $1 Rounding radius*
0 $2 $3 $4 $5 $6 $7 $8 $9 X,Y pos of 4 corners*
0 Add a 4 corners polygon primitive as box body*
4,1,4,$2,$3,$4,$5,$6,$7,$8,$9,$2,$3,0*
0 Add four circle primitives for the rounded corners*
1,1,$1+$1,$2,$3*
1,1,$1+$1,$4,$5*
1,1,$1+$1,$6,$7*
1,1,$1+$1,$8,$9*
0 Add four rect primitives between the rounded corners*
20,1,$1+$1,$2,$3,$4,$5,0*
20,1,$1+$1,$4,$5,$6,$7,0*
20,1,$1+$1,$6,$7,$8,$9,0*
20,1,$1+$1,$8,$9,$2,$3,0*%
G04 Aperture macros list end*
G04 #@! TA.AperFunction,ComponentPad*
%ADD10RoundRect,0.200000X0.450000X-0.200000X0.450000X0.200000X-0.450000X0.200000X-0.450000X-0.200000X0*%
G04 #@! TD*
G04 #@! TA.AperFunction,ComponentPad*
%ADD11O,1.300000X0.800000*%
G04 #@! TD*
G04 #@! TA.AperFunction,ComponentPad*
%ADD12C,0.600000*%
G04 #@! TD*
G04 #@! TA.AperFunction,ComponentPad*
%ADD13R,1.000000X1.000000*%
G04 #@! TD*
G04 #@! TA.AperFunction,ComponentPad*
%ADD14O,1.000000X1.000000*%
G04 #@! TD*
G04 #@! TA.AperFunction,SMDPad,CuDef*
%ADD15RoundRect,0.135000X-0.135000X-0.185000X0.135000X-0.185000X0.135000X0.185000X-0.135000X0.185000X0*%
G04 #@! TD*
G04 #@! TA.AperFunction,SMDPad,CuDef*
%ADD16R,2.500000X2.800000*%
G04 #@! TD*
G04 #@! TA.AperFunction,SMDPad,CuDef*
%ADD17C,1.000000*%
G04 #@! TD*
G04 #@! TA.AperFunction,SMDPad,CuDef*
%ADD18RoundRect,0.225000X0.225000X0.250000X-0.225000X0.250000X-0.225000X-0.250000X0.225000X-0.250000X0*%
G04 #@! TD*
G04 #@! TA.AperFunction,SMDPad,CuDef*
%ADD19RoundRect,0.140000X-0.170000X0.140000X-0.170000X-0.140000X0.170000X-0.140000X0.170000X0.140000X0*%
G04 #@! TD*
G04 #@! TA.AperFunction,SMDPad,CuDef*
%ADD20R,2.800000X2.800000*%
G04 #@! TD*
G04 #@! TA.AperFunction,SMDPad,CuDef*
%ADD21RoundRect,0.135000X0.135000X0.185000X-0.135000X0.185000X-0.135000X-0.185000X0.135000X-0.185000X0*%
G04 #@! TD*
G04 #@! TA.AperFunction,ViaPad*
%ADD22C,0.600000*%
G04 #@! TD*
G04 #@! TA.AperFunction,Conductor*
%ADD23C,0.200000*%
G04 #@! TD*
G04 #@! TA.AperFunction,Conductor*
%ADD24C,0.600000*%
G04 #@! TD*
G04 #@! TA.AperFunction,Conductor*
%ADD25C,0.400000*%
G04 #@! TD*
G04 APERTURE END LIST*
D10*
G04 #@! TO.P,J4,1,Pin_1*
G04 #@! TO.N,Net-(J4-Pin_1)*
X173800000Y-102900000D03*
D11*
G04 #@! TO.P,J4,2,Pin_2*
G04 #@! TO.N,Net-(J4-Pin_2)*
X173800000Y-101650000D03*
G04 #@! TO.P,J4,3,Pin_3*
G04 #@! TO.N,Net-(J4-Pin_3)*
X173800000Y-100400000D03*
G04 #@! TD*
D12*
G04 #@! TO.P,U1,25,PowerPAD*
G04 #@! TO.N,GNDPWR*
X169434998Y-102130000D03*
X170835000Y-102130000D03*
X170134999Y-101404599D03*
X169434998Y-100729998D03*
X170835000Y-100729998D03*
G04 #@! TD*
D13*
G04 #@! TO.P,J2,1,Pin_1*
G04 #@! TO.N,Net-(J2-Pin_1)*
X168300000Y-97900000D03*
D14*
G04 #@! TO.P,J2,2,Pin_2*
G04 #@! TO.N,Net-(J2-Pin_2)*
X168300000Y-96630000D03*
G04 #@! TO.P,J2,3,Pin_3*
G04 #@! TO.N,Net-(J2-Pin_3)*
X168300000Y-95360000D03*
G04 #@! TD*
D13*
G04 #@! TO.P,J1,1,Pin_1*
G04 #@! TO.N,Net-(J1-Pin_1)*
X168300000Y-108050000D03*
D14*
G04 #@! TO.P,J1,2,Pin_2*
G04 #@! TO.N,Net-(J1-Pin_2)*
X168300000Y-106780000D03*
G04 #@! TO.P,J1,3,Pin_3*
G04 #@! TO.N,Net-(J1-Pin_3)*
X168300000Y-105510000D03*
G04 #@! TD*
D15*
G04 #@! TO.P,R1,1*
G04 #@! TO.N,Net-(U1-SLEEP_N)*
X165015000Y-105200000D03*
G04 #@! TO.P,R1,2*
G04 #@! TO.N,VDD*
X166035000Y-105200000D03*
G04 #@! TD*
D16*
G04 #@! TO.P,J10,1,Pin_1*
G04 #@! TO.N,GNDPWR*
X176650000Y-96750000D03*
G04 #@! TD*
G04 #@! TO.P,J5,1,Pin_1*
G04 #@! TO.N,GNDPWR*
X172950000Y-106600000D03*
G04 #@! TD*
D17*
G04 #@! TO.P,TP5,1,1*
G04 #@! TO.N,+3.3V*
X165100000Y-101700000D03*
G04 #@! TD*
D18*
G04 #@! TO.P,C4,1*
G04 #@! TO.N,VDD*
X176975000Y-99100000D03*
G04 #@! TO.P,C4,2*
G04 #@! TO.N,GNDPWR*
X175425000Y-99100000D03*
G04 #@! TD*
G04 #@! TO.P,C9,1*
G04 #@! TO.N,VDD*
X176975000Y-103600000D03*
G04 #@! TO.P,C9,2*
G04 #@! TO.N,GNDPWR*
X175425000Y-103600000D03*
G04 #@! TD*
D19*
G04 #@! TO.P,C3,1*
G04 #@! TO.N,VDD*
X169550000Y-105270000D03*
G04 #@! TO.P,C3,2*
G04 #@! TO.N,GNDPWR*
X169550000Y-106230000D03*
G04 #@! TD*
D18*
G04 #@! TO.P,C10,1*
G04 #@! TO.N,VDD*
X177875000Y-105200000D03*
G04 #@! TO.P,C10,2*
G04 #@! TO.N,GNDPWR*
X176325000Y-105200000D03*
G04 #@! TD*
D17*
G04 #@! TO.P,TP3,1,1*
G04 #@! TO.N,Net-(U1-FAULT_N)*
X167800000Y-101800000D03*
G04 #@! TD*
D20*
G04 #@! TO.P,J3,1,Pin_1*
G04 #@! TO.N,GNDPWR*
X176650000Y-107550000D03*
G04 #@! TD*
D18*
G04 #@! TO.P,C8,1*
G04 #@! TO.N,VDD*
X176975000Y-100600000D03*
G04 #@! TO.P,C8,2*
G04 #@! TO.N,GNDPWR*
X175425000Y-100600000D03*
G04 #@! TD*
D20*
G04 #@! TO.P,J11,1,Pin_1*
G04 #@! TO.N,GNDPWR*
X172950000Y-95850000D03*
G04 #@! TD*
D15*
G04 #@! TO.P,R3,1*
G04 #@! TO.N,GND*
X165090000Y-98100000D03*
G04 #@! TO.P,R3,2*
G04 #@! TO.N,Net-(U1-GAIN)*
X166110000Y-98100000D03*
G04 #@! TD*
D18*
G04 #@! TO.P,C2,1*
G04 #@! TO.N,Net-(U1-CP)*
X168925000Y-104050000D03*
G04 #@! TO.P,C2,2*
G04 #@! TO.N,VDD*
X167375000Y-104050000D03*
G04 #@! TD*
D17*
G04 #@! TO.P,TP4,1,1*
G04 #@! TO.N,GND*
X165100000Y-99600000D03*
G04 #@! TD*
D18*
G04 #@! TO.P,C5,1*
G04 #@! TO.N,VDD*
X176975000Y-102100000D03*
G04 #@! TO.P,C5,2*
G04 #@! TO.N,GNDPWR*
X175425000Y-102100000D03*
G04 #@! TD*
D21*
G04 #@! TO.P,R2,1*
G04 #@! TO.N,GND*
X166010000Y-103500000D03*
G04 #@! TO.P,R2,2*
G04 #@! TO.N,Net-(U1-SLEEP_N)*
X164990000Y-103500000D03*
G04 #@! TD*
D22*
G04 #@! TO.N,+3.3V*
X165874999Y-102000001D03*
G04 #@! TO.N,GND*
X165400000Y-100650000D03*
X165900000Y-104300000D03*
G04 #@! TO.N,VDD*
X178300000Y-104300000D03*
X177500000Y-102900000D03*
X177900000Y-103600000D03*
X177900000Y-102100000D03*
X177300000Y-104400000D03*
X178300000Y-101400000D03*
X177900000Y-100600000D03*
X171000000Y-104950000D03*
X177900000Y-99100000D03*
X178300000Y-99800000D03*
X177500000Y-99800000D03*
X166850000Y-105250000D03*
X178300000Y-102900000D03*
X177500000Y-101400000D03*
G04 #@! TO.N,Net-(U1-CP)*
X171132802Y-104018589D03*
G04 #@! TO.N,GNDPWR*
X165700000Y-107200000D03*
X171150000Y-107900000D03*
X171150000Y-108700000D03*
X166500000Y-108000000D03*
X165700000Y-106400000D03*
X173800000Y-97800000D03*
X170300000Y-108700000D03*
X165700000Y-108000000D03*
X166100000Y-95700000D03*
X172800000Y-108700000D03*
X164900000Y-106400000D03*
X172000000Y-108700000D03*
X166900000Y-96500000D03*
X170300000Y-107900000D03*
X164900000Y-107200000D03*
X173600000Y-108700000D03*
X165300000Y-96500000D03*
X171100000Y-106200000D03*
X173000000Y-99400000D03*
X173000000Y-98600000D03*
X166500000Y-107200000D03*
X166900000Y-94900000D03*
X173000000Y-97800000D03*
X169600000Y-108300000D03*
X173800000Y-98600000D03*
X165300000Y-95700000D03*
X166900000Y-95700000D03*
X172200000Y-98600000D03*
X171150000Y-107100000D03*
X166500000Y-106400000D03*
X173800000Y-99400000D03*
X169700000Y-107300000D03*
X165300000Y-94900000D03*
X172200000Y-99400000D03*
X176125000Y-105200000D03*
X172200000Y-97800000D03*
X170300000Y-106750000D03*
X166100000Y-94900000D03*
X164900000Y-108000000D03*
X166100000Y-96500000D03*
G04 #@! TO.N,Net-(U1-SLEEP_N)*
X167200000Y-102600000D03*
G04 #@! TO.N,Net-(U1-GAIN)*
X167825737Y-100674263D03*
G04 #@! TO.N,unconnected-(U1-SLEW-Pad22)*
X166780000Y-100750000D03*
G04 #@! TO.N,Net-(U1-FAULT_N)*
X168300000Y-103000000D03*
G04 #@! TD*
D23*
G04 #@! TO.N,+3.3V*
X165874999Y-102000001D02*
X165574998Y-101700000D01*
X165574998Y-101700000D02*
X165100000Y-101700000D01*
G04 #@! TO.N,GND*
X165400000Y-100650000D02*
X165100000Y-100350000D01*
X165900000Y-104300000D02*
X165900000Y-103610000D01*
X165900000Y-103610000D02*
X166010000Y-103500000D01*
X165100000Y-100350000D02*
X165100000Y-99600000D01*
X165090000Y-98100000D02*
X165090000Y-99590000D01*
X165090000Y-99590000D02*
X165100000Y-99600000D01*
G04 #@! TO.N,VDD*
X166085000Y-105250000D02*
X166035000Y-105200000D01*
X170680000Y-105270000D02*
X169550000Y-105270000D01*
X171000000Y-104950000D02*
X170680000Y-105270000D01*
D24*
X167300000Y-104050000D02*
X167375000Y-104050000D01*
X166850000Y-104500000D02*
X167300000Y-104050000D01*
X166850000Y-105250000D02*
X166850000Y-104500000D01*
D23*
X166850000Y-105250000D02*
X166085000Y-105250000D01*
G04 #@! TO.N,Net-(U1-CP)*
X171132802Y-104018589D02*
X171101391Y-104050000D01*
X171101391Y-104050000D02*
X168925000Y-104050000D01*
D25*
G04 #@! TO.N,GNDPWR*
X172595031Y-106675454D02*
X172595031Y-106679969D01*
D23*
G04 #@! TO.N,Net-(U1-SLEEP_N)*
X165015000Y-103525000D02*
X165015000Y-105200000D01*
X165890000Y-102600000D02*
X164990000Y-103500000D01*
X167200000Y-102600000D02*
X165890000Y-102600000D01*
X164990000Y-103500000D02*
X165015000Y-103525000D01*
G04 #@! TO.N,Net-(U1-GAIN)*
X167825737Y-100674263D02*
X166110000Y-98958526D01*
X166110000Y-98958526D02*
X166110000Y-98100000D01*
G04 #@! TO.N,Net-(U1-FAULT_N)*
X168300000Y-103000000D02*
X168300000Y-102300000D01*
X168300000Y-102300000D02*
X167800000Y-101800000D01*
G04 #@! TD*
G04 #@! TA.AperFunction,Conductor*
G04 #@! TO.N,GNDPWR*
G36*
X168113123Y-94420462D02*
G01*
X168167661Y-94475000D01*
X168187623Y-94549500D01*
X168167661Y-94624000D01*
X168113123Y-94678538D01*
X168074281Y-94694170D01*
X168049775Y-94700209D01*
X167899145Y-94779267D01*
X167771820Y-94892067D01*
X167771817Y-94892071D01*
X167675181Y-95032070D01*
X167614860Y-95191125D01*
X167594355Y-95360000D01*
X167614860Y-95528874D01*
X167675181Y-95687929D01*
X167675182Y-95687930D01*
X167771817Y-95827929D01*
X167820616Y-95871161D01*
X167834512Y-95883472D01*
X167877038Y-95947817D01*
X167881695Y-96024804D01*
X167847234Y-96093806D01*
X167834512Y-96106528D01*
X167771817Y-96162071D01*
X167675181Y-96302070D01*
X167614860Y-96461125D01*
X167594355Y-96630000D01*
X167614860Y-96798874D01*
X167675181Y-96957929D01*
X167723565Y-97028024D01*
X167749458Y-97100676D01*
X167735555Y-97176541D01*
X167685583Y-97235290D01*
X167683726Y-97236551D01*
X167655452Y-97255444D01*
X167655448Y-97255448D01*
X167611132Y-97321769D01*
X167599500Y-97380251D01*
X167599500Y-98419748D01*
X167611132Y-98478230D01*
X167612584Y-98480403D01*
X167655448Y-98544552D01*
X167721769Y-98588867D01*
X167780252Y-98600500D01*
X168819748Y-98600500D01*
X168878231Y-98588867D01*
X168944552Y-98544552D01*
X168988867Y-98478231D01*
X169000500Y-98419748D01*
X169000500Y-97380252D01*
X168988867Y-97321769D01*
X168944552Y-97255448D01*
X168944411Y-97255354D01*
X168916274Y-97236552D01*
X168865422Y-97178563D01*
X168850377Y-97102916D01*
X168875172Y-97029882D01*
X168876317Y-97028195D01*
X168924818Y-96957930D01*
X168985140Y-96798872D01*
X169005645Y-96630000D01*
X168985140Y-96461128D01*
X168924818Y-96302070D01*
X168828183Y-96162071D01*
X168828180Y-96162068D01*
X168828179Y-96162067D01*
X168765488Y-96106528D01*
X168722961Y-96042184D01*
X168718304Y-95965197D01*
X168752765Y-95896195D01*
X168765488Y-95883472D01*
X168787036Y-95864381D01*
X168828183Y-95827929D01*
X168924818Y-95687930D01*
X168985140Y-95528872D01*
X169005645Y-95360000D01*
X168985140Y-95191128D01*
X168924818Y-95032070D01*
X168828183Y-94892071D01*
X168828180Y-94892068D01*
X168828179Y-94892067D01*
X168700853Y-94779267D01*
X168700854Y-94779267D01*
X168550224Y-94700209D01*
X168525719Y-94694170D01*
X168458161Y-94656959D01*
X168418260Y-94590955D01*
X168416707Y-94513842D01*
X168453918Y-94446284D01*
X168519922Y-94406383D01*
X168561377Y-94400500D01*
X178450500Y-94400500D01*
X178525000Y-94420462D01*
X178579538Y-94475000D01*
X178599500Y-94549500D01*
X178599500Y-98325908D01*
X178579538Y-98400408D01*
X178525000Y-98454946D01*
X178450500Y-98474908D01*
X178442385Y-98474687D01*
X177438857Y-98419950D01*
X177433320Y-98419723D01*
X177429747Y-98419626D01*
X177427903Y-98419576D01*
X177424263Y-98419526D01*
X177422310Y-98419500D01*
X177422303Y-98419500D01*
X176624000Y-98419500D01*
X176591856Y-98422030D01*
X176591852Y-98422030D01*
X176561304Y-98426868D01*
X176556710Y-98427648D01*
X176472617Y-98463592D01*
X176423122Y-98499552D01*
X176423119Y-98499554D01*
X176423117Y-98499556D01*
X176404620Y-98515716D01*
X176395373Y-98523796D01*
X176348464Y-98602305D01*
X176329557Y-98660496D01*
X176329556Y-98660499D01*
X176319500Y-98724003D01*
X176319500Y-104046612D01*
X176327462Y-104103255D01*
X176327464Y-104103266D01*
X176342506Y-104155716D01*
X176342509Y-104155725D01*
X176365782Y-104207986D01*
X176365785Y-104207993D01*
X176505699Y-104431855D01*
X177321655Y-105737385D01*
X177331720Y-105750500D01*
X177345631Y-105768627D01*
X177358961Y-105782919D01*
X177371393Y-105796250D01*
X177379668Y-105804628D01*
X177379670Y-105804629D01*
X177458172Y-105851533D01*
X177458176Y-105851535D01*
X177458178Y-105851536D01*
X177516369Y-105870443D01*
X177579871Y-105880500D01*
X177579874Y-105880500D01*
X178415188Y-105880500D01*
X178415200Y-105880500D01*
X178435455Y-105879499D01*
X178435796Y-105879465D01*
X178435831Y-105879470D01*
X178437287Y-105879363D01*
X178437290Y-105879408D01*
X178437295Y-105879408D01*
X178437304Y-105879595D01*
X178437313Y-105879714D01*
X178511901Y-105891978D01*
X178571555Y-105940867D01*
X178598773Y-106013033D01*
X178599500Y-106027738D01*
X178599500Y-108850500D01*
X178579538Y-108925000D01*
X178525000Y-108979538D01*
X178450500Y-108999500D01*
X168979353Y-108999500D01*
X168904853Y-108979538D01*
X168850315Y-108925000D01*
X168830353Y-108850500D01*
X168850315Y-108776000D01*
X168896569Y-108726613D01*
X168944552Y-108694552D01*
X168988867Y-108628231D01*
X169000500Y-108569748D01*
X169000500Y-107530252D01*
X168988867Y-107471769D01*
X168944552Y-107405448D01*
X168944411Y-107405354D01*
X168916274Y-107386552D01*
X168865422Y-107328563D01*
X168850377Y-107252916D01*
X168875172Y-107179882D01*
X168876317Y-107178195D01*
X168924818Y-107107930D01*
X168985140Y-106948872D01*
X169005645Y-106780000D01*
X168985140Y-106611128D01*
X168924818Y-106452070D01*
X168828183Y-106312071D01*
X168828180Y-106312068D01*
X168828179Y-106312067D01*
X168765488Y-106256528D01*
X168722961Y-106192184D01*
X168718304Y-106115197D01*
X168752765Y-106046195D01*
X168765488Y-106033472D01*
X168788559Y-106013033D01*
X168828183Y-105977929D01*
X168924818Y-105837930D01*
X168954171Y-105760530D01*
X168999253Y-105697950D01*
X169069586Y-105666295D01*
X169146323Y-105674047D01*
X169178953Y-105691312D01*
X169181684Y-105693224D01*
X169290513Y-105743972D01*
X169340099Y-105750500D01*
X169759900Y-105750499D01*
X169809487Y-105743972D01*
X169918316Y-105693224D01*
X169997399Y-105614141D01*
X170064194Y-105575577D01*
X170102758Y-105570500D01*
X170719557Y-105570500D01*
X170719562Y-105570500D01*
X170795989Y-105550021D01*
X170864511Y-105510460D01*
X170880830Y-105494141D01*
X170947625Y-105455577D01*
X170986189Y-105450500D01*
X171071959Y-105450500D01*
X171071961Y-105450500D01*
X171210053Y-105409953D01*
X171331128Y-105332143D01*
X171425377Y-105223373D01*
X171485165Y-105092457D01*
X171495406Y-105021228D01*
X171505647Y-104950003D01*
X171505647Y-104949996D01*
X171491992Y-104855028D01*
X171485165Y-104807543D01*
X171425377Y-104676627D01*
X171398216Y-104645281D01*
X171364517Y-104575907D01*
X171370020Y-104498975D01*
X171413252Y-104435102D01*
X171430261Y-104422369D01*
X171463930Y-104400732D01*
X171558179Y-104291962D01*
X171617967Y-104161046D01*
X171634421Y-104046606D01*
X171638449Y-104018592D01*
X171638449Y-104018585D01*
X171617967Y-103876134D01*
X171617967Y-103876132D01*
X171558179Y-103745216D01*
X171463930Y-103636446D01*
X171463929Y-103636445D01*
X171430267Y-103614812D01*
X171342855Y-103558636D01*
X171342852Y-103558635D01*
X171204769Y-103518090D01*
X171204764Y-103518089D01*
X171204763Y-103518089D01*
X171060841Y-103518089D01*
X171060839Y-103518089D01*
X171060834Y-103518090D01*
X170922751Y-103558635D01*
X170801674Y-103636445D01*
X170801671Y-103636448D01*
X170748273Y-103698074D01*
X170684399Y-103741305D01*
X170635666Y-103749500D01*
X169693127Y-103749500D01*
X169618627Y-103729538D01*
X169564089Y-103675000D01*
X169560367Y-103668145D01*
X169498527Y-103546779D01*
X169403220Y-103451472D01*
X169283127Y-103390281D01*
X169266519Y-103387650D01*
X169183488Y-103374500D01*
X168911043Y-103374500D01*
X168836543Y-103354538D01*
X168782005Y-103300000D01*
X168762043Y-103225500D01*
X168775508Y-103163602D01*
X168781263Y-103151000D01*
X168785165Y-103142457D01*
X168800397Y-103036514D01*
X168805647Y-103000003D01*
X168805647Y-102999996D01*
X168785165Y-102857545D01*
X168785165Y-102857543D01*
X168725377Y-102726627D01*
X168636892Y-102624509D01*
X168603192Y-102555133D01*
X168600500Y-102526936D01*
X168600500Y-102260438D01*
X168597187Y-102248074D01*
X168591421Y-102226555D01*
X168591421Y-102226553D01*
X168580023Y-102184016D01*
X168580022Y-102184013D01*
X168580022Y-102184012D01*
X168540460Y-102115489D01*
X168535437Y-102110466D01*
X168526507Y-102101535D01*
X168487944Y-102034740D01*
X168487402Y-101978225D01*
X168484053Y-101977819D01*
X168485139Y-101968874D01*
X168485140Y-101968872D01*
X168505645Y-101800000D01*
X168485140Y-101631128D01*
X168480107Y-101617858D01*
X168424818Y-101472070D01*
X168387645Y-101418216D01*
X168328183Y-101332071D01*
X168328180Y-101332068D01*
X168328179Y-101332067D01*
X168206443Y-101224218D01*
X168163916Y-101159873D01*
X168159259Y-101082886D01*
X168192639Y-101015119D01*
X168251114Y-100947636D01*
X168310902Y-100816720D01*
X168331384Y-100674263D01*
X168331384Y-100674259D01*
X168310902Y-100531808D01*
X168310902Y-100531806D01*
X168251114Y-100400890D01*
X168181838Y-100320941D01*
X172949500Y-100320941D01*
X172949500Y-100320943D01*
X172949500Y-100479057D01*
X172990423Y-100631784D01*
X173069480Y-100768716D01*
X173181284Y-100880520D01*
X173201960Y-100892457D01*
X173208031Y-100895962D01*
X173262569Y-100950500D01*
X173282531Y-101025000D01*
X173262569Y-101099500D01*
X173208031Y-101154038D01*
X173181283Y-101169480D01*
X173069480Y-101281283D01*
X172990424Y-101418214D01*
X172949500Y-101570941D01*
X172949500Y-101570943D01*
X172949500Y-101729057D01*
X172990423Y-101881784D01*
X172990424Y-101881785D01*
X173069480Y-102018716D01*
X173172706Y-102121942D01*
X173211270Y-102188737D01*
X173211270Y-102265865D01*
X173172706Y-102332660D01*
X173134993Y-102360059D01*
X173125973Y-102364655D01*
X173111657Y-102371950D01*
X173021950Y-102461657D01*
X172964354Y-102574694D01*
X172964354Y-102574696D01*
X172949500Y-102668481D01*
X172949500Y-102668482D01*
X172949500Y-102668485D01*
X172949500Y-103131518D01*
X172964354Y-103225304D01*
X173021950Y-103338342D01*
X173111658Y-103428050D01*
X173224696Y-103485646D01*
X173318481Y-103500500D01*
X174281518Y-103500499D01*
X174375304Y-103485646D01*
X174488342Y-103428050D01*
X174578050Y-103338342D01*
X174635646Y-103225304D01*
X174650500Y-103131519D01*
X174650499Y-102668482D01*
X174635646Y-102574696D01*
X174578050Y-102461658D01*
X174488342Y-102371950D01*
X174465007Y-102360060D01*
X174407691Y-102308453D01*
X174383856Y-102235100D01*
X174399892Y-102159657D01*
X174427294Y-102121942D01*
X174530517Y-102018719D01*
X174530520Y-102018716D01*
X174609577Y-101881784D01*
X174650500Y-101729057D01*
X174650500Y-101570943D01*
X174609577Y-101418216D01*
X174530520Y-101281284D01*
X174418716Y-101169480D01*
X174391968Y-101154037D01*
X174337431Y-101099502D01*
X174317468Y-101025002D01*
X174337429Y-100950502D01*
X174391963Y-100895965D01*
X174418716Y-100880520D01*
X174530520Y-100768716D01*
X174609577Y-100631784D01*
X174650500Y-100479057D01*
X174650500Y-100320943D01*
X174609577Y-100168216D01*
X174530520Y-100031284D01*
X174418716Y-99919480D01*
X174281784Y-99840423D01*
X174129057Y-99799500D01*
X173470943Y-99799500D01*
X173318216Y-99840423D01*
X173318214Y-99840423D01*
X173318214Y-99840424D01*
X173181283Y-99919480D01*
X173069480Y-100031283D01*
X172993061Y-100163646D01*
X172990423Y-100168216D01*
X172978072Y-100214310D01*
X172949500Y-100320941D01*
X168181838Y-100320941D01*
X168156865Y-100292120D01*
X168156864Y-100292119D01*
X168119111Y-100267857D01*
X168035790Y-100214310D01*
X168035787Y-100214309D01*
X167897704Y-100173764D01*
X167897699Y-100173763D01*
X167897698Y-100173763D01*
X167811926Y-100173763D01*
X167737426Y-100153801D01*
X167706567Y-100130122D01*
X166454141Y-98877696D01*
X166415577Y-98810901D01*
X166410500Y-98772337D01*
X166410500Y-98655687D01*
X166430462Y-98581187D01*
X166454141Y-98550328D01*
X166480673Y-98523796D01*
X166524065Y-98480404D01*
X166574068Y-98373173D01*
X166580500Y-98324316D01*
X166580500Y-97875684D01*
X166574068Y-97826827D01*
X166524065Y-97719596D01*
X166440404Y-97635935D01*
X166440403Y-97635934D01*
X166333175Y-97585933D01*
X166333173Y-97585932D01*
X166333170Y-97585931D01*
X166333168Y-97585931D01*
X166284318Y-97579500D01*
X166284316Y-97579500D01*
X165935684Y-97579500D01*
X165935681Y-97579500D01*
X165886831Y-97585931D01*
X165886827Y-97585931D01*
X165886827Y-97585932D01*
X165886826Y-97585932D01*
X165886824Y-97585933D01*
X165779596Y-97635934D01*
X165705359Y-97710172D01*
X165638564Y-97748736D01*
X165561436Y-97748736D01*
X165494641Y-97710172D01*
X165420403Y-97635934D01*
X165313175Y-97585933D01*
X165313173Y-97585932D01*
X165313170Y-97585931D01*
X165313168Y-97585931D01*
X165264318Y-97579500D01*
X165264316Y-97579500D01*
X164915684Y-97579500D01*
X164915681Y-97579500D01*
X164866831Y-97585931D01*
X164866827Y-97585931D01*
X164866827Y-97585932D01*
X164866826Y-97585932D01*
X164866824Y-97585933D01*
X164759596Y-97635934D01*
X164675934Y-97719596D01*
X164625933Y-97826824D01*
X164625931Y-97826831D01*
X164619500Y-97875681D01*
X164619500Y-98324318D01*
X164625931Y-98373168D01*
X164625933Y-98373175D01*
X164675934Y-98480403D01*
X164745859Y-98550328D01*
X164784423Y-98617123D01*
X164789500Y-98655687D01*
X164789500Y-98881771D01*
X164769538Y-98956271D01*
X164715000Y-99010809D01*
X164709750Y-99013701D01*
X164699147Y-99019266D01*
X164699146Y-99019267D01*
X164571820Y-99132067D01*
X164571817Y-99132071D01*
X164475181Y-99272070D01*
X164414860Y-99431125D01*
X164394355Y-99600000D01*
X164414860Y-99768874D01*
X164475181Y-99927929D01*
X164475182Y-99927930D01*
X164571817Y-100067929D01*
X164571819Y-100067930D01*
X164571820Y-100067932D01*
X164699143Y-100180730D01*
X164699145Y-100180732D01*
X164699146Y-100180732D01*
X164699148Y-100180734D01*
X164719745Y-100191544D01*
X164776434Y-100243841D01*
X164799379Y-100317477D01*
X164799500Y-100323476D01*
X164799500Y-100389562D01*
X164819978Y-100465987D01*
X164824285Y-100473447D01*
X164824286Y-100473448D01*
X164824286Y-100473449D01*
X164859539Y-100534511D01*
X164864642Y-100541161D01*
X164894154Y-100612420D01*
X164893995Y-100639344D01*
X164894353Y-100639344D01*
X164894353Y-100650003D01*
X164914834Y-100792454D01*
X164935555Y-100837828D01*
X164948344Y-100913888D01*
X164921390Y-100986153D01*
X164861915Y-101035260D01*
X164852861Y-101039039D01*
X164849780Y-101040207D01*
X164699145Y-101119267D01*
X164571820Y-101232067D01*
X164571817Y-101232071D01*
X164475181Y-101372070D01*
X164414860Y-101531125D01*
X164394355Y-101700000D01*
X164414860Y-101868874D01*
X164475181Y-102027929D01*
X164480107Y-102035065D01*
X164571817Y-102167929D01*
X164571819Y-102167930D01*
X164571820Y-102167932D01*
X164636237Y-102225000D01*
X164676238Y-102260438D01*
X164699146Y-102280732D01*
X164699148Y-102280734D01*
X164849775Y-102359790D01*
X165014944Y-102400500D01*
X165185056Y-102400500D01*
X165302406Y-102371576D01*
X165379519Y-102373129D01*
X165445523Y-102413030D01*
X165482734Y-102480588D01*
X165481181Y-102557701D01*
X165443423Y-102621605D01*
X165129170Y-102935859D01*
X165062375Y-102974423D01*
X165023811Y-102979500D01*
X164815681Y-102979500D01*
X164766831Y-102985931D01*
X164766827Y-102985931D01*
X164766827Y-102985932D01*
X164766826Y-102985932D01*
X164766824Y-102985933D01*
X164659596Y-103035934D01*
X164575934Y-103119596D01*
X164525933Y-103226824D01*
X164525931Y-103226831D01*
X164519500Y-103275681D01*
X164519500Y-103724318D01*
X164525931Y-103773168D01*
X164525933Y-103773175D01*
X164575934Y-103880403D01*
X164668814Y-103973283D01*
X164666068Y-103976028D01*
X164700521Y-104017062D01*
X164714500Y-104080073D01*
X164714500Y-104644313D01*
X164694538Y-104718813D01*
X164670859Y-104749672D01*
X164600934Y-104819596D01*
X164550933Y-104926824D01*
X164550931Y-104926831D01*
X164544500Y-104975681D01*
X164544500Y-105424318D01*
X164547000Y-105443310D01*
X164550932Y-105473173D01*
X164553931Y-105479605D01*
X164600934Y-105580403D01*
X164600935Y-105580404D01*
X164684596Y-105664065D01*
X164791827Y-105714068D01*
X164840684Y-105720500D01*
X165189316Y-105720500D01*
X165238173Y-105714068D01*
X165345404Y-105664065D01*
X165419641Y-105589828D01*
X165486436Y-105551264D01*
X165563564Y-105551264D01*
X165630359Y-105589828D01*
X165704596Y-105664065D01*
X165811827Y-105714068D01*
X165860684Y-105720500D01*
X166209316Y-105720500D01*
X166258173Y-105714068D01*
X166365404Y-105664065D01*
X166365406Y-105664062D01*
X166376081Y-105656589D01*
X166378287Y-105659739D01*
X166424804Y-105632866D01*
X166501932Y-105632846D01*
X166537906Y-105647740D01*
X166542685Y-105650499D01*
X166542686Y-105650500D01*
X166586362Y-105675716D01*
X166592393Y-105679391D01*
X166639947Y-105709953D01*
X166639950Y-105709953D01*
X166641728Y-105710765D01*
X166651859Y-105714340D01*
X166656807Y-105716389D01*
X166656810Y-105716389D01*
X166656814Y-105716392D01*
X166713078Y-105731467D01*
X166716311Y-105732374D01*
X166778039Y-105750500D01*
X166778040Y-105750500D01*
X166921960Y-105750500D01*
X166921961Y-105750500D01*
X166921963Y-105750499D01*
X166921965Y-105750499D01*
X166944192Y-105743972D01*
X166983636Y-105732389D01*
X166986960Y-105731456D01*
X167043186Y-105716392D01*
X167043191Y-105716388D01*
X167048121Y-105714347D01*
X167058277Y-105710764D01*
X167060050Y-105709954D01*
X167060050Y-105709953D01*
X167060053Y-105709953D01*
X167107592Y-105679400D01*
X167113627Y-105675721D01*
X167157314Y-105650500D01*
X167157317Y-105650497D01*
X167165066Y-105644552D01*
X167165182Y-105644703D01*
X167179345Y-105633288D01*
X167181128Y-105632143D01*
X167213077Y-105595269D01*
X167220284Y-105587528D01*
X167250500Y-105557314D01*
X167252435Y-105553961D01*
X167268871Y-105530879D01*
X167275377Y-105523373D01*
X167292424Y-105486042D01*
X167298908Y-105473467D01*
X167312169Y-105450500D01*
X167316321Y-105443310D01*
X167370861Y-105388775D01*
X167445362Y-105368816D01*
X167519861Y-105388782D01*
X167574396Y-105443322D01*
X167589971Y-105501453D01*
X167593269Y-105501053D01*
X167594355Y-105509998D01*
X167594355Y-105510000D01*
X167599694Y-105553969D01*
X167614860Y-105678874D01*
X167675181Y-105837929D01*
X167697624Y-105870443D01*
X167771817Y-105977929D01*
X167820616Y-106021161D01*
X167834512Y-106033472D01*
X167877038Y-106097817D01*
X167881695Y-106174804D01*
X167847234Y-106243806D01*
X167834512Y-106256528D01*
X167771817Y-106312071D01*
X167675181Y-106452070D01*
X167614860Y-106611125D01*
X167594355Y-106780000D01*
X167614860Y-106948874D01*
X167675181Y-107107929D01*
X167723565Y-107178024D01*
X167749458Y-107250676D01*
X167735555Y-107326541D01*
X167685583Y-107385290D01*
X167683726Y-107386551D01*
X167655452Y-107405444D01*
X167655448Y-107405448D01*
X167611132Y-107471769D01*
X167599500Y-107530251D01*
X167599500Y-108569748D01*
X167611132Y-108628230D01*
X167611133Y-108628231D01*
X167655448Y-108694552D01*
X167703429Y-108726612D01*
X167754282Y-108784601D01*
X167769328Y-108860247D01*
X167744535Y-108933282D01*
X167686546Y-108984135D01*
X167620647Y-108999500D01*
X164149500Y-108999500D01*
X164075000Y-108979538D01*
X164020462Y-108925000D01*
X164000500Y-108850500D01*
X164000500Y-94549500D01*
X164020462Y-94475000D01*
X164075000Y-94420462D01*
X164149500Y-94400500D01*
X168038623Y-94400500D01*
X168113123Y-94420462D01*
G37*
G04 #@! TD.AperFunction*
G04 #@! TD*
G04 #@! TA.AperFunction,Conductor*
G04 #@! TO.N,VDD*
G36*
X177427695Y-98625147D02*
G01*
X178505894Y-98683957D01*
X178562967Y-98706005D01*
X178596181Y-98757391D01*
X178599500Y-98782810D01*
X178599500Y-105558940D01*
X178580593Y-105617131D01*
X178531093Y-105653095D01*
X178519915Y-105656017D01*
X178434615Y-105673077D01*
X178415200Y-105675000D01*
X177579871Y-105675000D01*
X177521680Y-105656093D01*
X177495919Y-105628470D01*
X176540048Y-104099076D01*
X176525000Y-104046606D01*
X176525000Y-98724000D01*
X176543907Y-98665809D01*
X176593407Y-98629845D01*
X176624000Y-98625000D01*
X177422303Y-98625000D01*
X177427695Y-98625147D01*
G37*
G04 #@! TD.AperFunction*
G04 #@! TD*
M02*
