M48
; DRILL file {KiCad 8.0.7-8.0.7-0~ubuntu24.04.1} date 2024-12-30T22:58:19-0700
; FORMAT={-:-/ absolute / metric / decimal}
; #@! TF.CreationDate,2024-12-30T22:58:19-07:00
; #@! TF.GenerationSoftware,Kicad,Pcbnew,8.0.7-8.0.7-0~ubuntu24.04.1
; #@! TF.FileFunction,Plated,1,4,PTH
FMAT,2
METRIC
; #@! TA.AperFunction,Plated,PTH,ViaDrill
T1C0.300
; #@! TA.AperFunction,Plated,PTH,ComponentDrill
T2C0.300
; #@! TA.AperFunction,Plated,PTH,ComponentDrill
T3C0.500
; #@! TA.AperFunction,Plated,PTH,ComponentDrill
T4C0.650
%
G90
G05
T1
X164.9Y-106.4
X164.9Y-107.2
X164.9Y-108.0
X165.3Y-94.9
X165.3Y-95.7
X165.3Y-96.5
X165.4Y-100.65
X165.7Y-106.4
X165.7Y-107.2
X165.7Y-108.0
X165.875Y-102.0
X165.9Y-104.3
X166.1Y-94.9
X166.1Y-95.7
X166.1Y-96.5
X166.5Y-106.4
X166.5Y-107.2
X166.5Y-108.0
X166.78Y-100.75
X166.85Y-105.25
X166.9Y-94.9
X166.9Y-95.7
X166.9Y-96.5
X167.2Y-102.6
X167.826Y-100.674
X168.3Y-103.0
X169.6Y-108.3
X169.7Y-107.3
X170.3Y-106.75
X170.3Y-107.9
X170.3Y-108.7
X171.0Y-104.95
X171.1Y-106.2
X171.133Y-104.019
X171.15Y-107.1
X171.15Y-107.9
X171.15Y-108.7
X172.0Y-108.7
X172.2Y-97.8
X172.2Y-98.6
X172.2Y-99.4
X172.8Y-108.7
X173.0Y-97.8
X173.0Y-98.6
X173.0Y-99.4
X173.6Y-108.7
X173.8Y-97.8
X173.8Y-98.6
X173.8Y-99.4
X176.125Y-105.2
X177.3Y-104.4
X177.5Y-99.8
X177.5Y-101.4
X177.5Y-102.9
X177.9Y-99.1
X177.9Y-100.6
X177.9Y-102.1
X177.9Y-103.6
X178.3Y-99.8
X178.3Y-101.4
X178.3Y-102.9
X178.3Y-104.3
T2
X169.435Y-100.73
X169.435Y-102.13
X170.135Y-101.405
X170.835Y-100.73
X170.835Y-102.13
T3
X173.8Y-100.4
X173.8Y-101.65
X173.8Y-102.9
T4
X168.3Y-95.36
X168.3Y-96.63
X168.3Y-97.9
X168.3Y-105.51
X168.3Y-106.78
X168.3Y-108.05
M30
