G04 #@! TF.GenerationSoftware,KiCad,Pcbnew,8.0.7-8.0.7-0~ubuntu24.04.1*
G04 #@! TF.CreationDate,2024-12-30T22:58:19-07:00*
G04 #@! TF.ProjectId,DRV8311 Motor Driver,44525638-3331-4312-904d-6f746f722044,V1*
G04 #@! TF.SameCoordinates,Original*
G04 #@! TF.FileFunction,Copper,L2,Inr*
G04 #@! TF.FilePolarity,Positive*
%FSLAX46Y46*%
G04 Gerber Fmt 4.6, Leading zero omitted, Abs format (unit mm)*
G04 Created by KiCad (PCBNEW 8.0.7-8.0.7-0~ubuntu24.04.1) date 2024-12-30 22:58:19*
%MOMM*%
%LPD*%
G01*
G04 APERTURE LIST*
G04 Aperture macros list*
%AMRoundRect*
0 Rectangle with rounded corners*
0 $1 Rounding radius*
0 $2 $3 $4 $5 $6 $7 $8 $9 X,Y pos of 4 corners*
0 Add a 4 corners polygon primitive as box body*
4,1,4,$2,$3,$4,$5,$6,$7,$8,$9,$2,$3,0*
0 Add four circle primitives for the rounded corners*
1,1,$1+$1,$2,$3*
1,1,$1+$1,$4,$5*
1,1,$1+$1,$6,$7*
1,1,$1+$1,$8,$9*
0 Add four rect primitives between the rounded corners*
20,1,$1+$1,$2,$3,$4,$5,0*
20,1,$1+$1,$4,$5,$6,$7,0*
20,1,$1+$1,$6,$7,$8,$9,0*
20,1,$1+$1,$8,$9,$2,$3,0*%
G04 Aperture macros list end*
G04 #@! TA.AperFunction,ComponentPad*
%ADD10RoundRect,0.200000X0.450000X-0.200000X0.450000X0.200000X-0.450000X0.200000X-0.450000X-0.200000X0*%
G04 #@! TD*
G04 #@! TA.AperFunction,ComponentPad*
%ADD11O,1.300000X0.800000*%
G04 #@! TD*
G04 #@! TA.AperFunction,ComponentPad*
%ADD12C,0.600000*%
G04 #@! TD*
G04 #@! TA.AperFunction,ComponentPad*
%ADD13R,1.000000X1.000000*%
G04 #@! TD*
G04 #@! TA.AperFunction,ComponentPad*
%ADD14O,1.000000X1.000000*%
G04 #@! TD*
G04 #@! TA.AperFunction,ViaPad*
%ADD15C,0.600000*%
G04 #@! TD*
G04 APERTURE END LIST*
D10*
G04 #@! TO.N,Net-(J4-Pin_1)*
G04 #@! TO.C,J4*
X173800000Y-102900000D03*
D11*
G04 #@! TO.N,Net-(J4-Pin_2)*
X173800000Y-101650000D03*
G04 #@! TO.N,Net-(J4-Pin_3)*
X173800000Y-100400000D03*
G04 #@! TD*
D12*
G04 #@! TO.N,GNDPWR*
G04 #@! TO.C,U1*
X169434998Y-102130000D03*
X170835000Y-102130000D03*
X170134999Y-101404599D03*
X169434998Y-100729998D03*
X170835000Y-100729998D03*
G04 #@! TD*
D13*
G04 #@! TO.N,Net-(J2-Pin_1)*
G04 #@! TO.C,J2*
X168300000Y-97900000D03*
D14*
G04 #@! TO.N,Net-(J2-Pin_2)*
X168300000Y-96630000D03*
G04 #@! TO.N,Net-(J2-Pin_3)*
X168300000Y-95360000D03*
G04 #@! TD*
D13*
G04 #@! TO.N,Net-(J1-Pin_1)*
G04 #@! TO.C,J1*
X168300000Y-108050000D03*
D14*
G04 #@! TO.N,Net-(J1-Pin_2)*
X168300000Y-106780000D03*
G04 #@! TO.N,Net-(J1-Pin_3)*
X168300000Y-105510000D03*
G04 #@! TD*
D15*
G04 #@! TO.N,+3.3V*
X165874999Y-102000001D03*
G04 #@! TO.N,GND*
X165400000Y-100650000D03*
X165900000Y-104300000D03*
G04 #@! TO.N,VDD*
X178300000Y-104300000D03*
X177500000Y-102900000D03*
X177900000Y-103600000D03*
X177900000Y-102100000D03*
X177300000Y-104400000D03*
X178300000Y-101400000D03*
X177900000Y-100600000D03*
X171000000Y-104950000D03*
X177900000Y-99100000D03*
X178300000Y-99800000D03*
X177500000Y-99800000D03*
X166850000Y-105250000D03*
X178300000Y-102900000D03*
X177500000Y-101400000D03*
G04 #@! TO.N,Net-(U1-CP)*
X171132802Y-104018589D03*
G04 #@! TO.N,GNDPWR*
X165700000Y-107200000D03*
X171150000Y-107900000D03*
X171150000Y-108700000D03*
X166500000Y-108000000D03*
X165700000Y-106400000D03*
X173800000Y-97800000D03*
X170300000Y-108700000D03*
X165700000Y-108000000D03*
X166100000Y-95700000D03*
X172800000Y-108700000D03*
X164900000Y-106400000D03*
X172000000Y-108700000D03*
X166900000Y-96500000D03*
X170300000Y-107900000D03*
X164900000Y-107200000D03*
X173600000Y-108700000D03*
X165300000Y-96500000D03*
X171100000Y-106200000D03*
X173000000Y-99400000D03*
X173000000Y-98600000D03*
X166500000Y-107200000D03*
X166900000Y-94900000D03*
X173000000Y-97800000D03*
X169600000Y-108300000D03*
X173800000Y-98600000D03*
X165300000Y-95700000D03*
X166900000Y-95700000D03*
X172200000Y-98600000D03*
X171150000Y-107100000D03*
X166500000Y-106400000D03*
X173800000Y-99400000D03*
X169700000Y-107300000D03*
X165300000Y-94900000D03*
X172200000Y-99400000D03*
X176125000Y-105200000D03*
X172200000Y-97800000D03*
X170300000Y-106750000D03*
X166100000Y-94900000D03*
X164900000Y-108000000D03*
X166100000Y-96500000D03*
G04 #@! TO.N,Net-(U1-SLEEP_N)*
X167200000Y-102600000D03*
G04 #@! TO.N,Net-(U1-GAIN)*
X167825737Y-100674263D03*
G04 #@! TO.N,unconnected-(U1-SLEW-Pad22)*
X166780000Y-100750000D03*
G04 #@! TO.N,Net-(U1-FAULT_N)*
X168300000Y-103000000D03*
G04 #@! TD*
G04 #@! TA.AperFunction,Conductor*
G04 #@! TO.N,VDD*
G36*
X164911974Y-94419407D02*
G01*
X164947938Y-94468907D01*
X164947938Y-94530093D01*
X164928602Y-94564331D01*
X164874623Y-94626626D01*
X164814834Y-94757543D01*
X164794353Y-94899997D01*
X164794353Y-94900002D01*
X164814834Y-95042456D01*
X164874623Y-95173373D01*
X164928169Y-95235170D01*
X164951986Y-95291529D01*
X164938127Y-95351124D01*
X164928169Y-95364830D01*
X164874623Y-95426626D01*
X164814834Y-95557543D01*
X164794353Y-95699997D01*
X164794353Y-95700002D01*
X164814834Y-95842456D01*
X164874623Y-95973373D01*
X164928169Y-96035170D01*
X164951986Y-96091529D01*
X164938127Y-96151124D01*
X164928169Y-96164830D01*
X164874623Y-96226626D01*
X164814834Y-96357543D01*
X164794353Y-96499997D01*
X164794353Y-96500002D01*
X164814834Y-96642456D01*
X164874622Y-96773371D01*
X164874623Y-96773373D01*
X164965840Y-96878644D01*
X164968873Y-96882144D01*
X165086799Y-96957930D01*
X165089947Y-96959953D01*
X165196403Y-96991211D01*
X165228035Y-97000499D01*
X165228036Y-97000499D01*
X165228039Y-97000500D01*
X165228041Y-97000500D01*
X165371959Y-97000500D01*
X165371961Y-97000500D01*
X165510053Y-96959953D01*
X165631128Y-96882143D01*
X165631136Y-96882133D01*
X165635165Y-96878644D01*
X165691523Y-96854824D01*
X165751119Y-96868679D01*
X165764835Y-96878644D01*
X165768866Y-96882137D01*
X165768872Y-96882143D01*
X165857001Y-96938780D01*
X165886797Y-96957929D01*
X165889947Y-96959953D01*
X165996403Y-96991211D01*
X166028035Y-97000499D01*
X166028036Y-97000499D01*
X166028039Y-97000500D01*
X166028041Y-97000500D01*
X166171959Y-97000500D01*
X166171961Y-97000500D01*
X166310053Y-96959953D01*
X166431128Y-96882143D01*
X166431136Y-96882133D01*
X166435165Y-96878644D01*
X166491523Y-96854824D01*
X166551119Y-96868679D01*
X166564835Y-96878644D01*
X166568866Y-96882137D01*
X166568872Y-96882143D01*
X166657001Y-96938780D01*
X166686797Y-96957929D01*
X166689947Y-96959953D01*
X166796403Y-96991211D01*
X166828035Y-97000499D01*
X166828036Y-97000499D01*
X166828039Y-97000500D01*
X166828041Y-97000500D01*
X166971959Y-97000500D01*
X166971961Y-97000500D01*
X167110053Y-96959953D01*
X167231128Y-96882143D01*
X167325377Y-96773373D01*
X167385165Y-96642457D01*
X167405647Y-96500000D01*
X167400058Y-96461129D01*
X167385165Y-96357543D01*
X167325377Y-96226628D01*
X167325377Y-96226627D01*
X167271828Y-96164828D01*
X167248012Y-96108473D01*
X167261870Y-96048877D01*
X167271820Y-96035180D01*
X167325377Y-95973373D01*
X167385165Y-95842457D01*
X167405647Y-95700000D01*
X167403911Y-95687929D01*
X167385165Y-95557543D01*
X167325377Y-95426628D01*
X167325377Y-95426627D01*
X167271828Y-95364828D01*
X167269788Y-95360000D01*
X167594355Y-95360000D01*
X167614860Y-95528872D01*
X167675182Y-95687930D01*
X167771817Y-95827929D01*
X167771820Y-95827931D01*
X167771823Y-95827935D01*
X167876756Y-95920898D01*
X167907775Y-95973638D01*
X167901869Y-96034537D01*
X167876756Y-96069102D01*
X167771823Y-96162064D01*
X167771816Y-96162072D01*
X167675182Y-96302070D01*
X167614860Y-96461129D01*
X167594355Y-96629998D01*
X167594355Y-96630001D01*
X167601190Y-96686290D01*
X167614860Y-96798872D01*
X167675182Y-96957930D01*
X167752401Y-97069801D01*
X167769897Y-97128430D01*
X167749590Y-97186147D01*
X167725929Y-97208353D01*
X167655449Y-97255447D01*
X167655445Y-97255451D01*
X167611134Y-97321766D01*
X167611132Y-97321772D01*
X167599501Y-97380241D01*
X167599500Y-97380253D01*
X167599500Y-98419746D01*
X167599501Y-98419758D01*
X167611132Y-98478227D01*
X167611133Y-98478231D01*
X167655448Y-98544552D01*
X167721769Y-98588867D01*
X167766231Y-98597711D01*
X167780241Y-98600498D01*
X167780246Y-98600498D01*
X167780252Y-98600500D01*
X167780253Y-98600500D01*
X168819747Y-98600500D01*
X168819748Y-98600500D01*
X168878231Y-98588867D01*
X168944552Y-98544552D01*
X168988867Y-98478231D01*
X169000500Y-98419748D01*
X169000500Y-97799997D01*
X171694353Y-97799997D01*
X171694353Y-97800002D01*
X171714834Y-97942456D01*
X171774623Y-98073373D01*
X171828169Y-98135170D01*
X171851986Y-98191529D01*
X171838127Y-98251124D01*
X171828169Y-98264830D01*
X171774623Y-98326626D01*
X171714834Y-98457543D01*
X171694353Y-98599997D01*
X171694353Y-98600002D01*
X171714834Y-98742456D01*
X171774623Y-98873373D01*
X171828169Y-98935170D01*
X171851986Y-98991529D01*
X171838127Y-99051124D01*
X171828169Y-99064830D01*
X171774623Y-99126626D01*
X171714834Y-99257543D01*
X171694353Y-99399997D01*
X171694353Y-99400002D01*
X171714834Y-99542456D01*
X171774622Y-99673371D01*
X171774623Y-99673373D01*
X171865840Y-99778644D01*
X171868873Y-99782144D01*
X171989942Y-99859950D01*
X171989947Y-99859953D01*
X172096403Y-99891211D01*
X172128035Y-99900499D01*
X172128036Y-99900499D01*
X172128039Y-99900500D01*
X172128041Y-99900500D01*
X172271959Y-99900500D01*
X172271961Y-99900500D01*
X172410053Y-99859953D01*
X172531128Y-99782143D01*
X172531136Y-99782133D01*
X172535165Y-99778644D01*
X172591523Y-99754824D01*
X172651119Y-99768679D01*
X172664835Y-99778644D01*
X172668866Y-99782137D01*
X172668872Y-99782143D01*
X172789947Y-99859953D01*
X172896403Y-99891211D01*
X172928035Y-99900499D01*
X172928036Y-99900499D01*
X172928039Y-99900500D01*
X172928041Y-99900500D01*
X172973516Y-99900500D01*
X173031707Y-99919407D01*
X173067671Y-99968907D01*
X173067671Y-100030093D01*
X173059257Y-100048990D01*
X172990423Y-100168216D01*
X172949500Y-100320943D01*
X172949500Y-100479057D01*
X172990423Y-100631784D01*
X173069480Y-100768716D01*
X173181284Y-100880520D01*
X173283033Y-100939264D01*
X173323973Y-100984733D01*
X173330369Y-101045583D01*
X173299776Y-101098571D01*
X173283036Y-101110733D01*
X173181284Y-101169480D01*
X173069480Y-101281284D01*
X172990423Y-101418216D01*
X172949500Y-101570943D01*
X172949500Y-101729057D01*
X172990423Y-101881784D01*
X173069480Y-102018716D01*
X173181284Y-102130520D01*
X173212869Y-102148755D01*
X173253809Y-102194224D01*
X173260205Y-102255074D01*
X173229612Y-102308062D01*
X173208314Y-102322700D01*
X173111659Y-102371949D01*
X173021949Y-102461659D01*
X172964354Y-102574695D01*
X172949500Y-102668477D01*
X172949500Y-103131520D01*
X172949501Y-103131523D01*
X172964352Y-103225299D01*
X172964354Y-103225304D01*
X173021950Y-103338342D01*
X173111658Y-103428050D01*
X173224696Y-103485646D01*
X173318481Y-103500500D01*
X174281518Y-103500499D01*
X174281521Y-103500499D01*
X174281522Y-103500498D01*
X174328411Y-103493072D01*
X174375299Y-103485647D01*
X174375299Y-103485646D01*
X174375304Y-103485646D01*
X174488342Y-103428050D01*
X174578050Y-103338342D01*
X174635646Y-103225304D01*
X174650500Y-103131519D01*
X174650499Y-102668482D01*
X174642482Y-102617858D01*
X174635647Y-102574700D01*
X174635646Y-102574698D01*
X174635646Y-102574696D01*
X174578050Y-102461658D01*
X174488342Y-102371950D01*
X174485236Y-102370367D01*
X174391685Y-102322700D01*
X174348421Y-102279435D01*
X174338850Y-102219003D01*
X174366628Y-102164487D01*
X174387127Y-102148757D01*
X174418716Y-102130520D01*
X174530520Y-102018716D01*
X174609577Y-101881784D01*
X174650500Y-101729057D01*
X174650500Y-101570943D01*
X174609577Y-101418216D01*
X174530520Y-101281284D01*
X174418716Y-101169480D01*
X174316966Y-101110735D01*
X174276026Y-101065268D01*
X174269630Y-101004417D01*
X174300223Y-100951429D01*
X174316963Y-100939266D01*
X174418716Y-100880520D01*
X174530520Y-100768716D01*
X174609577Y-100631784D01*
X174650500Y-100479057D01*
X174650500Y-100320943D01*
X174609577Y-100168216D01*
X174530520Y-100031284D01*
X174418716Y-99919480D01*
X174281784Y-99840423D01*
X174281783Y-99840422D01*
X174281780Y-99840421D01*
X174271295Y-99837612D01*
X174219981Y-99804288D01*
X174198055Y-99747166D01*
X174213891Y-99688066D01*
X174222101Y-99677154D01*
X174222712Y-99676448D01*
X174225377Y-99673373D01*
X174285165Y-99542457D01*
X174305647Y-99400000D01*
X174285165Y-99257543D01*
X174225377Y-99126627D01*
X174171828Y-99064828D01*
X174148012Y-99008473D01*
X174161870Y-98948877D01*
X174171820Y-98935180D01*
X174225377Y-98873373D01*
X174285165Y-98742457D01*
X174305575Y-98600500D01*
X174305647Y-98600002D01*
X174305647Y-98599997D01*
X174285165Y-98457543D01*
X174225377Y-98326628D01*
X174225377Y-98326627D01*
X174171828Y-98264828D01*
X174148012Y-98208473D01*
X174161870Y-98148877D01*
X174171820Y-98135180D01*
X174225377Y-98073373D01*
X174285165Y-97942457D01*
X174305647Y-97800000D01*
X174285165Y-97657543D01*
X174225377Y-97526627D01*
X174131128Y-97417857D01*
X174131127Y-97417856D01*
X174131126Y-97417855D01*
X174010057Y-97340049D01*
X174010054Y-97340047D01*
X174010053Y-97340047D01*
X174010050Y-97340046D01*
X173871964Y-97299500D01*
X173871961Y-97299500D01*
X173728039Y-97299500D01*
X173728035Y-97299500D01*
X173589949Y-97340046D01*
X173589942Y-97340049D01*
X173468872Y-97417856D01*
X173464830Y-97421359D01*
X173408471Y-97445176D01*
X173348876Y-97431317D01*
X173335170Y-97421359D01*
X173331127Y-97417856D01*
X173210057Y-97340049D01*
X173210054Y-97340047D01*
X173210053Y-97340047D01*
X173210050Y-97340046D01*
X173071964Y-97299500D01*
X173071961Y-97299500D01*
X172928039Y-97299500D01*
X172928035Y-97299500D01*
X172789949Y-97340046D01*
X172789942Y-97340049D01*
X172668872Y-97417856D01*
X172664830Y-97421359D01*
X172608471Y-97445176D01*
X172548876Y-97431317D01*
X172535170Y-97421359D01*
X172531127Y-97417856D01*
X172410057Y-97340049D01*
X172410054Y-97340047D01*
X172410053Y-97340047D01*
X172410050Y-97340046D01*
X172271964Y-97299500D01*
X172271961Y-97299500D01*
X172128039Y-97299500D01*
X172128035Y-97299500D01*
X171989949Y-97340046D01*
X171989942Y-97340049D01*
X171868873Y-97417855D01*
X171774622Y-97526628D01*
X171714834Y-97657543D01*
X171694353Y-97799997D01*
X169000500Y-97799997D01*
X169000500Y-97380252D01*
X168988867Y-97321769D01*
X168944552Y-97255448D01*
X168878231Y-97211133D01*
X168874071Y-97208353D01*
X168836192Y-97160303D01*
X168833790Y-97099164D01*
X168847594Y-97069807D01*
X168924818Y-96957930D01*
X168985140Y-96798872D01*
X169005645Y-96630000D01*
X168985140Y-96461128D01*
X168924818Y-96302070D01*
X168828183Y-96162071D01*
X168815826Y-96151124D01*
X168788764Y-96127149D01*
X168723242Y-96069102D01*
X168692224Y-96016363D01*
X168698129Y-95955463D01*
X168723243Y-95920897D01*
X168828183Y-95827929D01*
X168924818Y-95687930D01*
X168985140Y-95528872D01*
X169005645Y-95360000D01*
X168985140Y-95191128D01*
X168924818Y-95032070D01*
X168828183Y-94892071D01*
X168700852Y-94779266D01*
X168550225Y-94700210D01*
X168550224Y-94700209D01*
X168550223Y-94700209D01*
X168385058Y-94659500D01*
X168385056Y-94659500D01*
X168214944Y-94659500D01*
X168214941Y-94659500D01*
X168049776Y-94700209D01*
X167899146Y-94779267D01*
X167771818Y-94892069D01*
X167771816Y-94892072D01*
X167675182Y-95032070D01*
X167621595Y-95173371D01*
X167614860Y-95191129D01*
X167600612Y-95308473D01*
X167594355Y-95360000D01*
X167269788Y-95360000D01*
X167248012Y-95308473D01*
X167261870Y-95248877D01*
X167271820Y-95235180D01*
X167325377Y-95173373D01*
X167385165Y-95042457D01*
X167405647Y-94900000D01*
X167404507Y-94892072D01*
X167385165Y-94757543D01*
X167325377Y-94626627D01*
X167271398Y-94564331D01*
X167247580Y-94507972D01*
X167261439Y-94448376D01*
X167307680Y-94408309D01*
X167346217Y-94400500D01*
X178500500Y-94400500D01*
X178558691Y-94419407D01*
X178594655Y-94468907D01*
X178599500Y-94499500D01*
X178599500Y-108900500D01*
X178580593Y-108958691D01*
X178531093Y-108994655D01*
X178500500Y-108999500D01*
X174167493Y-108999500D01*
X174109302Y-108980593D01*
X174073338Y-108931093D01*
X174073338Y-108869907D01*
X174077440Y-108859373D01*
X174085165Y-108842456D01*
X174105647Y-108700002D01*
X174105647Y-108699997D01*
X174085165Y-108557543D01*
X174082950Y-108552692D01*
X174025377Y-108426627D01*
X173931128Y-108317857D01*
X173931127Y-108317856D01*
X173931126Y-108317855D01*
X173810057Y-108240049D01*
X173810054Y-108240047D01*
X173810053Y-108240047D01*
X173810050Y-108240046D01*
X173671964Y-108199500D01*
X173671961Y-108199500D01*
X173528039Y-108199500D01*
X173528035Y-108199500D01*
X173389949Y-108240046D01*
X173389942Y-108240049D01*
X173268872Y-108317856D01*
X173264830Y-108321359D01*
X173208471Y-108345176D01*
X173148876Y-108331317D01*
X173135170Y-108321359D01*
X173131127Y-108317856D01*
X173010057Y-108240049D01*
X173010054Y-108240047D01*
X173010053Y-108240047D01*
X173010050Y-108240046D01*
X172871964Y-108199500D01*
X172871961Y-108199500D01*
X172728039Y-108199500D01*
X172728035Y-108199500D01*
X172589949Y-108240046D01*
X172589942Y-108240049D01*
X172468872Y-108317856D01*
X172464830Y-108321359D01*
X172408471Y-108345176D01*
X172348876Y-108331317D01*
X172335170Y-108321359D01*
X172331127Y-108317856D01*
X172210057Y-108240049D01*
X172210054Y-108240047D01*
X172210053Y-108240047D01*
X172210050Y-108240046D01*
X172071964Y-108199500D01*
X172071961Y-108199500D01*
X171928039Y-108199500D01*
X171928035Y-108199500D01*
X171789949Y-108240046D01*
X171789943Y-108240048D01*
X171726781Y-108280640D01*
X171667606Y-108296193D01*
X171610590Y-108273994D01*
X171577511Y-108222521D01*
X171581005Y-108161436D01*
X171583194Y-108156255D01*
X171635165Y-108042457D01*
X171646712Y-107962146D01*
X171655647Y-107900002D01*
X171655647Y-107899997D01*
X171635165Y-107757543D01*
X171621046Y-107726627D01*
X171575377Y-107626627D01*
X171521828Y-107564828D01*
X171498012Y-107508473D01*
X171511870Y-107448877D01*
X171521820Y-107435180D01*
X171575377Y-107373373D01*
X171635165Y-107242457D01*
X171651026Y-107132143D01*
X171655647Y-107100002D01*
X171655647Y-107099997D01*
X171635165Y-106957543D01*
X171621046Y-106926627D01*
X171575377Y-106826627D01*
X171481128Y-106717857D01*
X171481127Y-106717856D01*
X171481126Y-106717855D01*
X171469592Y-106710443D01*
X171430861Y-106663077D01*
X171427367Y-106601992D01*
X171448292Y-106562334D01*
X171525377Y-106473373D01*
X171585165Y-106342457D01*
X171598530Y-106249500D01*
X171605647Y-106200002D01*
X171605647Y-106199997D01*
X171585165Y-106057543D01*
X171548809Y-105977935D01*
X171525377Y-105926627D01*
X171431128Y-105817857D01*
X171431127Y-105817856D01*
X171431126Y-105817855D01*
X171310057Y-105740049D01*
X171310054Y-105740047D01*
X171310053Y-105740047D01*
X171310050Y-105740046D01*
X171171964Y-105699500D01*
X171171961Y-105699500D01*
X171028039Y-105699500D01*
X171028035Y-105699500D01*
X170889949Y-105740046D01*
X170889942Y-105740049D01*
X170768873Y-105817855D01*
X170674622Y-105926628D01*
X170614834Y-106057543D01*
X170594775Y-106197060D01*
X170567779Y-106251968D01*
X170513665Y-106280521D01*
X170468892Y-106277961D01*
X170371964Y-106249500D01*
X170371961Y-106249500D01*
X170228039Y-106249500D01*
X170228035Y-106249500D01*
X170089949Y-106290046D01*
X170089942Y-106290049D01*
X169968873Y-106367855D01*
X169874622Y-106476628D01*
X169814834Y-106607543D01*
X169799444Y-106714589D01*
X169772448Y-106769496D01*
X169718334Y-106798050D01*
X169701452Y-106799500D01*
X169628035Y-106799500D01*
X169489949Y-106840046D01*
X169489942Y-106840049D01*
X169368873Y-106917855D01*
X169274622Y-107026628D01*
X169214834Y-107157543D01*
X169194353Y-107299997D01*
X169194353Y-107300002D01*
X169214834Y-107442456D01*
X169257175Y-107535168D01*
X169274623Y-107573373D01*
X169341994Y-107651124D01*
X169368872Y-107682143D01*
X169372669Y-107684583D01*
X169411400Y-107731950D01*
X169414892Y-107793036D01*
X169381813Y-107844508D01*
X169372668Y-107851151D01*
X169268872Y-107917856D01*
X169268870Y-107917858D01*
X169174319Y-108026977D01*
X169121924Y-108058573D01*
X169060963Y-108053337D01*
X169014722Y-108013270D01*
X169000500Y-107962146D01*
X169000500Y-107530253D01*
X169000498Y-107530241D01*
X168994482Y-107500000D01*
X168988867Y-107471769D01*
X168944552Y-107405448D01*
X168944548Y-107405445D01*
X168874071Y-107358353D01*
X168836192Y-107310303D01*
X168833790Y-107249164D01*
X168847594Y-107219807D01*
X168924818Y-107107930D01*
X168985140Y-106948872D01*
X169005645Y-106780000D01*
X168985140Y-106611128D01*
X168924818Y-106452070D01*
X168828183Y-106312071D01*
X168723242Y-106219102D01*
X168692224Y-106166363D01*
X168698129Y-106105463D01*
X168723243Y-106070897D01*
X168738317Y-106057543D01*
X168828183Y-105977929D01*
X168924818Y-105837930D01*
X168985140Y-105678872D01*
X169005645Y-105510000D01*
X168985140Y-105341128D01*
X168931617Y-105199997D01*
X175619353Y-105199997D01*
X175619353Y-105200002D01*
X175639834Y-105342456D01*
X175699622Y-105473371D01*
X175699623Y-105473373D01*
X175793872Y-105582143D01*
X175793873Y-105582144D01*
X175914942Y-105659950D01*
X175914947Y-105659953D01*
X176021403Y-105691211D01*
X176053035Y-105700499D01*
X176053036Y-105700499D01*
X176053039Y-105700500D01*
X176053041Y-105700500D01*
X176196959Y-105700500D01*
X176196961Y-105700500D01*
X176335053Y-105659953D01*
X176456128Y-105582143D01*
X176550377Y-105473373D01*
X176610165Y-105342457D01*
X176630647Y-105200000D01*
X176610165Y-105057543D01*
X176550377Y-104926627D01*
X176456128Y-104817857D01*
X176456127Y-104817856D01*
X176456126Y-104817855D01*
X176335057Y-104740049D01*
X176335054Y-104740047D01*
X176335053Y-104740047D01*
X176335050Y-104740046D01*
X176196964Y-104699500D01*
X176196961Y-104699500D01*
X176053039Y-104699500D01*
X176053035Y-104699500D01*
X175914949Y-104740046D01*
X175914942Y-104740049D01*
X175793873Y-104817855D01*
X175699622Y-104926628D01*
X175639834Y-105057543D01*
X175619353Y-105199997D01*
X168931617Y-105199997D01*
X168924818Y-105182070D01*
X168828183Y-105042071D01*
X168700852Y-104929266D01*
X168550225Y-104850210D01*
X168550224Y-104850209D01*
X168550223Y-104850209D01*
X168385058Y-104809500D01*
X168385056Y-104809500D01*
X168214944Y-104809500D01*
X168214941Y-104809500D01*
X168049776Y-104850209D01*
X167899146Y-104929267D01*
X167771818Y-105042069D01*
X167771816Y-105042072D01*
X167675182Y-105182070D01*
X167614860Y-105341129D01*
X167598803Y-105473371D01*
X167594355Y-105510000D01*
X167614860Y-105678872D01*
X167675182Y-105837930D01*
X167771817Y-105977929D01*
X167771820Y-105977931D01*
X167771823Y-105977935D01*
X167876756Y-106070898D01*
X167907775Y-106123638D01*
X167901869Y-106184537D01*
X167876756Y-106219102D01*
X167771823Y-106312064D01*
X167771816Y-106312072D01*
X167711122Y-106400002D01*
X167675182Y-106452070D01*
X167614860Y-106611128D01*
X167594355Y-106780000D01*
X167614860Y-106948872D01*
X167675182Y-107107930D01*
X167752401Y-107219801D01*
X167769897Y-107278430D01*
X167749590Y-107336147D01*
X167725929Y-107358353D01*
X167655449Y-107405447D01*
X167655445Y-107405451D01*
X167611134Y-107471766D01*
X167611132Y-107471772D01*
X167599501Y-107530241D01*
X167599500Y-107530253D01*
X167599500Y-108569746D01*
X167599501Y-108569758D01*
X167606726Y-108606076D01*
X167611133Y-108628231D01*
X167655448Y-108694552D01*
X167721769Y-108738867D01*
X167766231Y-108747711D01*
X167780241Y-108750498D01*
X167780246Y-108750498D01*
X167780252Y-108750500D01*
X167780253Y-108750500D01*
X168819747Y-108750500D01*
X168819748Y-108750500D01*
X168878231Y-108738867D01*
X168944552Y-108694552D01*
X168988867Y-108628231D01*
X168993274Y-108606073D01*
X169023170Y-108552692D01*
X169078734Y-108527076D01*
X169138744Y-108539013D01*
X169169769Y-108568210D01*
X169169987Y-108568022D01*
X169171832Y-108570152D01*
X169173656Y-108571868D01*
X169174621Y-108573370D01*
X169174622Y-108573371D01*
X169174623Y-108573373D01*
X169222159Y-108628233D01*
X169268873Y-108682144D01*
X169389942Y-108759950D01*
X169389947Y-108759953D01*
X169496403Y-108791211D01*
X169528035Y-108800499D01*
X169528036Y-108800499D01*
X169528039Y-108800500D01*
X169528041Y-108800500D01*
X169671960Y-108800500D01*
X169671961Y-108800500D01*
X169698736Y-108792638D01*
X169759896Y-108794385D01*
X169808349Y-108831748D01*
X169816680Y-108846499D01*
X169822559Y-108859371D01*
X169829536Y-108920157D01*
X169799451Y-108973435D01*
X169743796Y-108998854D01*
X169732507Y-108999500D01*
X164099500Y-108999500D01*
X164041309Y-108980593D01*
X164005345Y-108931093D01*
X164000500Y-108900500D01*
X164000500Y-106399997D01*
X164394353Y-106399997D01*
X164394353Y-106400002D01*
X164414834Y-106542456D01*
X164474623Y-106673373D01*
X164528169Y-106735170D01*
X164551986Y-106791529D01*
X164538127Y-106851124D01*
X164528169Y-106864830D01*
X164474623Y-106926626D01*
X164414834Y-107057543D01*
X164394353Y-107199997D01*
X164394353Y-107200002D01*
X164414834Y-107342456D01*
X164474623Y-107473373D01*
X164528169Y-107535170D01*
X164551986Y-107591529D01*
X164538127Y-107651124D01*
X164528169Y-107664830D01*
X164474623Y-107726626D01*
X164414834Y-107857543D01*
X164394353Y-107999997D01*
X164394353Y-108000002D01*
X164414834Y-108142456D01*
X164428954Y-108173373D01*
X164474623Y-108273373D01*
X164565840Y-108378644D01*
X164568873Y-108382144D01*
X164689942Y-108459950D01*
X164689947Y-108459953D01*
X164796403Y-108491211D01*
X164828035Y-108500499D01*
X164828036Y-108500499D01*
X164828039Y-108500500D01*
X164828041Y-108500500D01*
X164971959Y-108500500D01*
X164971961Y-108500500D01*
X165110053Y-108459953D01*
X165231128Y-108382143D01*
X165231136Y-108382133D01*
X165235165Y-108378644D01*
X165291523Y-108354824D01*
X165351119Y-108368679D01*
X165364835Y-108378644D01*
X165368866Y-108382137D01*
X165368872Y-108382143D01*
X165489947Y-108459953D01*
X165596403Y-108491211D01*
X165628035Y-108500499D01*
X165628036Y-108500499D01*
X165628039Y-108500500D01*
X165628041Y-108500500D01*
X165771959Y-108500500D01*
X165771961Y-108500500D01*
X165910053Y-108459953D01*
X166031128Y-108382143D01*
X166031136Y-108382133D01*
X166035165Y-108378644D01*
X166091523Y-108354824D01*
X166151119Y-108368679D01*
X166164835Y-108378644D01*
X166168866Y-108382137D01*
X166168872Y-108382143D01*
X166289947Y-108459953D01*
X166396403Y-108491211D01*
X166428035Y-108500499D01*
X166428036Y-108500499D01*
X166428039Y-108500500D01*
X166428041Y-108500500D01*
X166571959Y-108500500D01*
X166571961Y-108500500D01*
X166710053Y-108459953D01*
X166831128Y-108382143D01*
X166925377Y-108273373D01*
X166985165Y-108142457D01*
X166997226Y-108058573D01*
X167005647Y-108000002D01*
X167005647Y-107999997D01*
X166985165Y-107857543D01*
X166953976Y-107789249D01*
X166925377Y-107726627D01*
X166871828Y-107664828D01*
X166848012Y-107608473D01*
X166861870Y-107548877D01*
X166871820Y-107535180D01*
X166925377Y-107473373D01*
X166985165Y-107342457D01*
X166998386Y-107250500D01*
X167005647Y-107200002D01*
X167005647Y-107199997D01*
X166985165Y-107057543D01*
X166925377Y-106926628D01*
X166925377Y-106926627D01*
X166871828Y-106864828D01*
X166848012Y-106808473D01*
X166861870Y-106748877D01*
X166871820Y-106735180D01*
X166925377Y-106673373D01*
X166985165Y-106542457D01*
X167005647Y-106400000D01*
X167001025Y-106367855D01*
X166985165Y-106257543D01*
X166967609Y-106219102D01*
X166925377Y-106126627D01*
X166831128Y-106017857D01*
X166831127Y-106017856D01*
X166831126Y-106017855D01*
X166710057Y-105940049D01*
X166710054Y-105940047D01*
X166710053Y-105940047D01*
X166710050Y-105940046D01*
X166571964Y-105899500D01*
X166571961Y-105899500D01*
X166428039Y-105899500D01*
X166428035Y-105899500D01*
X166289949Y-105940046D01*
X166289942Y-105940049D01*
X166168872Y-106017856D01*
X166164830Y-106021359D01*
X166108471Y-106045176D01*
X166048876Y-106031317D01*
X166035170Y-106021359D01*
X166031127Y-106017856D01*
X165910057Y-105940049D01*
X165910054Y-105940047D01*
X165910053Y-105940047D01*
X165910050Y-105940046D01*
X165771964Y-105899500D01*
X165771961Y-105899500D01*
X165628039Y-105899500D01*
X165628035Y-105899500D01*
X165489949Y-105940046D01*
X165489942Y-105940049D01*
X165368872Y-106017856D01*
X165364830Y-106021359D01*
X165308471Y-106045176D01*
X165248876Y-106031317D01*
X165235170Y-106021359D01*
X165231127Y-106017856D01*
X165110057Y-105940049D01*
X165110054Y-105940047D01*
X165110053Y-105940047D01*
X165110050Y-105940046D01*
X164971964Y-105899500D01*
X164971961Y-105899500D01*
X164828039Y-105899500D01*
X164828035Y-105899500D01*
X164689949Y-105940046D01*
X164689942Y-105940049D01*
X164568873Y-106017855D01*
X164474622Y-106126628D01*
X164414834Y-106257543D01*
X164394353Y-106399997D01*
X164000500Y-106399997D01*
X164000500Y-104299997D01*
X165394353Y-104299997D01*
X165394353Y-104300002D01*
X165414834Y-104442456D01*
X165449832Y-104519089D01*
X165474623Y-104573373D01*
X165568872Y-104682143D01*
X165568873Y-104682144D01*
X165689942Y-104759950D01*
X165689947Y-104759953D01*
X165796403Y-104791211D01*
X165828035Y-104800499D01*
X165828036Y-104800499D01*
X165828039Y-104800500D01*
X165828041Y-104800500D01*
X165971959Y-104800500D01*
X165971961Y-104800500D01*
X166110053Y-104759953D01*
X166231128Y-104682143D01*
X166325377Y-104573373D01*
X166385165Y-104442457D01*
X166405647Y-104300000D01*
X166404491Y-104291962D01*
X166385165Y-104157543D01*
X166325377Y-104026628D01*
X166325377Y-104026627D01*
X166318409Y-104018586D01*
X170627155Y-104018586D01*
X170627155Y-104018591D01*
X170647636Y-104161045D01*
X170707424Y-104291960D01*
X170707425Y-104291962D01*
X170714392Y-104300002D01*
X170801675Y-104400733D01*
X170922744Y-104478539D01*
X170922749Y-104478542D01*
X171029205Y-104509800D01*
X171060837Y-104519088D01*
X171060838Y-104519088D01*
X171060841Y-104519089D01*
X171060843Y-104519089D01*
X171204761Y-104519089D01*
X171204763Y-104519089D01*
X171342855Y-104478542D01*
X171463930Y-104400732D01*
X171558179Y-104291962D01*
X171617967Y-104161046D01*
X171637293Y-104026628D01*
X171638449Y-104018591D01*
X171638449Y-104018586D01*
X171617967Y-103876132D01*
X171558179Y-103745217D01*
X171558179Y-103745216D01*
X171463930Y-103636446D01*
X171463929Y-103636445D01*
X171463928Y-103636444D01*
X171342859Y-103558638D01*
X171342856Y-103558636D01*
X171342855Y-103558636D01*
X171342852Y-103558635D01*
X171204766Y-103518089D01*
X171204763Y-103518089D01*
X171060841Y-103518089D01*
X171060837Y-103518089D01*
X170922751Y-103558635D01*
X170922744Y-103558638D01*
X170801675Y-103636444D01*
X170707424Y-103745217D01*
X170647636Y-103876132D01*
X170627155Y-104018586D01*
X166318409Y-104018586D01*
X166231128Y-103917857D01*
X166231127Y-103917856D01*
X166231126Y-103917855D01*
X166110057Y-103840049D01*
X166110054Y-103840047D01*
X166110053Y-103840047D01*
X166110050Y-103840046D01*
X165971964Y-103799500D01*
X165971961Y-103799500D01*
X165828039Y-103799500D01*
X165828035Y-103799500D01*
X165689949Y-103840046D01*
X165689942Y-103840049D01*
X165568873Y-103917855D01*
X165474622Y-104026628D01*
X165414834Y-104157543D01*
X165394353Y-104299997D01*
X164000500Y-104299997D01*
X164000500Y-102599997D01*
X166694353Y-102599997D01*
X166694353Y-102600002D01*
X166714834Y-102742456D01*
X166772712Y-102869189D01*
X166774623Y-102873373D01*
X166782875Y-102882896D01*
X166868873Y-102982144D01*
X166896653Y-102999997D01*
X166989947Y-103059953D01*
X167096403Y-103091211D01*
X167128035Y-103100499D01*
X167128036Y-103100499D01*
X167128039Y-103100500D01*
X167128041Y-103100500D01*
X167271959Y-103100500D01*
X167271961Y-103100500D01*
X167410053Y-103059953D01*
X167531128Y-102982143D01*
X167625377Y-102873373D01*
X167625378Y-102873369D01*
X167629001Y-102869189D01*
X167681397Y-102837593D01*
X167742358Y-102842828D01*
X167788599Y-102882896D01*
X167802458Y-102942491D01*
X167801813Y-102948109D01*
X167794353Y-102999996D01*
X167794353Y-103000002D01*
X167814834Y-103142456D01*
X167852668Y-103225299D01*
X167874623Y-103273373D01*
X167930917Y-103338340D01*
X167968873Y-103382144D01*
X168089942Y-103459950D01*
X168089947Y-103459953D01*
X168177454Y-103485647D01*
X168228035Y-103500499D01*
X168228036Y-103500499D01*
X168228039Y-103500500D01*
X168228041Y-103500500D01*
X168371959Y-103500500D01*
X168371961Y-103500500D01*
X168510053Y-103459953D01*
X168631128Y-103382143D01*
X168725377Y-103273373D01*
X168785165Y-103142457D01*
X168805647Y-103000000D01*
X168805646Y-102999996D01*
X168785165Y-102857543D01*
X168741717Y-102762406D01*
X168725377Y-102726627D01*
X168631128Y-102617857D01*
X168631127Y-102617856D01*
X168631126Y-102617855D01*
X168510057Y-102540049D01*
X168510054Y-102540047D01*
X168510053Y-102540047D01*
X168510050Y-102540046D01*
X168371964Y-102499500D01*
X168371961Y-102499500D01*
X168228039Y-102499500D01*
X168228035Y-102499500D01*
X168089949Y-102540046D01*
X168089942Y-102540049D01*
X167968872Y-102617856D01*
X167968870Y-102617858D01*
X167870997Y-102730810D01*
X167818601Y-102762406D01*
X167757640Y-102757170D01*
X167711399Y-102717102D01*
X167697541Y-102657507D01*
X167698183Y-102651908D01*
X167705647Y-102600000D01*
X167704202Y-102589953D01*
X167685165Y-102457543D01*
X167660425Y-102403371D01*
X167625377Y-102326627D01*
X167531128Y-102217857D01*
X167531127Y-102217856D01*
X167531126Y-102217855D01*
X167410057Y-102140049D01*
X167410054Y-102140047D01*
X167410053Y-102140047D01*
X167410050Y-102140046D01*
X167271964Y-102099500D01*
X167271961Y-102099500D01*
X167128039Y-102099500D01*
X167128035Y-102099500D01*
X166989949Y-102140046D01*
X166989942Y-102140049D01*
X166868873Y-102217855D01*
X166774622Y-102326628D01*
X166714834Y-102457543D01*
X166694353Y-102599997D01*
X164000500Y-102599997D01*
X164000500Y-101999998D01*
X165369352Y-101999998D01*
X165369352Y-102000003D01*
X165389833Y-102142457D01*
X165449203Y-102272456D01*
X165449622Y-102273374D01*
X165535037Y-102371949D01*
X165543872Y-102382145D01*
X165576904Y-102403373D01*
X165664946Y-102459954D01*
X165771402Y-102491212D01*
X165803034Y-102500500D01*
X165803035Y-102500500D01*
X165803038Y-102500501D01*
X165803040Y-102500501D01*
X165946958Y-102500501D01*
X165946960Y-102500501D01*
X166085052Y-102459954D01*
X166206127Y-102382144D01*
X166300376Y-102273374D01*
X166360164Y-102142458D01*
X166377955Y-102018716D01*
X166380646Y-102000003D01*
X166380646Y-101999998D01*
X166360164Y-101857544D01*
X166300376Y-101726629D01*
X166300376Y-101726628D01*
X166206127Y-101617858D01*
X166206126Y-101617857D01*
X166206125Y-101617856D01*
X166085056Y-101540050D01*
X166085053Y-101540048D01*
X166085052Y-101540048D01*
X166085049Y-101540047D01*
X165946963Y-101499501D01*
X165946960Y-101499501D01*
X165803038Y-101499501D01*
X165803034Y-101499501D01*
X165664948Y-101540047D01*
X165664941Y-101540050D01*
X165543872Y-101617856D01*
X165449621Y-101726629D01*
X165389833Y-101857544D01*
X165369352Y-101999998D01*
X164000500Y-101999998D01*
X164000500Y-100649997D01*
X164894353Y-100649997D01*
X164894353Y-100650002D01*
X164914834Y-100792456D01*
X164960504Y-100892457D01*
X164974623Y-100923373D01*
X165061271Y-101023371D01*
X165068873Y-101032144D01*
X165172236Y-101098571D01*
X165189947Y-101109953D01*
X165296403Y-101141211D01*
X165328035Y-101150499D01*
X165328036Y-101150499D01*
X165328039Y-101150500D01*
X165328041Y-101150500D01*
X165471959Y-101150500D01*
X165471961Y-101150500D01*
X165610053Y-101109953D01*
X165731128Y-101032143D01*
X165825377Y-100923373D01*
X165885165Y-100792457D01*
X165891270Y-100749997D01*
X166274353Y-100749997D01*
X166274353Y-100750002D01*
X166294834Y-100892456D01*
X166344177Y-101000500D01*
X166354623Y-101023373D01*
X166431541Y-101112142D01*
X166448873Y-101132144D01*
X166538823Y-101189951D01*
X166569947Y-101209953D01*
X166676403Y-101241211D01*
X166708035Y-101250499D01*
X166708036Y-101250499D01*
X166708039Y-101250500D01*
X166708041Y-101250500D01*
X166851959Y-101250500D01*
X166851961Y-101250500D01*
X166990053Y-101209953D01*
X167111128Y-101132143D01*
X167205377Y-101023373D01*
X167231331Y-100966541D01*
X167272700Y-100921466D01*
X167332667Y-100909314D01*
X167388323Y-100934731D01*
X167396202Y-100942838D01*
X167494607Y-101056405D01*
X167494609Y-101056406D01*
X167581334Y-101112141D01*
X167615684Y-101134216D01*
X167722140Y-101165474D01*
X167753772Y-101174762D01*
X167753773Y-101174762D01*
X167753776Y-101174763D01*
X167753778Y-101174763D01*
X167897696Y-101174763D01*
X167897698Y-101174763D01*
X168035790Y-101134216D01*
X168156865Y-101056406D01*
X168251114Y-100947636D01*
X168310902Y-100816720D01*
X168317804Y-100768715D01*
X168323371Y-100729995D01*
X168929351Y-100729995D01*
X168929351Y-100730000D01*
X168949832Y-100872454D01*
X169001109Y-100984733D01*
X169009621Y-101003371D01*
X169103870Y-101112141D01*
X169103871Y-101112142D01*
X169193091Y-101169480D01*
X169224945Y-101189951D01*
X169331401Y-101221209D01*
X169363033Y-101230497D01*
X169363034Y-101230497D01*
X169363037Y-101230498D01*
X169363039Y-101230498D01*
X169506957Y-101230498D01*
X169506959Y-101230498D01*
X169511826Y-101229068D01*
X169513073Y-101228703D01*
X169574233Y-101230449D01*
X169622687Y-101267810D01*
X169639926Y-101326517D01*
X169638958Y-101337780D01*
X169629352Y-101404594D01*
X169629352Y-101404603D01*
X169646583Y-101524456D01*
X169636149Y-101584745D01*
X169592271Y-101627387D01*
X169531708Y-101636094D01*
X169520702Y-101633535D01*
X169506960Y-101629500D01*
X169506959Y-101629500D01*
X169363037Y-101629500D01*
X169363033Y-101629500D01*
X169224947Y-101670046D01*
X169224940Y-101670049D01*
X169103871Y-101747855D01*
X169009620Y-101856628D01*
X168949832Y-101987543D01*
X168929351Y-102129997D01*
X168929351Y-102130002D01*
X168949832Y-102272456D01*
X168966093Y-102308062D01*
X169009621Y-102403373D01*
X169093782Y-102500501D01*
X169103871Y-102512144D01*
X169224940Y-102589950D01*
X169224945Y-102589953D01*
X169319982Y-102617858D01*
X169363033Y-102630499D01*
X169363034Y-102630499D01*
X169363037Y-102630500D01*
X169363039Y-102630500D01*
X169506957Y-102630500D01*
X169506959Y-102630500D01*
X169645051Y-102589953D01*
X169766126Y-102512143D01*
X169860375Y-102403373D01*
X169920163Y-102272457D01*
X169928013Y-102217857D01*
X169940645Y-102130002D01*
X169940645Y-102129997D01*
X169923413Y-102010143D01*
X169933846Y-101949854D01*
X169977724Y-101907211D01*
X170038287Y-101898504D01*
X170049291Y-101901062D01*
X170063038Y-101905099D01*
X170063040Y-101905099D01*
X170206958Y-101905099D01*
X170206960Y-101905099D01*
X170220699Y-101901065D01*
X170281859Y-101902811D01*
X170330313Y-101940173D01*
X170347552Y-101998879D01*
X170346584Y-102010142D01*
X170329353Y-102129995D01*
X170329353Y-102130002D01*
X170349834Y-102272456D01*
X170366095Y-102308062D01*
X170409623Y-102403373D01*
X170493784Y-102500501D01*
X170503873Y-102512144D01*
X170624942Y-102589950D01*
X170624947Y-102589953D01*
X170719984Y-102617858D01*
X170763035Y-102630499D01*
X170763036Y-102630499D01*
X170763039Y-102630500D01*
X170763041Y-102630500D01*
X170906959Y-102630500D01*
X170906961Y-102630500D01*
X171045053Y-102589953D01*
X171166128Y-102512143D01*
X171260377Y-102403373D01*
X171320165Y-102272457D01*
X171328015Y-102217857D01*
X171340647Y-102130002D01*
X171340647Y-102129997D01*
X171320165Y-101987543D01*
X171302953Y-101949854D01*
X171260377Y-101856627D01*
X171166128Y-101747857D01*
X171166127Y-101747856D01*
X171166126Y-101747855D01*
X171045057Y-101670049D01*
X171045054Y-101670047D01*
X171045053Y-101670047D01*
X171045050Y-101670046D01*
X170906964Y-101629500D01*
X170906961Y-101629500D01*
X170763039Y-101629500D01*
X170763034Y-101629500D01*
X170749294Y-101633535D01*
X170688133Y-101631785D01*
X170639682Y-101594421D01*
X170622446Y-101535713D01*
X170623414Y-101524455D01*
X170640646Y-101404601D01*
X170640646Y-101404597D01*
X170631039Y-101337782D01*
X170641472Y-101277492D01*
X170685350Y-101234850D01*
X170745912Y-101226142D01*
X170756922Y-101228702D01*
X170763035Y-101230497D01*
X170763036Y-101230497D01*
X170763039Y-101230498D01*
X170763041Y-101230498D01*
X170906959Y-101230498D01*
X170906961Y-101230498D01*
X171045053Y-101189951D01*
X171166128Y-101112141D01*
X171260377Y-101003371D01*
X171320165Y-100872455D01*
X171331040Y-100796815D01*
X171340647Y-100730000D01*
X171340647Y-100729995D01*
X171320165Y-100587541D01*
X171294711Y-100531806D01*
X171260377Y-100456625D01*
X171166128Y-100347855D01*
X171166127Y-100347854D01*
X171166126Y-100347853D01*
X171045057Y-100270047D01*
X171045054Y-100270045D01*
X171045053Y-100270045D01*
X171045050Y-100270044D01*
X170906964Y-100229498D01*
X170906961Y-100229498D01*
X170763039Y-100229498D01*
X170763035Y-100229498D01*
X170624949Y-100270044D01*
X170624942Y-100270047D01*
X170503873Y-100347853D01*
X170409622Y-100456626D01*
X170349834Y-100587541D01*
X170329353Y-100729995D01*
X170329353Y-100730001D01*
X170338959Y-100796815D01*
X170328526Y-100857105D01*
X170284647Y-100899747D01*
X170224085Y-100908454D01*
X170213080Y-100905895D01*
X170206966Y-100904100D01*
X170206961Y-100904099D01*
X170206960Y-100904099D01*
X170063038Y-100904099D01*
X170063036Y-100904099D01*
X170063032Y-100904100D01*
X170056915Y-100905896D01*
X169995754Y-100904144D01*
X169947304Y-100866778D01*
X169930071Y-100808070D01*
X169931038Y-100796814D01*
X169931665Y-100792457D01*
X169940645Y-100729998D01*
X169929143Y-100650002D01*
X169920163Y-100587541D01*
X169894709Y-100531806D01*
X169860375Y-100456625D01*
X169766126Y-100347855D01*
X169766125Y-100347854D01*
X169766124Y-100347853D01*
X169645055Y-100270047D01*
X169645052Y-100270045D01*
X169645051Y-100270045D01*
X169645048Y-100270044D01*
X169506962Y-100229498D01*
X169506959Y-100229498D01*
X169363037Y-100229498D01*
X169363033Y-100229498D01*
X169224947Y-100270044D01*
X169224940Y-100270047D01*
X169103871Y-100347853D01*
X169009620Y-100456626D01*
X168949832Y-100587541D01*
X168929351Y-100729995D01*
X168323371Y-100729995D01*
X168331384Y-100674265D01*
X168331384Y-100674260D01*
X168310902Y-100531806D01*
X168285702Y-100476627D01*
X168251114Y-100400890D01*
X168156865Y-100292120D01*
X168156864Y-100292119D01*
X168156863Y-100292118D01*
X168035794Y-100214312D01*
X168035791Y-100214310D01*
X168035790Y-100214310D01*
X168035787Y-100214309D01*
X167897701Y-100173763D01*
X167897698Y-100173763D01*
X167753776Y-100173763D01*
X167753772Y-100173763D01*
X167615686Y-100214309D01*
X167615679Y-100214312D01*
X167494610Y-100292118D01*
X167400359Y-100400891D01*
X167374406Y-100457720D01*
X167333034Y-100502797D01*
X167273067Y-100514948D01*
X167217411Y-100489530D01*
X167209533Y-100481424D01*
X167205377Y-100476628D01*
X167205377Y-100476627D01*
X167111128Y-100367857D01*
X167111127Y-100367856D01*
X167111126Y-100367855D01*
X166990057Y-100290049D01*
X166990054Y-100290047D01*
X166990053Y-100290047D01*
X166990050Y-100290046D01*
X166851964Y-100249500D01*
X166851961Y-100249500D01*
X166708039Y-100249500D01*
X166708035Y-100249500D01*
X166569949Y-100290046D01*
X166569942Y-100290049D01*
X166448873Y-100367855D01*
X166354622Y-100476628D01*
X166294834Y-100607543D01*
X166274353Y-100749997D01*
X165891270Y-100749997D01*
X165905647Y-100650000D01*
X165888653Y-100531806D01*
X165885165Y-100507543D01*
X165836458Y-100400891D01*
X165825377Y-100376627D01*
X165731128Y-100267857D01*
X165731127Y-100267856D01*
X165731126Y-100267855D01*
X165610057Y-100190049D01*
X165610054Y-100190047D01*
X165610053Y-100190047D01*
X165610050Y-100190046D01*
X165471964Y-100149500D01*
X165471961Y-100149500D01*
X165328039Y-100149500D01*
X165328035Y-100149500D01*
X165189949Y-100190046D01*
X165189942Y-100190049D01*
X165068873Y-100267855D01*
X164974622Y-100376628D01*
X164914834Y-100507543D01*
X164894353Y-100649997D01*
X164000500Y-100649997D01*
X164000500Y-94499500D01*
X164019407Y-94441309D01*
X164068907Y-94405345D01*
X164099500Y-94400500D01*
X164853783Y-94400500D01*
X164911974Y-94419407D01*
G37*
G04 #@! TD.AperFunction*
G04 #@! TD*
M02*
