G04 #@! TF.GenerationSoftware,KiCad,Pcbnew,8.0.7-8.0.7-0~ubuntu24.04.1*
G04 #@! TF.CreationDate,2024-12-30T22:58:19-07:00*
G04 #@! TF.ProjectId,DRV8311 Motor Driver,44525638-3331-4312-904d-6f746f722044,V1*
G04 #@! TF.SameCoordinates,Original*
G04 #@! TF.FileFunction,Legend,Bot*
G04 #@! TF.FilePolarity,Positive*
%FSLAX46Y46*%
G04 Gerber Fmt 4.6, Leading zero omitted, Abs format (unit mm)*
G04 Created by KiCad (PCBNEW 8.0.7-8.0.7-0~ubuntu24.04.1) date 2024-12-30 22:58:19*
%MOMM*%
%LPD*%
G01*
G04 APERTURE LIST*
G04 Aperture macros list*
%AMRoundRect*
0 Rectangle with rounded corners*
0 $1 Rounding radius*
0 $2 $3 $4 $5 $6 $7 $8 $9 X,Y pos of 4 corners*
0 Add a 4 corners polygon primitive as box body*
4,1,4,$2,$3,$4,$5,$6,$7,$8,$9,$2,$3,0*
0 Add four circle primitives for the rounded corners*
1,1,$1+$1,$2,$3*
1,1,$1+$1,$4,$5*
1,1,$1+$1,$6,$7*
1,1,$1+$1,$8,$9*
0 Add four rect primitives between the rounded corners*
20,1,$1+$1,$2,$3,$4,$5,0*
20,1,$1+$1,$4,$5,$6,$7,0*
20,1,$1+$1,$6,$7,$8,$9,0*
20,1,$1+$1,$8,$9,$2,$3,0*%
G04 Aperture macros list end*
%ADD10C,0.120000*%
%ADD11C,0.150000*%
%ADD12C,0.127000*%
%ADD13RoundRect,0.200000X0.450000X-0.200000X0.450000X0.200000X-0.450000X0.200000X-0.450000X-0.200000X0*%
%ADD14O,1.300000X0.800000*%
%ADD15C,0.600000*%
%ADD16R,1.000000X1.000000*%
%ADD17O,1.000000X1.000000*%
%ADD18RoundRect,0.135000X-0.135000X-0.185000X0.135000X-0.185000X0.135000X0.185000X-0.135000X0.185000X0*%
%ADD19RoundRect,0.100000X1.250000X1.400000X-1.250000X1.400000X-1.250000X-1.400000X1.250000X-1.400000X0*%
%ADD20RoundRect,0.100000X-1.250000X-1.400000X1.250000X-1.400000X1.250000X1.400000X-1.250000X1.400000X0*%
%ADD21C,1.000000*%
%ADD22RoundRect,0.225000X0.225000X0.250000X-0.225000X0.250000X-0.225000X-0.250000X0.225000X-0.250000X0*%
%ADD23RoundRect,0.140000X-0.170000X0.140000X-0.170000X-0.140000X0.170000X-0.140000X0.170000X0.140000X0*%
%ADD24RoundRect,0.102000X1.400000X1.400000X-1.400000X1.400000X-1.400000X-1.400000X1.400000X-1.400000X0*%
%ADD25RoundRect,0.102000X-1.400000X-1.400000X1.400000X-1.400000X1.400000X1.400000X-1.400000X1.400000X0*%
%ADD26RoundRect,0.135000X0.135000X0.185000X-0.135000X0.185000X-0.135000X-0.185000X0.135000X-0.185000X0*%
G04 APERTURE END LIST*
D10*
X168700000Y-102050000D02*
X169800000Y-102250000D01*
D11*
X168039411Y-98767438D02*
X168134649Y-98719819D01*
X168134649Y-98719819D02*
X168277506Y-98719819D01*
X168277506Y-98719819D02*
X168420363Y-98767438D01*
X168420363Y-98767438D02*
X168515601Y-98862676D01*
X168515601Y-98862676D02*
X168563220Y-98957914D01*
X168563220Y-98957914D02*
X168610839Y-99148390D01*
X168610839Y-99148390D02*
X168610839Y-99291247D01*
X168610839Y-99291247D02*
X168563220Y-99481723D01*
X168563220Y-99481723D02*
X168515601Y-99576961D01*
X168515601Y-99576961D02*
X168420363Y-99672200D01*
X168420363Y-99672200D02*
X168277506Y-99719819D01*
X168277506Y-99719819D02*
X168182268Y-99719819D01*
X168182268Y-99719819D02*
X168039411Y-99672200D01*
X168039411Y-99672200D02*
X167991792Y-99624580D01*
X167991792Y-99624580D02*
X167991792Y-99291247D01*
X167991792Y-99291247D02*
X168182268Y-99291247D01*
X167563220Y-99719819D02*
X167563220Y-98719819D01*
X167563220Y-98719819D02*
X166991792Y-99719819D01*
X166991792Y-99719819D02*
X166991792Y-98719819D01*
X166515601Y-99719819D02*
X166515601Y-98719819D01*
X166515601Y-98719819D02*
X166277506Y-98719819D01*
X166277506Y-98719819D02*
X166134649Y-98767438D01*
X166134649Y-98767438D02*
X166039411Y-98862676D01*
X166039411Y-98862676D02*
X165991792Y-98957914D01*
X165991792Y-98957914D02*
X165944173Y-99148390D01*
X165944173Y-99148390D02*
X165944173Y-99291247D01*
X165944173Y-99291247D02*
X165991792Y-99481723D01*
X165991792Y-99481723D02*
X166039411Y-99576961D01*
X166039411Y-99576961D02*
X166134649Y-99672200D01*
X166134649Y-99672200D02*
X166277506Y-99719819D01*
X166277506Y-99719819D02*
X166515601Y-99719819D01*
X173701316Y-98303152D02*
X174463220Y-98588866D01*
X174463220Y-98588866D02*
X173701316Y-98874580D01*
X173272744Y-98065057D02*
X173225125Y-98017438D01*
X173225125Y-98017438D02*
X173129887Y-97969819D01*
X173129887Y-97969819D02*
X172891792Y-97969819D01*
X172891792Y-97969819D02*
X172796554Y-98017438D01*
X172796554Y-98017438D02*
X172748935Y-98065057D01*
X172748935Y-98065057D02*
X172701316Y-98160295D01*
X172701316Y-98160295D02*
X172701316Y-98255533D01*
X172701316Y-98255533D02*
X172748935Y-98398390D01*
X172748935Y-98398390D02*
X173320363Y-98969819D01*
X173320363Y-98969819D02*
X172701316Y-98969819D01*
X172082268Y-97969819D02*
X171987030Y-97969819D01*
X171987030Y-97969819D02*
X171891792Y-98017438D01*
X171891792Y-98017438D02*
X171844173Y-98065057D01*
X171844173Y-98065057D02*
X171796554Y-98160295D01*
X171796554Y-98160295D02*
X171748935Y-98350771D01*
X171748935Y-98350771D02*
X171748935Y-98588866D01*
X171748935Y-98588866D02*
X171796554Y-98779342D01*
X171796554Y-98779342D02*
X171844173Y-98874580D01*
X171844173Y-98874580D02*
X171891792Y-98922200D01*
X171891792Y-98922200D02*
X171987030Y-98969819D01*
X171987030Y-98969819D02*
X172082268Y-98969819D01*
X172082268Y-98969819D02*
X172177506Y-98922200D01*
X172177506Y-98922200D02*
X172225125Y-98874580D01*
X172225125Y-98874580D02*
X172272744Y-98779342D01*
X172272744Y-98779342D02*
X172320363Y-98588866D01*
X172320363Y-98588866D02*
X172320363Y-98350771D01*
X172320363Y-98350771D02*
X172272744Y-98160295D01*
X172272744Y-98160295D02*
X172225125Y-98065057D01*
X172225125Y-98065057D02*
X172177506Y-98017438D01*
X172177506Y-98017438D02*
X172082268Y-97969819D01*
X171367982Y-98684104D02*
X170891792Y-98684104D01*
X171463220Y-98969819D02*
X171129887Y-97969819D01*
X171129887Y-97969819D02*
X170796554Y-98969819D01*
X172474580Y-100129886D02*
X172522200Y-100082267D01*
X172522200Y-100082267D02*
X172569819Y-99939410D01*
X172569819Y-99939410D02*
X172569819Y-99844172D01*
X172569819Y-99844172D02*
X172522200Y-99701315D01*
X172522200Y-99701315D02*
X172426961Y-99606077D01*
X172426961Y-99606077D02*
X172331723Y-99558458D01*
X172331723Y-99558458D02*
X172141247Y-99510839D01*
X172141247Y-99510839D02*
X171998390Y-99510839D01*
X171998390Y-99510839D02*
X171807914Y-99558458D01*
X171807914Y-99558458D02*
X171712676Y-99606077D01*
X171712676Y-99606077D02*
X171617438Y-99701315D01*
X171617438Y-99701315D02*
X171569819Y-99844172D01*
X171569819Y-99844172D02*
X171569819Y-99939410D01*
X171569819Y-99939410D02*
X171617438Y-100082267D01*
X171617438Y-100082267D02*
X171665057Y-100129886D01*
X172046009Y-101653696D02*
X172093628Y-101796553D01*
X172093628Y-101796553D02*
X172141247Y-101844172D01*
X172141247Y-101844172D02*
X172236485Y-101891791D01*
X172236485Y-101891791D02*
X172379342Y-101891791D01*
X172379342Y-101891791D02*
X172474580Y-101844172D01*
X172474580Y-101844172D02*
X172522200Y-101796553D01*
X172522200Y-101796553D02*
X172569819Y-101701315D01*
X172569819Y-101701315D02*
X172569819Y-101320363D01*
X172569819Y-101320363D02*
X171569819Y-101320363D01*
X171569819Y-101320363D02*
X171569819Y-101653696D01*
X171569819Y-101653696D02*
X171617438Y-101748934D01*
X171617438Y-101748934D02*
X171665057Y-101796553D01*
X171665057Y-101796553D02*
X171760295Y-101844172D01*
X171760295Y-101844172D02*
X171855533Y-101844172D01*
X171855533Y-101844172D02*
X171950771Y-101796553D01*
X171950771Y-101796553D02*
X171998390Y-101748934D01*
X171998390Y-101748934D02*
X172046009Y-101653696D01*
X172046009Y-101653696D02*
X172046009Y-101320363D01*
X172284104Y-103034649D02*
X172284104Y-103510839D01*
X172569819Y-102939411D02*
X171569819Y-103272744D01*
X171569819Y-103272744D02*
X172569819Y-103606077D01*
X170546009Y-102320112D02*
X170546009Y-101986779D01*
X171069819Y-101986779D02*
X170069819Y-101986779D01*
X170069819Y-101986779D02*
X170069819Y-102462969D01*
X171069819Y-103272493D02*
X170546009Y-103272493D01*
X170546009Y-103272493D02*
X170450771Y-103224874D01*
X170450771Y-103224874D02*
X170403152Y-103129636D01*
X170403152Y-103129636D02*
X170403152Y-102939160D01*
X170403152Y-102939160D02*
X170450771Y-102843922D01*
X171022200Y-103272493D02*
X171069819Y-103177255D01*
X171069819Y-103177255D02*
X171069819Y-102939160D01*
X171069819Y-102939160D02*
X171022200Y-102843922D01*
X171022200Y-102843922D02*
X170926961Y-102796303D01*
X170926961Y-102796303D02*
X170831723Y-102796303D01*
X170831723Y-102796303D02*
X170736485Y-102843922D01*
X170736485Y-102843922D02*
X170688866Y-102939160D01*
X170688866Y-102939160D02*
X170688866Y-103177255D01*
X170688866Y-103177255D02*
X170641247Y-103272493D01*
X170403152Y-104177255D02*
X171069819Y-104177255D01*
X170403152Y-103748684D02*
X170926961Y-103748684D01*
X170926961Y-103748684D02*
X171022200Y-103796303D01*
X171022200Y-103796303D02*
X171069819Y-103891541D01*
X171069819Y-103891541D02*
X171069819Y-104034398D01*
X171069819Y-104034398D02*
X171022200Y-104129636D01*
X171022200Y-104129636D02*
X170974580Y-104177255D01*
X171069819Y-104796303D02*
X171022200Y-104701065D01*
X171022200Y-104701065D02*
X170926961Y-104653446D01*
X170926961Y-104653446D02*
X170069819Y-104653446D01*
X170403152Y-105034399D02*
X170403152Y-105415351D01*
X170069819Y-105177256D02*
X170926961Y-105177256D01*
X170926961Y-105177256D02*
X171022200Y-105224875D01*
X171022200Y-105224875D02*
X171069819Y-105320113D01*
X171069819Y-105320113D02*
X171069819Y-105415351D01*
X170074580Y-95179886D02*
X170122200Y-95132267D01*
X170122200Y-95132267D02*
X170169819Y-94989410D01*
X170169819Y-94989410D02*
X170169819Y-94894172D01*
X170169819Y-94894172D02*
X170122200Y-94751315D01*
X170122200Y-94751315D02*
X170026961Y-94656077D01*
X170026961Y-94656077D02*
X169931723Y-94608458D01*
X169931723Y-94608458D02*
X169741247Y-94560839D01*
X169741247Y-94560839D02*
X169598390Y-94560839D01*
X169598390Y-94560839D02*
X169407914Y-94608458D01*
X169407914Y-94608458D02*
X169312676Y-94656077D01*
X169312676Y-94656077D02*
X169217438Y-94751315D01*
X169217438Y-94751315D02*
X169169819Y-94894172D01*
X169169819Y-94894172D02*
X169169819Y-94989410D01*
X169169819Y-94989410D02*
X169217438Y-95132267D01*
X169217438Y-95132267D02*
X169265057Y-95179886D01*
X169646009Y-96703696D02*
X169693628Y-96846553D01*
X169693628Y-96846553D02*
X169741247Y-96894172D01*
X169741247Y-96894172D02*
X169836485Y-96941791D01*
X169836485Y-96941791D02*
X169979342Y-96941791D01*
X169979342Y-96941791D02*
X170074580Y-96894172D01*
X170074580Y-96894172D02*
X170122200Y-96846553D01*
X170122200Y-96846553D02*
X170169819Y-96751315D01*
X170169819Y-96751315D02*
X170169819Y-96370363D01*
X170169819Y-96370363D02*
X169169819Y-96370363D01*
X169169819Y-96370363D02*
X169169819Y-96703696D01*
X169169819Y-96703696D02*
X169217438Y-96798934D01*
X169217438Y-96798934D02*
X169265057Y-96846553D01*
X169265057Y-96846553D02*
X169360295Y-96894172D01*
X169360295Y-96894172D02*
X169455533Y-96894172D01*
X169455533Y-96894172D02*
X169550771Y-96846553D01*
X169550771Y-96846553D02*
X169598390Y-96798934D01*
X169598390Y-96798934D02*
X169646009Y-96703696D01*
X169646009Y-96703696D02*
X169646009Y-96370363D01*
X169884104Y-98084649D02*
X169884104Y-98560839D01*
X170169819Y-97989411D02*
X169169819Y-98322744D01*
X169169819Y-98322744D02*
X170169819Y-98656077D01*
X167363220Y-96469819D02*
X167363220Y-95469819D01*
X167363220Y-95469819D02*
X166982268Y-95469819D01*
X166982268Y-95469819D02*
X166887030Y-95517438D01*
X166887030Y-95517438D02*
X166839411Y-95565057D01*
X166839411Y-95565057D02*
X166791792Y-95660295D01*
X166791792Y-95660295D02*
X166791792Y-95803152D01*
X166791792Y-95803152D02*
X166839411Y-95898390D01*
X166839411Y-95898390D02*
X166887030Y-95946009D01*
X166887030Y-95946009D02*
X166982268Y-95993628D01*
X166982268Y-95993628D02*
X167363220Y-95993628D01*
X166458458Y-95469819D02*
X166220363Y-96469819D01*
X166220363Y-96469819D02*
X166029887Y-95755533D01*
X166029887Y-95755533D02*
X165839411Y-96469819D01*
X165839411Y-96469819D02*
X165601316Y-95469819D01*
X165220363Y-96469819D02*
X165220363Y-95469819D01*
X165220363Y-95469819D02*
X164887030Y-96184104D01*
X164887030Y-96184104D02*
X164553697Y-95469819D01*
X164553697Y-95469819D02*
X164553697Y-96469819D01*
X167524580Y-105429886D02*
X167572200Y-105382267D01*
X167572200Y-105382267D02*
X167619819Y-105239410D01*
X167619819Y-105239410D02*
X167619819Y-105144172D01*
X167619819Y-105144172D02*
X167572200Y-105001315D01*
X167572200Y-105001315D02*
X167476961Y-104906077D01*
X167476961Y-104906077D02*
X167381723Y-104858458D01*
X167381723Y-104858458D02*
X167191247Y-104810839D01*
X167191247Y-104810839D02*
X167048390Y-104810839D01*
X167048390Y-104810839D02*
X166857914Y-104858458D01*
X166857914Y-104858458D02*
X166762676Y-104906077D01*
X166762676Y-104906077D02*
X166667438Y-105001315D01*
X166667438Y-105001315D02*
X166619819Y-105144172D01*
X166619819Y-105144172D02*
X166619819Y-105239410D01*
X166619819Y-105239410D02*
X166667438Y-105382267D01*
X166667438Y-105382267D02*
X166715057Y-105429886D01*
X167096009Y-106953696D02*
X167143628Y-107096553D01*
X167143628Y-107096553D02*
X167191247Y-107144172D01*
X167191247Y-107144172D02*
X167286485Y-107191791D01*
X167286485Y-107191791D02*
X167429342Y-107191791D01*
X167429342Y-107191791D02*
X167524580Y-107144172D01*
X167524580Y-107144172D02*
X167572200Y-107096553D01*
X167572200Y-107096553D02*
X167619819Y-107001315D01*
X167619819Y-107001315D02*
X167619819Y-106620363D01*
X167619819Y-106620363D02*
X166619819Y-106620363D01*
X166619819Y-106620363D02*
X166619819Y-106953696D01*
X166619819Y-106953696D02*
X166667438Y-107048934D01*
X166667438Y-107048934D02*
X166715057Y-107096553D01*
X166715057Y-107096553D02*
X166810295Y-107144172D01*
X166810295Y-107144172D02*
X166905533Y-107144172D01*
X166905533Y-107144172D02*
X167000771Y-107096553D01*
X167000771Y-107096553D02*
X167048390Y-107048934D01*
X167048390Y-107048934D02*
X167096009Y-106953696D01*
X167096009Y-106953696D02*
X167096009Y-106620363D01*
X167334104Y-108334649D02*
X167334104Y-108810839D01*
X167619819Y-108239411D02*
X166619819Y-108572744D01*
X166619819Y-108572744D02*
X167619819Y-108906077D01*
X168358458Y-99869819D02*
X167739411Y-99869819D01*
X167739411Y-99869819D02*
X168072744Y-100250771D01*
X168072744Y-100250771D02*
X167929887Y-100250771D01*
X167929887Y-100250771D02*
X167834649Y-100298390D01*
X167834649Y-100298390D02*
X167787030Y-100346009D01*
X167787030Y-100346009D02*
X167739411Y-100441247D01*
X167739411Y-100441247D02*
X167739411Y-100679342D01*
X167739411Y-100679342D02*
X167787030Y-100774580D01*
X167787030Y-100774580D02*
X167834649Y-100822200D01*
X167834649Y-100822200D02*
X167929887Y-100869819D01*
X167929887Y-100869819D02*
X168215601Y-100869819D01*
X168215601Y-100869819D02*
X168310839Y-100822200D01*
X168310839Y-100822200D02*
X168358458Y-100774580D01*
X167406077Y-100203152D02*
X167167982Y-100869819D01*
X167167982Y-100869819D02*
X166929887Y-100203152D01*
X166644172Y-99869819D02*
X166025125Y-99869819D01*
X166025125Y-99869819D02*
X166358458Y-100250771D01*
X166358458Y-100250771D02*
X166215601Y-100250771D01*
X166215601Y-100250771D02*
X166120363Y-100298390D01*
X166120363Y-100298390D02*
X166072744Y-100346009D01*
X166072744Y-100346009D02*
X166025125Y-100441247D01*
X166025125Y-100441247D02*
X166025125Y-100679342D01*
X166025125Y-100679342D02*
X166072744Y-100774580D01*
X166072744Y-100774580D02*
X166120363Y-100822200D01*
X166120363Y-100822200D02*
X166215601Y-100869819D01*
X166215601Y-100869819D02*
X166501315Y-100869819D01*
X166501315Y-100869819D02*
X166596553Y-100822200D01*
X166596553Y-100822200D02*
X166644172Y-100774580D01*
X174763220Y-108588866D02*
X174001316Y-108588866D01*
X165724580Y-106808207D02*
X165772200Y-106760588D01*
X165772200Y-106760588D02*
X165819819Y-106617731D01*
X165819819Y-106617731D02*
X165819819Y-106522493D01*
X165819819Y-106522493D02*
X165772200Y-106379636D01*
X165772200Y-106379636D02*
X165676961Y-106284398D01*
X165676961Y-106284398D02*
X165581723Y-106236779D01*
X165581723Y-106236779D02*
X165391247Y-106189160D01*
X165391247Y-106189160D02*
X165248390Y-106189160D01*
X165248390Y-106189160D02*
X165057914Y-106236779D01*
X165057914Y-106236779D02*
X164962676Y-106284398D01*
X164962676Y-106284398D02*
X164867438Y-106379636D01*
X164867438Y-106379636D02*
X164819819Y-106522493D01*
X164819819Y-106522493D02*
X164819819Y-106617731D01*
X164819819Y-106617731D02*
X164867438Y-106760588D01*
X164867438Y-106760588D02*
X164915057Y-106808207D01*
X165772200Y-107189160D02*
X165819819Y-107332017D01*
X165819819Y-107332017D02*
X165819819Y-107570112D01*
X165819819Y-107570112D02*
X165772200Y-107665350D01*
X165772200Y-107665350D02*
X165724580Y-107712969D01*
X165724580Y-107712969D02*
X165629342Y-107760588D01*
X165629342Y-107760588D02*
X165534104Y-107760588D01*
X165534104Y-107760588D02*
X165438866Y-107712969D01*
X165438866Y-107712969D02*
X165391247Y-107665350D01*
X165391247Y-107665350D02*
X165343628Y-107570112D01*
X165343628Y-107570112D02*
X165296009Y-107379636D01*
X165296009Y-107379636D02*
X165248390Y-107284398D01*
X165248390Y-107284398D02*
X165200771Y-107236779D01*
X165200771Y-107236779D02*
X165105533Y-107189160D01*
X165105533Y-107189160D02*
X165010295Y-107189160D01*
X165010295Y-107189160D02*
X164915057Y-107236779D01*
X164915057Y-107236779D02*
X164867438Y-107284398D01*
X164867438Y-107284398D02*
X164819819Y-107379636D01*
X164819819Y-107379636D02*
X164819819Y-107617731D01*
X164819819Y-107617731D02*
X164867438Y-107760588D01*
X165534104Y-108141541D02*
X165534104Y-108617731D01*
X165819819Y-108046303D02*
X164819819Y-108379636D01*
X164819819Y-108379636D02*
X165819819Y-108712969D01*
X175563220Y-94788866D02*
X174801316Y-94788866D01*
X177614819Y-98400791D02*
X177614819Y-99019838D01*
X177614819Y-99019838D02*
X177995771Y-98686505D01*
X177995771Y-98686505D02*
X177995771Y-98829362D01*
X177995771Y-98829362D02*
X178043390Y-98924600D01*
X178043390Y-98924600D02*
X178091009Y-98972219D01*
X178091009Y-98972219D02*
X178186247Y-99019838D01*
X178186247Y-99019838D02*
X178424342Y-99019838D01*
X178424342Y-99019838D02*
X178519580Y-98972219D01*
X178519580Y-98972219D02*
X178567200Y-98924600D01*
X178567200Y-98924600D02*
X178614819Y-98829362D01*
X178614819Y-98829362D02*
X178614819Y-98543648D01*
X178614819Y-98543648D02*
X178567200Y-98448410D01*
X178567200Y-98448410D02*
X178519580Y-98400791D01*
X178519580Y-99448410D02*
X178567200Y-99496029D01*
X178567200Y-99496029D02*
X178614819Y-99448410D01*
X178614819Y-99448410D02*
X178567200Y-99400791D01*
X178567200Y-99400791D02*
X178519580Y-99448410D01*
X178519580Y-99448410D02*
X178614819Y-99448410D01*
X177614819Y-99829362D02*
X177614819Y-100496028D01*
X177614819Y-100496028D02*
X178614819Y-100067457D01*
X178233866Y-100734124D02*
X178186247Y-100781743D01*
X178186247Y-100781743D02*
X178138628Y-100876981D01*
X178138628Y-100876981D02*
X178233866Y-101067457D01*
X178233866Y-101067457D02*
X178186247Y-101162695D01*
X178186247Y-101162695D02*
X178138628Y-101210314D01*
X177614819Y-101496029D02*
X177614819Y-102162695D01*
X177614819Y-102162695D02*
X178614819Y-101734124D01*
X178519580Y-102543648D02*
X178567200Y-102591267D01*
X178567200Y-102591267D02*
X178614819Y-102543648D01*
X178614819Y-102543648D02*
X178567200Y-102496029D01*
X178567200Y-102496029D02*
X178519580Y-102543648D01*
X178519580Y-102543648D02*
X178614819Y-102543648D01*
X177948152Y-103448409D02*
X178614819Y-103448409D01*
X177567200Y-103210314D02*
X178281485Y-102972219D01*
X178281485Y-102972219D02*
X178281485Y-103591266D01*
X177614819Y-103829362D02*
X178614819Y-104162695D01*
X178614819Y-104162695D02*
X177614819Y-104496028D01*
D10*
G04 #@! TO.C,R1*
X165678641Y-104820000D02*
X165371359Y-104820000D01*
X165678641Y-105580000D02*
X165371359Y-105580000D01*
G04 #@! TO.C,J10*
X175200000Y-97350000D02*
X175200000Y-98350000D01*
X175200000Y-98350000D02*
X176200000Y-98350000D01*
X178100000Y-95150000D02*
X177100000Y-95150000D01*
X178100000Y-96150000D02*
X178100000Y-95150000D01*
G04 #@! TO.C,J5*
X171500000Y-107200000D02*
X171500000Y-108200000D01*
X171500000Y-108200000D02*
X172500000Y-108200000D01*
X174400000Y-105000000D02*
X173400000Y-105000000D01*
X174400000Y-106000000D02*
X174400000Y-105000000D01*
G04 #@! TO.C,TP5*
X165800000Y-101700000D02*
G75*
G02*
X164400000Y-101700000I-700000J0D01*
G01*
X164400000Y-101700000D02*
G75*
G02*
X165800000Y-101700000I700000J0D01*
G01*
G04 #@! TO.C,C4*
X176059420Y-98590000D02*
X176340580Y-98590000D01*
X176059420Y-99610000D02*
X176340580Y-99610000D01*
G04 #@! TO.C,C9*
X176059420Y-103090000D02*
X176340580Y-103090000D01*
X176059420Y-104110000D02*
X176340580Y-104110000D01*
G04 #@! TO.C,C3*
X169190000Y-105857836D02*
X169190000Y-105642164D01*
X169910000Y-105857836D02*
X169910000Y-105642164D01*
G04 #@! TO.C,C10*
X176959420Y-104690000D02*
X177240580Y-104690000D01*
X176959420Y-105710000D02*
X177240580Y-105710000D01*
G04 #@! TO.C,TP3*
X168500000Y-101800000D02*
G75*
G02*
X167100000Y-101800000I-700000J0D01*
G01*
X167100000Y-101800000D02*
G75*
G02*
X168500000Y-101800000I700000J0D01*
G01*
D12*
G04 #@! TO.C,J3*
X175100000Y-106000000D02*
X178200000Y-106000000D01*
X175100000Y-106350000D02*
X175100000Y-106000000D01*
X175100000Y-109100000D02*
X175100000Y-108750000D01*
X178200000Y-106000000D02*
X178200000Y-106350000D01*
X178200000Y-108750000D02*
X178200000Y-109100000D01*
X178200000Y-109100000D02*
X175100000Y-109100000D01*
D10*
G04 #@! TO.C,C8*
X176059420Y-100090000D02*
X176340580Y-100090000D01*
X176059420Y-101110000D02*
X176340580Y-101110000D01*
D12*
G04 #@! TO.C,J11*
X171400000Y-94300000D02*
X174500000Y-94300000D01*
X171400000Y-94650000D02*
X171400000Y-94300000D01*
X171400000Y-97400000D02*
X171400000Y-97050000D01*
X174500000Y-94300000D02*
X174500000Y-94650000D01*
X174500000Y-97050000D02*
X174500000Y-97400000D01*
X174500000Y-97400000D02*
X171400000Y-97400000D01*
D10*
G04 #@! TO.C,R3*
X165753641Y-97720000D02*
X165446359Y-97720000D01*
X165753641Y-98480000D02*
X165446359Y-98480000D01*
G04 #@! TO.C,C2*
X168009420Y-103540000D02*
X168290580Y-103540000D01*
X168009420Y-104560000D02*
X168290580Y-104560000D01*
G04 #@! TO.C,TP4*
X165800000Y-99600000D02*
G75*
G02*
X164400000Y-99600000I-700000J0D01*
G01*
X164400000Y-99600000D02*
G75*
G02*
X165800000Y-99600000I700000J0D01*
G01*
G04 #@! TO.C,C5*
X176059420Y-101590000D02*
X176340580Y-101590000D01*
X176059420Y-102610000D02*
X176340580Y-102610000D01*
G04 #@! TO.C,R2*
X165346359Y-103120000D02*
X165653641Y-103120000D01*
X165346359Y-103880000D02*
X165653641Y-103880000D01*
G04 #@! TD*
%LPC*%
D13*
G04 #@! TO.C,J4*
X173800000Y-102900000D03*
D14*
X173800000Y-101650000D03*
X173800000Y-100400000D03*
G04 #@! TD*
D15*
G04 #@! TO.C,U1*
X169434998Y-102130000D03*
X170835000Y-102130000D03*
X170134999Y-101404599D03*
X169434998Y-100729998D03*
X170835000Y-100729998D03*
G04 #@! TD*
D16*
G04 #@! TO.C,J2*
X168300000Y-97900000D03*
D17*
X168300000Y-96630000D03*
X168300000Y-95360000D03*
G04 #@! TD*
D16*
G04 #@! TO.C,J1*
X168300000Y-108050000D03*
D17*
X168300000Y-106780000D03*
X168300000Y-105510000D03*
G04 #@! TD*
D18*
G04 #@! TO.C,R1*
X165015000Y-105200000D03*
X166035000Y-105200000D03*
G04 #@! TD*
D19*
G04 #@! TO.C,J10*
X176650000Y-96750000D03*
G04 #@! TD*
D20*
G04 #@! TO.C,J5*
X172950000Y-106600000D03*
G04 #@! TD*
D21*
G04 #@! TO.C,TP5*
X165100000Y-101700000D03*
G04 #@! TD*
D22*
G04 #@! TO.C,C4*
X176975000Y-99100000D03*
X175425000Y-99100000D03*
G04 #@! TD*
G04 #@! TO.C,C9*
X176975000Y-103600000D03*
X175425000Y-103600000D03*
G04 #@! TD*
D23*
G04 #@! TO.C,C3*
X169550000Y-105270000D03*
X169550000Y-106230000D03*
G04 #@! TD*
D22*
G04 #@! TO.C,C10*
X177875000Y-105200000D03*
X176325000Y-105200000D03*
G04 #@! TD*
D21*
G04 #@! TO.C,TP3*
X167800000Y-101800000D03*
G04 #@! TD*
D24*
G04 #@! TO.C,J3*
X176650000Y-107550000D03*
G04 #@! TD*
D22*
G04 #@! TO.C,C8*
X176975000Y-100600000D03*
X175425000Y-100600000D03*
G04 #@! TD*
D25*
G04 #@! TO.C,J11*
X172950000Y-95850000D03*
G04 #@! TD*
D18*
G04 #@! TO.C,R3*
X165090000Y-98100000D03*
X166110000Y-98100000D03*
G04 #@! TD*
D22*
G04 #@! TO.C,C2*
X168925000Y-104050000D03*
X167375000Y-104050000D03*
G04 #@! TD*
D21*
G04 #@! TO.C,TP4*
X165100000Y-99600000D03*
G04 #@! TD*
D22*
G04 #@! TO.C,C5*
X176975000Y-102100000D03*
X175425000Y-102100000D03*
G04 #@! TD*
D26*
G04 #@! TO.C,R2*
X166010000Y-103500000D03*
X164990000Y-103500000D03*
G04 #@! TD*
%LPD*%
M02*
